%TF.GenerationSoftware,KiCad,Pcbnew,8.0.6*%
%TF.CreationDate,2024-10-19T01:04:28+01:00*%
%TF.ProjectId,panel,70616e65-6c2e-46b6-9963-61645f706362,rev?*%
%TF.SameCoordinates,Original*%
%TF.FileFunction,Paste,Top*%
%TF.FilePolarity,Positive*%
%FSLAX46Y46*%
G04 Gerber Fmt 4.6, Leading zero omitted, Abs format (unit mm)*
G04 Created by KiCad (PCBNEW 8.0.6) date 2024-10-19 01:04:28*
%MOMM*%
%LPD*%
G01*
G04 APERTURE LIST*
G04 Aperture macros list*
%AMRoundRect*
0 Rectangle with rounded corners*
0 $1 Rounding radius*
0 $2 $3 $4 $5 $6 $7 $8 $9 X,Y pos of 4 corners*
0 Add a 4 corners polygon primitive as box body*
4,1,4,$2,$3,$4,$5,$6,$7,$8,$9,$2,$3,0*
0 Add four circle primitives for the rounded corners*
1,1,$1+$1,$2,$3*
1,1,$1+$1,$4,$5*
1,1,$1+$1,$6,$7*
1,1,$1+$1,$8,$9*
0 Add four rect primitives between the rounded corners*
20,1,$1+$1,$2,$3,$4,$5,0*
20,1,$1+$1,$4,$5,$6,$7,0*
20,1,$1+$1,$6,$7,$8,$9,0*
20,1,$1+$1,$8,$9,$2,$3,0*%
G04 Aperture macros list end*
%ADD10RoundRect,0.150000X-0.587500X-0.150000X0.587500X-0.150000X0.587500X0.150000X-0.587500X0.150000X0*%
%ADD11RoundRect,0.250000X0.450000X-0.350000X0.450000X0.350000X-0.450000X0.350000X-0.450000X-0.350000X0*%
G04 APERTURE END LIST*
D10*
%TO.C,Q2*%
X160410000Y-122930000D03*
X160410000Y-124830000D03*
X162285000Y-123880000D03*
%TD*%
%TO.C,Q4*%
X131890000Y-87500000D03*
X131890000Y-89400000D03*
X133765000Y-88450000D03*
%TD*%
D11*
%TO.C,R3*%
X167220000Y-124980000D03*
X167220000Y-122980000D03*
%TD*%
%TO.C,R2*%
X167220000Y-99550000D03*
X167220000Y-97550000D03*
%TD*%
D10*
%TO.C,Q4*%
X188930000Y-57070000D03*
X188930000Y-58970000D03*
X190805000Y-58020000D03*
%TD*%
%TO.C,Q2*%
X131890000Y-31640000D03*
X131890000Y-33540000D03*
X133765000Y-32590000D03*
%TD*%
D11*
%TO.C,R2*%
X110180000Y-99550000D03*
X110180000Y-97550000D03*
%TD*%
D10*
%TO.C,Q1*%
X103242500Y-41640000D03*
X103242500Y-43540000D03*
X105117500Y-42590000D03*
%TD*%
%TO.C,Q3*%
X131890000Y-67070000D03*
X131890000Y-68970000D03*
X133765000Y-68020000D03*
%TD*%
%TO.C,Q3*%
X160410000Y-36640000D03*
X160410000Y-38540000D03*
X162285000Y-37590000D03*
%TD*%
D11*
%TO.C,R2*%
X138700000Y-99550000D03*
X138700000Y-97550000D03*
%TD*%
%TO.C,R4*%
X138700000Y-28690000D03*
X138700000Y-26690000D03*
%TD*%
%TO.C,R3*%
X138700000Y-64120000D03*
X138700000Y-62120000D03*
%TD*%
%TO.C,R3*%
X138700000Y-33690000D03*
X138700000Y-31690000D03*
%TD*%
D10*
%TO.C,Q1*%
X131762500Y-41640000D03*
X131762500Y-43540000D03*
X133637500Y-42590000D03*
%TD*%
%TO.C,Q1*%
X103242500Y-102500000D03*
X103242500Y-104400000D03*
X105117500Y-103450000D03*
%TD*%
D11*
%TO.C,R4*%
X195740000Y-89550000D03*
X195740000Y-87550000D03*
%TD*%
D10*
%TO.C,Q1*%
X188802500Y-72070000D03*
X188802500Y-73970000D03*
X190677500Y-73020000D03*
%TD*%
D11*
%TO.C,R2*%
X195740000Y-99550000D03*
X195740000Y-97550000D03*
%TD*%
%TO.C,R1*%
X195740000Y-43690000D03*
X195740000Y-41690000D03*
%TD*%
%TO.C,R1*%
X138700000Y-134980000D03*
X138700000Y-132980000D03*
%TD*%
D10*
%TO.C,Q1*%
X131762500Y-102500000D03*
X131762500Y-104400000D03*
X133637500Y-103450000D03*
%TD*%
%TO.C,Q4*%
X160410000Y-57070000D03*
X160410000Y-58970000D03*
X162285000Y-58020000D03*
%TD*%
D11*
%TO.C,R1*%
X195740000Y-74120000D03*
X195740000Y-72120000D03*
%TD*%
%TO.C,R2*%
X110180000Y-38690000D03*
X110180000Y-36690000D03*
%TD*%
D10*
%TO.C,Q1*%
X188802500Y-102500000D03*
X188802500Y-104400000D03*
X190677500Y-103450000D03*
%TD*%
D11*
%TO.C,R1*%
X167220000Y-74120000D03*
X167220000Y-72120000D03*
%TD*%
%TO.C,R2*%
X138700000Y-38690000D03*
X138700000Y-36690000D03*
%TD*%
D10*
%TO.C,Q3*%
X131890000Y-97500000D03*
X131890000Y-99400000D03*
X133765000Y-98450000D03*
%TD*%
D11*
%TO.C,R3*%
X195740000Y-124980000D03*
X195740000Y-122980000D03*
%TD*%
%TO.C,R3*%
X195740000Y-64120000D03*
X195740000Y-62120000D03*
%TD*%
%TO.C,R4*%
X167220000Y-28690000D03*
X167220000Y-26690000D03*
%TD*%
D10*
%TO.C,Q2*%
X160410000Y-62070000D03*
X160410000Y-63970000D03*
X162285000Y-63020000D03*
%TD*%
D11*
%TO.C,R2*%
X167220000Y-129980000D03*
X167220000Y-127980000D03*
%TD*%
%TO.C,R3*%
X110180000Y-64120000D03*
X110180000Y-62120000D03*
%TD*%
D10*
%TO.C,Q1*%
X103242500Y-132930000D03*
X103242500Y-134830000D03*
X105117500Y-133880000D03*
%TD*%
%TO.C,Q3*%
X103370000Y-127930000D03*
X103370000Y-129830000D03*
X105245000Y-128880000D03*
%TD*%
%TO.C,Q4*%
X103370000Y-87500000D03*
X103370000Y-89400000D03*
X105245000Y-88450000D03*
%TD*%
D11*
%TO.C,R4*%
X138700000Y-89550000D03*
X138700000Y-87550000D03*
%TD*%
%TO.C,R4*%
X195740000Y-119980000D03*
X195740000Y-117980000D03*
%TD*%
D10*
%TO.C,Q4*%
X188930000Y-117930000D03*
X188930000Y-119830000D03*
X190805000Y-118880000D03*
%TD*%
%TO.C,Q1*%
X131762500Y-72070000D03*
X131762500Y-73970000D03*
X133637500Y-73020000D03*
%TD*%
D11*
%TO.C,R3*%
X195740000Y-94550000D03*
X195740000Y-92550000D03*
%TD*%
D10*
%TO.C,Q4*%
X160410000Y-26640000D03*
X160410000Y-28540000D03*
X162285000Y-27590000D03*
%TD*%
%TO.C,Q3*%
X188930000Y-36640000D03*
X188930000Y-38540000D03*
X190805000Y-37590000D03*
%TD*%
D11*
%TO.C,R3*%
X110180000Y-124980000D03*
X110180000Y-122980000D03*
%TD*%
D10*
%TO.C,Q3*%
X160410000Y-127930000D03*
X160410000Y-129830000D03*
X162285000Y-128880000D03*
%TD*%
%TO.C,Q1*%
X160282500Y-72070000D03*
X160282500Y-73970000D03*
X162157500Y-73020000D03*
%TD*%
%TO.C,Q2*%
X188930000Y-62070000D03*
X188930000Y-63970000D03*
X190805000Y-63020000D03*
%TD*%
D11*
%TO.C,R2*%
X167220000Y-69120000D03*
X167220000Y-67120000D03*
%TD*%
D10*
%TO.C,Q2*%
X131890000Y-122930000D03*
X131890000Y-124830000D03*
X133765000Y-123880000D03*
%TD*%
%TO.C,Q4*%
X103370000Y-26640000D03*
X103370000Y-28540000D03*
X105245000Y-27590000D03*
%TD*%
D11*
%TO.C,R2*%
X138700000Y-69120000D03*
X138700000Y-67120000D03*
%TD*%
D10*
%TO.C,Q4*%
X131890000Y-117930000D03*
X131890000Y-119830000D03*
X133765000Y-118880000D03*
%TD*%
D11*
%TO.C,R3*%
X138700000Y-124980000D03*
X138700000Y-122980000D03*
%TD*%
%TO.C,R3*%
X195740000Y-33690000D03*
X195740000Y-31690000D03*
%TD*%
D10*
%TO.C,Q3*%
X188930000Y-97500000D03*
X188930000Y-99400000D03*
X190805000Y-98450000D03*
%TD*%
%TO.C,Q2*%
X131890000Y-62070000D03*
X131890000Y-63970000D03*
X133765000Y-63020000D03*
%TD*%
D11*
%TO.C,R1*%
X110180000Y-134980000D03*
X110180000Y-132980000D03*
%TD*%
D10*
%TO.C,Q1*%
X160282500Y-41640000D03*
X160282500Y-43540000D03*
X162157500Y-42590000D03*
%TD*%
%TO.C,Q3*%
X103370000Y-36640000D03*
X103370000Y-38540000D03*
X105245000Y-37590000D03*
%TD*%
D11*
%TO.C,R3*%
X138700000Y-94550000D03*
X138700000Y-92550000D03*
%TD*%
D10*
%TO.C,Q3*%
X188930000Y-67070000D03*
X188930000Y-68970000D03*
X190805000Y-68020000D03*
%TD*%
%TO.C,Q2*%
X188930000Y-31640000D03*
X188930000Y-33540000D03*
X190805000Y-32590000D03*
%TD*%
%TO.C,Q4*%
X103370000Y-57070000D03*
X103370000Y-58970000D03*
X105245000Y-58020000D03*
%TD*%
%TO.C,Q2*%
X188930000Y-122930000D03*
X188930000Y-124830000D03*
X190805000Y-123880000D03*
%TD*%
%TO.C,Q3*%
X188930000Y-127930000D03*
X188930000Y-129830000D03*
X190805000Y-128880000D03*
%TD*%
D11*
%TO.C,R4*%
X195740000Y-28690000D03*
X195740000Y-26690000D03*
%TD*%
%TO.C,R1*%
X138700000Y-104550000D03*
X138700000Y-102550000D03*
%TD*%
D10*
%TO.C,Q1*%
X188802500Y-132930000D03*
X188802500Y-134830000D03*
X190677500Y-133880000D03*
%TD*%
%TO.C,Q2*%
X103370000Y-62070000D03*
X103370000Y-63970000D03*
X105245000Y-63020000D03*
%TD*%
D11*
%TO.C,R2*%
X195740000Y-69120000D03*
X195740000Y-67120000D03*
%TD*%
D10*
%TO.C,Q2*%
X188930000Y-92500000D03*
X188930000Y-94400000D03*
X190805000Y-93450000D03*
%TD*%
D11*
%TO.C,R2*%
X110180000Y-129980000D03*
X110180000Y-127980000D03*
%TD*%
D10*
%TO.C,Q4*%
X160410000Y-87500000D03*
X160410000Y-89400000D03*
X162285000Y-88450000D03*
%TD*%
%TO.C,Q2*%
X160410000Y-31640000D03*
X160410000Y-33540000D03*
X162285000Y-32590000D03*
%TD*%
D11*
%TO.C,R2*%
X195740000Y-129980000D03*
X195740000Y-127980000D03*
%TD*%
%TO.C,R2*%
X167220000Y-38690000D03*
X167220000Y-36690000D03*
%TD*%
%TO.C,R4*%
X167220000Y-59120000D03*
X167220000Y-57120000D03*
%TD*%
%TO.C,R1*%
X167220000Y-134980000D03*
X167220000Y-132980000D03*
%TD*%
%TO.C,R4*%
X195740000Y-59120000D03*
X195740000Y-57120000D03*
%TD*%
%TO.C,R4*%
X138700000Y-59120000D03*
X138700000Y-57120000D03*
%TD*%
D10*
%TO.C,Q2*%
X103370000Y-31640000D03*
X103370000Y-33540000D03*
X105245000Y-32590000D03*
%TD*%
%TO.C,Q3*%
X160410000Y-67070000D03*
X160410000Y-68970000D03*
X162285000Y-68020000D03*
%TD*%
%TO.C,Q3*%
X131890000Y-36640000D03*
X131890000Y-38540000D03*
X133765000Y-37590000D03*
%TD*%
D11*
%TO.C,R3*%
X167220000Y-64120000D03*
X167220000Y-62120000D03*
%TD*%
D10*
%TO.C,Q3*%
X103370000Y-67070000D03*
X103370000Y-68970000D03*
X105245000Y-68020000D03*
%TD*%
%TO.C,Q1*%
X160282500Y-132930000D03*
X160282500Y-134830000D03*
X162157500Y-133880000D03*
%TD*%
%TO.C,Q4*%
X188930000Y-87500000D03*
X188930000Y-89400000D03*
X190805000Y-88450000D03*
%TD*%
D11*
%TO.C,R4*%
X110180000Y-59120000D03*
X110180000Y-57120000D03*
%TD*%
%TO.C,R2*%
X138700000Y-129980000D03*
X138700000Y-127980000D03*
%TD*%
%TO.C,R1*%
X195740000Y-104550000D03*
X195740000Y-102550000D03*
%TD*%
%TO.C,R1*%
X138700000Y-43690000D03*
X138700000Y-41690000D03*
%TD*%
%TO.C,R4*%
X110180000Y-89550000D03*
X110180000Y-87550000D03*
%TD*%
%TO.C,R2*%
X195740000Y-38690000D03*
X195740000Y-36690000D03*
%TD*%
%TO.C,R1*%
X110180000Y-74120000D03*
X110180000Y-72120000D03*
%TD*%
D10*
%TO.C,Q1*%
X188802500Y-41640000D03*
X188802500Y-43540000D03*
X190677500Y-42590000D03*
%TD*%
D11*
%TO.C,R1*%
X110180000Y-104550000D03*
X110180000Y-102550000D03*
%TD*%
D10*
%TO.C,Q3*%
X131890000Y-127930000D03*
X131890000Y-129830000D03*
X133765000Y-128880000D03*
%TD*%
D11*
%TO.C,R4*%
X167220000Y-89550000D03*
X167220000Y-87550000D03*
%TD*%
D10*
%TO.C,Q4*%
X103370000Y-117930000D03*
X103370000Y-119830000D03*
X105245000Y-118880000D03*
%TD*%
D11*
%TO.C,R1*%
X138700000Y-74120000D03*
X138700000Y-72120000D03*
%TD*%
D10*
%TO.C,Q4*%
X131890000Y-26640000D03*
X131890000Y-28540000D03*
X133765000Y-27590000D03*
%TD*%
D11*
%TO.C,R2*%
X110180000Y-69120000D03*
X110180000Y-67120000D03*
%TD*%
D10*
%TO.C,Q3*%
X160410000Y-97500000D03*
X160410000Y-99400000D03*
X162285000Y-98450000D03*
%TD*%
D11*
%TO.C,R3*%
X110180000Y-94550000D03*
X110180000Y-92550000D03*
%TD*%
D10*
%TO.C,Q2*%
X160410000Y-92500000D03*
X160410000Y-94400000D03*
X162285000Y-93450000D03*
%TD*%
D11*
%TO.C,R4*%
X138700000Y-119980000D03*
X138700000Y-117980000D03*
%TD*%
D10*
%TO.C,Q1*%
X160282500Y-102500000D03*
X160282500Y-104400000D03*
X162157500Y-103450000D03*
%TD*%
D11*
%TO.C,R1*%
X195740000Y-134980000D03*
X195740000Y-132980000D03*
%TD*%
%TO.C,R1*%
X167220000Y-104550000D03*
X167220000Y-102550000D03*
%TD*%
%TO.C,R4*%
X110180000Y-119980000D03*
X110180000Y-117980000D03*
%TD*%
%TO.C,R1*%
X110180000Y-43690000D03*
X110180000Y-41690000D03*
%TD*%
D10*
%TO.C,Q4*%
X160410000Y-117930000D03*
X160410000Y-119830000D03*
X162285000Y-118880000D03*
%TD*%
%TO.C,Q4*%
X188930000Y-26640000D03*
X188930000Y-28540000D03*
X190805000Y-27590000D03*
%TD*%
D11*
%TO.C,R4*%
X167220000Y-119980000D03*
X167220000Y-117980000D03*
%TD*%
%TO.C,R1*%
X167220000Y-43690000D03*
X167220000Y-41690000D03*
%TD*%
D10*
%TO.C,Q2*%
X103370000Y-122930000D03*
X103370000Y-124830000D03*
X105245000Y-123880000D03*
%TD*%
D11*
%TO.C,R3*%
X167220000Y-94550000D03*
X167220000Y-92550000D03*
%TD*%
D10*
%TO.C,Q1*%
X103242500Y-72070000D03*
X103242500Y-73970000D03*
X105117500Y-73020000D03*
%TD*%
%TO.C,Q1*%
X131762500Y-132930000D03*
X131762500Y-134830000D03*
X133637500Y-133880000D03*
%TD*%
D11*
%TO.C,R3*%
X167220000Y-33690000D03*
X167220000Y-31690000D03*
%TD*%
D10*
%TO.C,Q3*%
X103370000Y-97500000D03*
X103370000Y-99400000D03*
X105245000Y-98450000D03*
%TD*%
%TO.C,Q2*%
X103370000Y-92500000D03*
X103370000Y-94400000D03*
X105245000Y-93450000D03*
%TD*%
%TO.C,Q2*%
X131890000Y-92500000D03*
X131890000Y-94400000D03*
X133765000Y-93450000D03*
%TD*%
%TO.C,Q4*%
X131890000Y-57070000D03*
X131890000Y-58970000D03*
X133765000Y-58020000D03*
%TD*%
D11*
%TO.C,R3*%
X110180000Y-33690000D03*
X110180000Y-31690000D03*
%TD*%
%TO.C,R4*%
X110180000Y-28690000D03*
X110180000Y-26690000D03*
%TD*%
M02*
