%TF.GenerationSoftware,KiCad,Pcbnew,8.0.6*%
%TF.CreationDate,2024-10-19T01:04:28+01:00*%
%TF.ProjectId,panel,70616e65-6c2e-46b6-9963-61645f706362,rev?*%
%TF.SameCoordinates,Original*%
%TF.FileFunction,Copper,L1,Top*%
%TF.FilePolarity,Positive*%
%FSLAX46Y46*%
G04 Gerber Fmt 4.6, Leading zero omitted, Abs format (unit mm)*
G04 Created by KiCad (PCBNEW 8.0.6) date 2024-10-19 01:04:28*
%MOMM*%
%LPD*%
G01*
G04 APERTURE LIST*
G04 Aperture macros list*
%AMRoundRect*
0 Rectangle with rounded corners*
0 $1 Rounding radius*
0 $2 $3 $4 $5 $6 $7 $8 $9 X,Y pos of 4 corners*
0 Add a 4 corners polygon primitive as box body*
4,1,4,$2,$3,$4,$5,$6,$7,$8,$9,$2,$3,0*
0 Add four circle primitives for the rounded corners*
1,1,$1+$1,$2,$3*
1,1,$1+$1,$4,$5*
1,1,$1+$1,$6,$7*
1,1,$1+$1,$8,$9*
0 Add four rect primitives between the rounded corners*
20,1,$1+$1,$2,$3,$4,$5,0*
20,1,$1+$1,$4,$5,$6,$7,0*
20,1,$1+$1,$6,$7,$8,$9,0*
20,1,$1+$1,$8,$9,$2,$3,0*%
%AMFreePoly0*
4,1,19,-0.850000,0.510000,-0.510000,0.850000,0.255000,0.850000,0.408997,0.829726,0.552500,0.770285,0.675729,0.675729,0.770285,0.552500,0.829726,0.408997,0.850000,0.255000,0.850000,-0.510000,0.510000,-0.850000,-0.255000,-0.850000,-0.408997,-0.829726,-0.552500,-0.770285,-0.675729,-0.675729,-0.770285,-0.552500,-0.829726,-0.408997,-0.850000,-0.255000,-0.850000,0.510000,-0.850000,0.510000,
$1*%
G04 Aperture macros list end*
%TA.AperFunction,SMDPad,CuDef*%
%ADD10RoundRect,0.150000X-0.587500X-0.150000X0.587500X-0.150000X0.587500X0.150000X-0.587500X0.150000X0*%
%TD*%
%TA.AperFunction,ComponentPad*%
%ADD11O,1.700000X1.700000*%
%TD*%
%TA.AperFunction,ComponentPad*%
%ADD12FreePoly0,0.000000*%
%TD*%
%TA.AperFunction,ComponentPad*%
%ADD13C,1.700000*%
%TD*%
%TA.AperFunction,SMDPad,CuDef*%
%ADD14RoundRect,0.250000X0.450000X-0.350000X0.450000X0.350000X-0.450000X0.350000X-0.450000X-0.350000X0*%
%TD*%
%TA.AperFunction,ViaPad*%
%ADD15C,0.600000*%
%TD*%
%TA.AperFunction,Conductor*%
%ADD16C,0.200000*%
%TD*%
G04 APERTURE END LIST*
D10*
%TO.P,Q2,1,B*%
%TO.N,Board_14-Net-(Q2-B)*%
X160410000Y-122930000D03*
%TO.P,Q2,2,E*%
%TO.N,Board_14-Net-(Q2-E)*%
X160410000Y-124830000D03*
%TO.P,Q2,3,C*%
%TO.N,Board_14-Net-(J1-Pin_2)*%
X162285000Y-123880000D03*
%TD*%
D11*
%TO.P,J1,1,Pin_1*%
%TO.N,Board_13-Net-(J1-Pin_1)*%
X135660000Y-113390000D03*
%TO.P,J1,2,Pin_2*%
%TO.N,Board_13-Net-(J1-Pin_2)*%
X133120000Y-113390000D03*
%TD*%
D10*
%TO.P,Q4,1,B*%
%TO.N,Board_9-Net-(Q4-B)*%
X131890000Y-87500000D03*
%TO.P,Q4,2,E*%
%TO.N,Board_9-Net-(Q2-E)*%
X131890000Y-89400000D03*
%TO.P,Q4,3,C*%
%TO.N,Board_9-Net-(J1-Pin_1)*%
X133765000Y-88450000D03*
%TD*%
D12*
%TO.P,U1,1,EN*%
%TO.N,Board_12-unconnected-(U1-EN-Pad1)*%
X94330000Y-112930000D03*
D13*
%TO.P,U1,2,GPIO3*%
%TO.N,Board_12-unconnected-(U1-GPIO3-Pad2)*%
X94330000Y-115470000D03*
%TO.P,U1,3,GPIO5*%
%TO.N,Board_12-unconnected-(U1-GPIO5-Pad3)*%
X94330000Y-118010000D03*
%TO.P,U1,4,GPIO7*%
%TO.N,Board_12-unconnected-(U1-GPIO7-Pad4)*%
X94330000Y-120550000D03*
%TO.P,U1,5,GPIO9*%
%TO.N,Board_12-unconnected-(U1-GPIO9-Pad5)*%
X94330000Y-123090000D03*
%TO.P,U1,6,GPIO11*%
%TO.N,Board_12-unconnected-(U1-GPIO11-Pad6)*%
X94330000Y-125630000D03*
%TO.P,U1,7,GPIO12*%
%TO.N,Board_12-unconnected-(U1-GPIO12-Pad7)*%
X94330000Y-128170000D03*
%TO.P,U1,8,3V3*%
%TO.N,Board_12-Net-(Q1-E)*%
X94330000Y-130710000D03*
%TO.P,U1,9,VBUS*%
%TO.N,Board_12-unconnected-(U1-VBUS-Pad9)*%
X117190000Y-130710000D03*
%TO.P,U1,10,GND*%
%TO.N,Board_12-Net-(Q2-E)*%
X117190000Y-128170000D03*
%TO.P,U1,11,XTAL_32K_N*%
%TO.N,Board_12-unconnected-(U1-XTAL_32K_N-Pad11)*%
X117190000Y-125630000D03*
%TO.P,U1,12,DAC_2*%
%TO.N,Board_12-unconnected-(U1-DAC_2-Pad12)*%
X117190000Y-123090000D03*
%TO.P,U1,13,GPIO33*%
%TO.N,Board_12-Net-(U1-GPIO33)*%
X117190000Y-120550000D03*
%TO.P,U1,14,GPIO35*%
%TO.N,Board_12-Net-(U1-GPIO35)*%
X117190000Y-118010000D03*
%TO.P,U1,15,GPIO37*%
%TO.N,Board_12-Net-(U1-GPIO37)*%
X117190000Y-115470000D03*
%TO.P,U1,16,GPIO39*%
%TO.N,Board_12-Net-(U1-GPIO39)*%
X117190000Y-112930000D03*
%TO.P,U1,17,GPIO1*%
%TO.N,Board_12-unconnected-(U1-GPIO1-Pad17)*%
X96870000Y-112930000D03*
%TO.P,U1,18,GPIO2*%
%TO.N,Board_12-unconnected-(U1-GPIO2-Pad18)*%
X96870000Y-115470000D03*
%TO.P,U1,19,GPIO4*%
%TO.N,Board_12-unconnected-(U1-GPIO4-Pad19)*%
X96870000Y-118010000D03*
%TO.P,U1,20,GPIO6*%
%TO.N,Board_12-unconnected-(U1-GPIO6-Pad20)*%
X96870000Y-120550000D03*
%TO.P,U1,21,GPIO8*%
%TO.N,Board_12-unconnected-(U1-GPIO8-Pad21)*%
X96870000Y-123090000D03*
%TO.P,U1,22,GPIO10*%
%TO.N,Board_12-unconnected-(U1-GPIO10-Pad22)*%
X96870000Y-125630000D03*
%TO.P,U1,23,GPIO13*%
%TO.N,Board_12-unconnected-(U1-GPIO13-Pad23)*%
X96870000Y-128170000D03*
%TO.P,U1,24,GPIO14*%
%TO.N,Board_12-unconnected-(U1-GPIO14-Pad24)*%
X96870000Y-130710000D03*
%TO.P,U1,25,XTAL_32K_P*%
%TO.N,Board_12-unconnected-(U1-XTAL_32K_P-Pad25)*%
X114650000Y-130710000D03*
%TO.P,U1,26,GND*%
%TO.N,Board_12-Net-(Q2-E)*%
X114650000Y-128170000D03*
%TO.P,U1,27,DAC_1*%
%TO.N,Board_12-unconnected-(U1-DAC_1-Pad27)*%
X114650000Y-125630000D03*
%TO.P,U1,28,GPIO21*%
%TO.N,Board_12-unconnected-(U1-GPIO21-Pad28)*%
X114650000Y-123090000D03*
%TO.P,U1,29,GPIO34*%
%TO.N,Board_12-unconnected-(U1-GPIO34-Pad29)*%
X114650000Y-120550000D03*
%TO.P,U1,30,GPIO36*%
%TO.N,Board_12-unconnected-(U1-GPIO36-Pad30)*%
X114650000Y-118010000D03*
%TO.P,U1,31,GPIO38*%
%TO.N,Board_12-unconnected-(U1-GPIO38-Pad31)*%
X114650000Y-115470000D03*
%TO.P,U1,32,GPIO40*%
%TO.N,Board_12-unconnected-(U1-GPIO40-Pad32)*%
X114650000Y-112930000D03*
%TD*%
D14*
%TO.P,R3,1*%
%TO.N,Board_14-Net-(Q2-B)*%
X167220000Y-124980000D03*
%TO.P,R3,2*%
%TO.N,Board_14-Net-(U1-GPIO37)*%
X167220000Y-122980000D03*
%TD*%
%TO.P,R2,1*%
%TO.N,Board_10-Net-(Q3-B)*%
X167220000Y-99550000D03*
%TO.P,R2,2*%
%TO.N,Board_10-Net-(U1-GPIO35)*%
X167220000Y-97550000D03*
%TD*%
D10*
%TO.P,Q4,1,B*%
%TO.N,Board_7-Net-(Q4-B)*%
X188930000Y-57070000D03*
%TO.P,Q4,2,E*%
%TO.N,Board_7-Net-(Q2-E)*%
X188930000Y-58970000D03*
%TO.P,Q4,3,C*%
%TO.N,Board_7-Net-(J1-Pin_1)*%
X190805000Y-58020000D03*
%TD*%
D11*
%TO.P,J1,1,Pin_1*%
%TO.N,Board_7-Net-(J1-Pin_1)*%
X192700000Y-52530000D03*
%TO.P,J1,2,Pin_2*%
%TO.N,Board_7-Net-(J1-Pin_2)*%
X190160000Y-52530000D03*
%TD*%
%TO.P,J1,1,Pin_1*%
%TO.N,Board_9-Net-(J1-Pin_1)*%
X135660000Y-82960000D03*
%TO.P,J1,2,Pin_2*%
%TO.N,Board_9-Net-(J1-Pin_2)*%
X133120000Y-82960000D03*
%TD*%
D10*
%TO.P,Q2,1,B*%
%TO.N,Board_1-Net-(Q2-B)*%
X131890000Y-31640000D03*
%TO.P,Q2,2,E*%
%TO.N,Board_1-Net-(Q2-E)*%
X131890000Y-33540000D03*
%TO.P,Q2,3,C*%
%TO.N,Board_1-Net-(J1-Pin_2)*%
X133765000Y-32590000D03*
%TD*%
D14*
%TO.P,R2,1*%
%TO.N,Board_8-Net-(Q3-B)*%
X110180000Y-99550000D03*
%TO.P,R2,2*%
%TO.N,Board_8-Net-(U1-GPIO35)*%
X110180000Y-97550000D03*
%TD*%
D10*
%TO.P,Q1,1,B*%
%TO.N,Board_0-Net-(Q1-B)*%
X103242500Y-41640000D03*
%TO.P,Q1,2,E*%
%TO.N,Board_0-Net-(Q1-E)*%
X103242500Y-43540000D03*
%TO.P,Q1,3,C*%
%TO.N,Board_0-Net-(J1-Pin_2)*%
X105117500Y-42590000D03*
%TD*%
%TO.P,Q3,1,B*%
%TO.N,Board_5-Net-(Q3-B)*%
X131890000Y-67070000D03*
%TO.P,Q3,2,E*%
%TO.N,Board_5-Net-(Q1-E)*%
X131890000Y-68970000D03*
%TO.P,Q3,3,C*%
%TO.N,Board_5-Net-(J1-Pin_1)*%
X133765000Y-68020000D03*
%TD*%
%TO.P,Q3,1,B*%
%TO.N,Board_2-Net-(Q3-B)*%
X160410000Y-36640000D03*
%TO.P,Q3,2,E*%
%TO.N,Board_2-Net-(Q1-E)*%
X160410000Y-38540000D03*
%TO.P,Q3,3,C*%
%TO.N,Board_2-Net-(J1-Pin_1)*%
X162285000Y-37590000D03*
%TD*%
D14*
%TO.P,R2,1*%
%TO.N,Board_9-Net-(Q3-B)*%
X138700000Y-99550000D03*
%TO.P,R2,2*%
%TO.N,Board_9-Net-(U1-GPIO35)*%
X138700000Y-97550000D03*
%TD*%
%TO.P,R4,1*%
%TO.N,Board_1-Net-(Q4-B)*%
X138700000Y-28690000D03*
%TO.P,R4,2*%
%TO.N,Board_1-Net-(U1-GPIO39)*%
X138700000Y-26690000D03*
%TD*%
%TO.P,R3,1*%
%TO.N,Board_5-Net-(Q2-B)*%
X138700000Y-64120000D03*
%TO.P,R3,2*%
%TO.N,Board_5-Net-(U1-GPIO37)*%
X138700000Y-62120000D03*
%TD*%
D11*
%TO.P,J1,1,Pin_1*%
%TO.N,Board_5-Net-(J1-Pin_1)*%
X135660000Y-52530000D03*
%TO.P,J1,2,Pin_2*%
%TO.N,Board_5-Net-(J1-Pin_2)*%
X133120000Y-52530000D03*
%TD*%
D14*
%TO.P,R3,1*%
%TO.N,Board_1-Net-(Q2-B)*%
X138700000Y-33690000D03*
%TO.P,R3,2*%
%TO.N,Board_1-Net-(U1-GPIO37)*%
X138700000Y-31690000D03*
%TD*%
D11*
%TO.P,J1,1,Pin_1*%
%TO.N,Board_1-Net-(J1-Pin_1)*%
X135660000Y-22100000D03*
%TO.P,J1,2,Pin_2*%
%TO.N,Board_1-Net-(J1-Pin_2)*%
X133120000Y-22100000D03*
%TD*%
D12*
%TO.P,U1,1,EN*%
%TO.N,Board_9-unconnected-(U1-EN-Pad1)*%
X122850000Y-82500000D03*
D13*
%TO.P,U1,2,GPIO3*%
%TO.N,Board_9-unconnected-(U1-GPIO3-Pad2)*%
X122850000Y-85040000D03*
%TO.P,U1,3,GPIO5*%
%TO.N,Board_9-unconnected-(U1-GPIO5-Pad3)*%
X122850000Y-87580000D03*
%TO.P,U1,4,GPIO7*%
%TO.N,Board_9-unconnected-(U1-GPIO7-Pad4)*%
X122850000Y-90120000D03*
%TO.P,U1,5,GPIO9*%
%TO.N,Board_9-unconnected-(U1-GPIO9-Pad5)*%
X122850000Y-92660000D03*
%TO.P,U1,6,GPIO11*%
%TO.N,Board_9-unconnected-(U1-GPIO11-Pad6)*%
X122850000Y-95200000D03*
%TO.P,U1,7,GPIO12*%
%TO.N,Board_9-unconnected-(U1-GPIO12-Pad7)*%
X122850000Y-97740000D03*
%TO.P,U1,8,3V3*%
%TO.N,Board_9-Net-(Q1-E)*%
X122850000Y-100280000D03*
%TO.P,U1,9,VBUS*%
%TO.N,Board_9-unconnected-(U1-VBUS-Pad9)*%
X145710000Y-100280000D03*
%TO.P,U1,10,GND*%
%TO.N,Board_9-Net-(Q2-E)*%
X145710000Y-97740000D03*
%TO.P,U1,11,XTAL_32K_N*%
%TO.N,Board_9-unconnected-(U1-XTAL_32K_N-Pad11)*%
X145710000Y-95200000D03*
%TO.P,U1,12,DAC_2*%
%TO.N,Board_9-unconnected-(U1-DAC_2-Pad12)*%
X145710000Y-92660000D03*
%TO.P,U1,13,GPIO33*%
%TO.N,Board_9-Net-(U1-GPIO33)*%
X145710000Y-90120000D03*
%TO.P,U1,14,GPIO35*%
%TO.N,Board_9-Net-(U1-GPIO35)*%
X145710000Y-87580000D03*
%TO.P,U1,15,GPIO37*%
%TO.N,Board_9-Net-(U1-GPIO37)*%
X145710000Y-85040000D03*
%TO.P,U1,16,GPIO39*%
%TO.N,Board_9-Net-(U1-GPIO39)*%
X145710000Y-82500000D03*
%TO.P,U1,17,GPIO1*%
%TO.N,Board_9-unconnected-(U1-GPIO1-Pad17)*%
X125390000Y-82500000D03*
%TO.P,U1,18,GPIO2*%
%TO.N,Board_9-unconnected-(U1-GPIO2-Pad18)*%
X125390000Y-85040000D03*
%TO.P,U1,19,GPIO4*%
%TO.N,Board_9-unconnected-(U1-GPIO4-Pad19)*%
X125390000Y-87580000D03*
%TO.P,U1,20,GPIO6*%
%TO.N,Board_9-unconnected-(U1-GPIO6-Pad20)*%
X125390000Y-90120000D03*
%TO.P,U1,21,GPIO8*%
%TO.N,Board_9-unconnected-(U1-GPIO8-Pad21)*%
X125390000Y-92660000D03*
%TO.P,U1,22,GPIO10*%
%TO.N,Board_9-unconnected-(U1-GPIO10-Pad22)*%
X125390000Y-95200000D03*
%TO.P,U1,23,GPIO13*%
%TO.N,Board_9-unconnected-(U1-GPIO13-Pad23)*%
X125390000Y-97740000D03*
%TO.P,U1,24,GPIO14*%
%TO.N,Board_9-unconnected-(U1-GPIO14-Pad24)*%
X125390000Y-100280000D03*
%TO.P,U1,25,XTAL_32K_P*%
%TO.N,Board_9-unconnected-(U1-XTAL_32K_P-Pad25)*%
X143170000Y-100280000D03*
%TO.P,U1,26,GND*%
%TO.N,Board_9-Net-(Q2-E)*%
X143170000Y-97740000D03*
%TO.P,U1,27,DAC_1*%
%TO.N,Board_9-unconnected-(U1-DAC_1-Pad27)*%
X143170000Y-95200000D03*
%TO.P,U1,28,GPIO21*%
%TO.N,Board_9-unconnected-(U1-GPIO21-Pad28)*%
X143170000Y-92660000D03*
%TO.P,U1,29,GPIO34*%
%TO.N,Board_9-unconnected-(U1-GPIO34-Pad29)*%
X143170000Y-90120000D03*
%TO.P,U1,30,GPIO36*%
%TO.N,Board_9-unconnected-(U1-GPIO36-Pad30)*%
X143170000Y-87580000D03*
%TO.P,U1,31,GPIO38*%
%TO.N,Board_9-unconnected-(U1-GPIO38-Pad31)*%
X143170000Y-85040000D03*
%TO.P,U1,32,GPIO40*%
%TO.N,Board_9-unconnected-(U1-GPIO40-Pad32)*%
X143170000Y-82500000D03*
%TD*%
D12*
%TO.P,U1,1,EN*%
%TO.N,Board_5-unconnected-(U1-EN-Pad1)*%
X122850000Y-52070000D03*
D13*
%TO.P,U1,2,GPIO3*%
%TO.N,Board_5-unconnected-(U1-GPIO3-Pad2)*%
X122850000Y-54610000D03*
%TO.P,U1,3,GPIO5*%
%TO.N,Board_5-unconnected-(U1-GPIO5-Pad3)*%
X122850000Y-57150000D03*
%TO.P,U1,4,GPIO7*%
%TO.N,Board_5-unconnected-(U1-GPIO7-Pad4)*%
X122850000Y-59690000D03*
%TO.P,U1,5,GPIO9*%
%TO.N,Board_5-unconnected-(U1-GPIO9-Pad5)*%
X122850000Y-62230000D03*
%TO.P,U1,6,GPIO11*%
%TO.N,Board_5-unconnected-(U1-GPIO11-Pad6)*%
X122850000Y-64770000D03*
%TO.P,U1,7,GPIO12*%
%TO.N,Board_5-unconnected-(U1-GPIO12-Pad7)*%
X122850000Y-67310000D03*
%TO.P,U1,8,3V3*%
%TO.N,Board_5-Net-(Q1-E)*%
X122850000Y-69850000D03*
%TO.P,U1,9,VBUS*%
%TO.N,Board_5-unconnected-(U1-VBUS-Pad9)*%
X145710000Y-69850000D03*
%TO.P,U1,10,GND*%
%TO.N,Board_5-Net-(Q2-E)*%
X145710000Y-67310000D03*
%TO.P,U1,11,XTAL_32K_N*%
%TO.N,Board_5-unconnected-(U1-XTAL_32K_N-Pad11)*%
X145710000Y-64770000D03*
%TO.P,U1,12,DAC_2*%
%TO.N,Board_5-unconnected-(U1-DAC_2-Pad12)*%
X145710000Y-62230000D03*
%TO.P,U1,13,GPIO33*%
%TO.N,Board_5-Net-(U1-GPIO33)*%
X145710000Y-59690000D03*
%TO.P,U1,14,GPIO35*%
%TO.N,Board_5-Net-(U1-GPIO35)*%
X145710000Y-57150000D03*
%TO.P,U1,15,GPIO37*%
%TO.N,Board_5-Net-(U1-GPIO37)*%
X145710000Y-54610000D03*
%TO.P,U1,16,GPIO39*%
%TO.N,Board_5-Net-(U1-GPIO39)*%
X145710000Y-52070000D03*
%TO.P,U1,17,GPIO1*%
%TO.N,Board_5-unconnected-(U1-GPIO1-Pad17)*%
X125390000Y-52070000D03*
%TO.P,U1,18,GPIO2*%
%TO.N,Board_5-unconnected-(U1-GPIO2-Pad18)*%
X125390000Y-54610000D03*
%TO.P,U1,19,GPIO4*%
%TO.N,Board_5-unconnected-(U1-GPIO4-Pad19)*%
X125390000Y-57150000D03*
%TO.P,U1,20,GPIO6*%
%TO.N,Board_5-unconnected-(U1-GPIO6-Pad20)*%
X125390000Y-59690000D03*
%TO.P,U1,21,GPIO8*%
%TO.N,Board_5-unconnected-(U1-GPIO8-Pad21)*%
X125390000Y-62230000D03*
%TO.P,U1,22,GPIO10*%
%TO.N,Board_5-unconnected-(U1-GPIO10-Pad22)*%
X125390000Y-64770000D03*
%TO.P,U1,23,GPIO13*%
%TO.N,Board_5-unconnected-(U1-GPIO13-Pad23)*%
X125390000Y-67310000D03*
%TO.P,U1,24,GPIO14*%
%TO.N,Board_5-unconnected-(U1-GPIO14-Pad24)*%
X125390000Y-69850000D03*
%TO.P,U1,25,XTAL_32K_P*%
%TO.N,Board_5-unconnected-(U1-XTAL_32K_P-Pad25)*%
X143170000Y-69850000D03*
%TO.P,U1,26,GND*%
%TO.N,Board_5-Net-(Q2-E)*%
X143170000Y-67310000D03*
%TO.P,U1,27,DAC_1*%
%TO.N,Board_5-unconnected-(U1-DAC_1-Pad27)*%
X143170000Y-64770000D03*
%TO.P,U1,28,GPIO21*%
%TO.N,Board_5-unconnected-(U1-GPIO21-Pad28)*%
X143170000Y-62230000D03*
%TO.P,U1,29,GPIO34*%
%TO.N,Board_5-unconnected-(U1-GPIO34-Pad29)*%
X143170000Y-59690000D03*
%TO.P,U1,30,GPIO36*%
%TO.N,Board_5-unconnected-(U1-GPIO36-Pad30)*%
X143170000Y-57150000D03*
%TO.P,U1,31,GPIO38*%
%TO.N,Board_5-unconnected-(U1-GPIO38-Pad31)*%
X143170000Y-54610000D03*
%TO.P,U1,32,GPIO40*%
%TO.N,Board_5-unconnected-(U1-GPIO40-Pad32)*%
X143170000Y-52070000D03*
%TD*%
D10*
%TO.P,Q1,1,B*%
%TO.N,Board_1-Net-(Q1-B)*%
X131762500Y-41640000D03*
%TO.P,Q1,2,E*%
%TO.N,Board_1-Net-(Q1-E)*%
X131762500Y-43540000D03*
%TO.P,Q1,3,C*%
%TO.N,Board_1-Net-(J1-Pin_2)*%
X133637500Y-42590000D03*
%TD*%
%TO.P,Q1,1,B*%
%TO.N,Board_8-Net-(Q1-B)*%
X103242500Y-102500000D03*
%TO.P,Q1,2,E*%
%TO.N,Board_8-Net-(Q1-E)*%
X103242500Y-104400000D03*
%TO.P,Q1,3,C*%
%TO.N,Board_8-Net-(J1-Pin_2)*%
X105117500Y-103450000D03*
%TD*%
D14*
%TO.P,R4,1*%
%TO.N,Board_11-Net-(Q4-B)*%
X195740000Y-89550000D03*
%TO.P,R4,2*%
%TO.N,Board_11-Net-(U1-GPIO39)*%
X195740000Y-87550000D03*
%TD*%
D10*
%TO.P,Q1,1,B*%
%TO.N,Board_7-Net-(Q1-B)*%
X188802500Y-72070000D03*
%TO.P,Q1,2,E*%
%TO.N,Board_7-Net-(Q1-E)*%
X188802500Y-73970000D03*
%TO.P,Q1,3,C*%
%TO.N,Board_7-Net-(J1-Pin_2)*%
X190677500Y-73020000D03*
%TD*%
D14*
%TO.P,R2,1*%
%TO.N,Board_11-Net-(Q3-B)*%
X195740000Y-99550000D03*
%TO.P,R2,2*%
%TO.N,Board_11-Net-(U1-GPIO35)*%
X195740000Y-97550000D03*
%TD*%
%TO.P,R1,1*%
%TO.N,Board_3-Net-(Q1-B)*%
X195740000Y-43690000D03*
%TO.P,R1,2*%
%TO.N,Board_3-Net-(U1-GPIO33)*%
X195740000Y-41690000D03*
%TD*%
%TO.P,R1,1*%
%TO.N,Board_13-Net-(Q1-B)*%
X138700000Y-134980000D03*
%TO.P,R1,2*%
%TO.N,Board_13-Net-(U1-GPIO33)*%
X138700000Y-132980000D03*
%TD*%
D10*
%TO.P,Q1,1,B*%
%TO.N,Board_9-Net-(Q1-B)*%
X131762500Y-102500000D03*
%TO.P,Q1,2,E*%
%TO.N,Board_9-Net-(Q1-E)*%
X131762500Y-104400000D03*
%TO.P,Q1,3,C*%
%TO.N,Board_9-Net-(J1-Pin_2)*%
X133637500Y-103450000D03*
%TD*%
%TO.P,Q4,1,B*%
%TO.N,Board_6-Net-(Q4-B)*%
X160410000Y-57070000D03*
%TO.P,Q4,2,E*%
%TO.N,Board_6-Net-(Q2-E)*%
X160410000Y-58970000D03*
%TO.P,Q4,3,C*%
%TO.N,Board_6-Net-(J1-Pin_1)*%
X162285000Y-58020000D03*
%TD*%
D12*
%TO.P,U1,1,EN*%
%TO.N,Board_13-unconnected-(U1-EN-Pad1)*%
X122850000Y-112930000D03*
D13*
%TO.P,U1,2,GPIO3*%
%TO.N,Board_13-unconnected-(U1-GPIO3-Pad2)*%
X122850000Y-115470000D03*
%TO.P,U1,3,GPIO5*%
%TO.N,Board_13-unconnected-(U1-GPIO5-Pad3)*%
X122850000Y-118010000D03*
%TO.P,U1,4,GPIO7*%
%TO.N,Board_13-unconnected-(U1-GPIO7-Pad4)*%
X122850000Y-120550000D03*
%TO.P,U1,5,GPIO9*%
%TO.N,Board_13-unconnected-(U1-GPIO9-Pad5)*%
X122850000Y-123090000D03*
%TO.P,U1,6,GPIO11*%
%TO.N,Board_13-unconnected-(U1-GPIO11-Pad6)*%
X122850000Y-125630000D03*
%TO.P,U1,7,GPIO12*%
%TO.N,Board_13-unconnected-(U1-GPIO12-Pad7)*%
X122850000Y-128170000D03*
%TO.P,U1,8,3V3*%
%TO.N,Board_13-Net-(Q1-E)*%
X122850000Y-130710000D03*
%TO.P,U1,9,VBUS*%
%TO.N,Board_13-unconnected-(U1-VBUS-Pad9)*%
X145710000Y-130710000D03*
%TO.P,U1,10,GND*%
%TO.N,Board_13-Net-(Q2-E)*%
X145710000Y-128170000D03*
%TO.P,U1,11,XTAL_32K_N*%
%TO.N,Board_13-unconnected-(U1-XTAL_32K_N-Pad11)*%
X145710000Y-125630000D03*
%TO.P,U1,12,DAC_2*%
%TO.N,Board_13-unconnected-(U1-DAC_2-Pad12)*%
X145710000Y-123090000D03*
%TO.P,U1,13,GPIO33*%
%TO.N,Board_13-Net-(U1-GPIO33)*%
X145710000Y-120550000D03*
%TO.P,U1,14,GPIO35*%
%TO.N,Board_13-Net-(U1-GPIO35)*%
X145710000Y-118010000D03*
%TO.P,U1,15,GPIO37*%
%TO.N,Board_13-Net-(U1-GPIO37)*%
X145710000Y-115470000D03*
%TO.P,U1,16,GPIO39*%
%TO.N,Board_13-Net-(U1-GPIO39)*%
X145710000Y-112930000D03*
%TO.P,U1,17,GPIO1*%
%TO.N,Board_13-unconnected-(U1-GPIO1-Pad17)*%
X125390000Y-112930000D03*
%TO.P,U1,18,GPIO2*%
%TO.N,Board_13-unconnected-(U1-GPIO2-Pad18)*%
X125390000Y-115470000D03*
%TO.P,U1,19,GPIO4*%
%TO.N,Board_13-unconnected-(U1-GPIO4-Pad19)*%
X125390000Y-118010000D03*
%TO.P,U1,20,GPIO6*%
%TO.N,Board_13-unconnected-(U1-GPIO6-Pad20)*%
X125390000Y-120550000D03*
%TO.P,U1,21,GPIO8*%
%TO.N,Board_13-unconnected-(U1-GPIO8-Pad21)*%
X125390000Y-123090000D03*
%TO.P,U1,22,GPIO10*%
%TO.N,Board_13-unconnected-(U1-GPIO10-Pad22)*%
X125390000Y-125630000D03*
%TO.P,U1,23,GPIO13*%
%TO.N,Board_13-unconnected-(U1-GPIO13-Pad23)*%
X125390000Y-128170000D03*
%TO.P,U1,24,GPIO14*%
%TO.N,Board_13-unconnected-(U1-GPIO14-Pad24)*%
X125390000Y-130710000D03*
%TO.P,U1,25,XTAL_32K_P*%
%TO.N,Board_13-unconnected-(U1-XTAL_32K_P-Pad25)*%
X143170000Y-130710000D03*
%TO.P,U1,26,GND*%
%TO.N,Board_13-Net-(Q2-E)*%
X143170000Y-128170000D03*
%TO.P,U1,27,DAC_1*%
%TO.N,Board_13-unconnected-(U1-DAC_1-Pad27)*%
X143170000Y-125630000D03*
%TO.P,U1,28,GPIO21*%
%TO.N,Board_13-unconnected-(U1-GPIO21-Pad28)*%
X143170000Y-123090000D03*
%TO.P,U1,29,GPIO34*%
%TO.N,Board_13-unconnected-(U1-GPIO34-Pad29)*%
X143170000Y-120550000D03*
%TO.P,U1,30,GPIO36*%
%TO.N,Board_13-unconnected-(U1-GPIO36-Pad30)*%
X143170000Y-118010000D03*
%TO.P,U1,31,GPIO38*%
%TO.N,Board_13-unconnected-(U1-GPIO38-Pad31)*%
X143170000Y-115470000D03*
%TO.P,U1,32,GPIO40*%
%TO.N,Board_13-unconnected-(U1-GPIO40-Pad32)*%
X143170000Y-112930000D03*
%TD*%
D14*
%TO.P,R1,1*%
%TO.N,Board_7-Net-(Q1-B)*%
X195740000Y-74120000D03*
%TO.P,R1,2*%
%TO.N,Board_7-Net-(U1-GPIO33)*%
X195740000Y-72120000D03*
%TD*%
%TO.P,R2,1*%
%TO.N,Board_0-Net-(Q3-B)*%
X110180000Y-38690000D03*
%TO.P,R2,2*%
%TO.N,Board_0-Net-(U1-GPIO35)*%
X110180000Y-36690000D03*
%TD*%
D10*
%TO.P,Q1,1,B*%
%TO.N,Board_11-Net-(Q1-B)*%
X188802500Y-102500000D03*
%TO.P,Q1,2,E*%
%TO.N,Board_11-Net-(Q1-E)*%
X188802500Y-104400000D03*
%TO.P,Q1,3,C*%
%TO.N,Board_11-Net-(J1-Pin_2)*%
X190677500Y-103450000D03*
%TD*%
D14*
%TO.P,R1,1*%
%TO.N,Board_6-Net-(Q1-B)*%
X167220000Y-74120000D03*
%TO.P,R1,2*%
%TO.N,Board_6-Net-(U1-GPIO33)*%
X167220000Y-72120000D03*
%TD*%
%TO.P,R2,1*%
%TO.N,Board_1-Net-(Q3-B)*%
X138700000Y-38690000D03*
%TO.P,R2,2*%
%TO.N,Board_1-Net-(U1-GPIO35)*%
X138700000Y-36690000D03*
%TD*%
D10*
%TO.P,Q3,1,B*%
%TO.N,Board_9-Net-(Q3-B)*%
X131890000Y-97500000D03*
%TO.P,Q3,2,E*%
%TO.N,Board_9-Net-(Q1-E)*%
X131890000Y-99400000D03*
%TO.P,Q3,3,C*%
%TO.N,Board_9-Net-(J1-Pin_1)*%
X133765000Y-98450000D03*
%TD*%
D11*
%TO.P,J1,1,Pin_1*%
%TO.N,Board_14-Net-(J1-Pin_1)*%
X164180000Y-113390000D03*
%TO.P,J1,2,Pin_2*%
%TO.N,Board_14-Net-(J1-Pin_2)*%
X161640000Y-113390000D03*
%TD*%
D14*
%TO.P,R3,1*%
%TO.N,Board_15-Net-(Q2-B)*%
X195740000Y-124980000D03*
%TO.P,R3,2*%
%TO.N,Board_15-Net-(U1-GPIO37)*%
X195740000Y-122980000D03*
%TD*%
%TO.P,R3,1*%
%TO.N,Board_7-Net-(Q2-B)*%
X195740000Y-64120000D03*
%TO.P,R3,2*%
%TO.N,Board_7-Net-(U1-GPIO37)*%
X195740000Y-62120000D03*
%TD*%
%TO.P,R4,1*%
%TO.N,Board_2-Net-(Q4-B)*%
X167220000Y-28690000D03*
%TO.P,R4,2*%
%TO.N,Board_2-Net-(U1-GPIO39)*%
X167220000Y-26690000D03*
%TD*%
D10*
%TO.P,Q2,1,B*%
%TO.N,Board_6-Net-(Q2-B)*%
X160410000Y-62070000D03*
%TO.P,Q2,2,E*%
%TO.N,Board_6-Net-(Q2-E)*%
X160410000Y-63970000D03*
%TO.P,Q2,3,C*%
%TO.N,Board_6-Net-(J1-Pin_2)*%
X162285000Y-63020000D03*
%TD*%
D11*
%TO.P,J1,1,Pin_1*%
%TO.N,Board_11-Net-(J1-Pin_1)*%
X192700000Y-82960000D03*
%TO.P,J1,2,Pin_2*%
%TO.N,Board_11-Net-(J1-Pin_2)*%
X190160000Y-82960000D03*
%TD*%
D14*
%TO.P,R2,1*%
%TO.N,Board_14-Net-(Q3-B)*%
X167220000Y-129980000D03*
%TO.P,R2,2*%
%TO.N,Board_14-Net-(U1-GPIO35)*%
X167220000Y-127980000D03*
%TD*%
%TO.P,R3,1*%
%TO.N,Board_4-Net-(Q2-B)*%
X110180000Y-64120000D03*
%TO.P,R3,2*%
%TO.N,Board_4-Net-(U1-GPIO37)*%
X110180000Y-62120000D03*
%TD*%
D10*
%TO.P,Q1,1,B*%
%TO.N,Board_12-Net-(Q1-B)*%
X103242500Y-132930000D03*
%TO.P,Q1,2,E*%
%TO.N,Board_12-Net-(Q1-E)*%
X103242500Y-134830000D03*
%TO.P,Q1,3,C*%
%TO.N,Board_12-Net-(J1-Pin_2)*%
X105117500Y-133880000D03*
%TD*%
%TO.P,Q3,1,B*%
%TO.N,Board_12-Net-(Q3-B)*%
X103370000Y-127930000D03*
%TO.P,Q3,2,E*%
%TO.N,Board_12-Net-(Q1-E)*%
X103370000Y-129830000D03*
%TO.P,Q3,3,C*%
%TO.N,Board_12-Net-(J1-Pin_1)*%
X105245000Y-128880000D03*
%TD*%
%TO.P,Q4,1,B*%
%TO.N,Board_8-Net-(Q4-B)*%
X103370000Y-87500000D03*
%TO.P,Q4,2,E*%
%TO.N,Board_8-Net-(Q2-E)*%
X103370000Y-89400000D03*
%TO.P,Q4,3,C*%
%TO.N,Board_8-Net-(J1-Pin_1)*%
X105245000Y-88450000D03*
%TD*%
D14*
%TO.P,R4,1*%
%TO.N,Board_9-Net-(Q4-B)*%
X138700000Y-89550000D03*
%TO.P,R4,2*%
%TO.N,Board_9-Net-(U1-GPIO39)*%
X138700000Y-87550000D03*
%TD*%
%TO.P,R4,1*%
%TO.N,Board_15-Net-(Q4-B)*%
X195740000Y-119980000D03*
%TO.P,R4,2*%
%TO.N,Board_15-Net-(U1-GPIO39)*%
X195740000Y-117980000D03*
%TD*%
D10*
%TO.P,Q4,1,B*%
%TO.N,Board_15-Net-(Q4-B)*%
X188930000Y-117930000D03*
%TO.P,Q4,2,E*%
%TO.N,Board_15-Net-(Q2-E)*%
X188930000Y-119830000D03*
%TO.P,Q4,3,C*%
%TO.N,Board_15-Net-(J1-Pin_1)*%
X190805000Y-118880000D03*
%TD*%
%TO.P,Q1,1,B*%
%TO.N,Board_5-Net-(Q1-B)*%
X131762500Y-72070000D03*
%TO.P,Q1,2,E*%
%TO.N,Board_5-Net-(Q1-E)*%
X131762500Y-73970000D03*
%TO.P,Q1,3,C*%
%TO.N,Board_5-Net-(J1-Pin_2)*%
X133637500Y-73020000D03*
%TD*%
D14*
%TO.P,R3,1*%
%TO.N,Board_11-Net-(Q2-B)*%
X195740000Y-94550000D03*
%TO.P,R3,2*%
%TO.N,Board_11-Net-(U1-GPIO37)*%
X195740000Y-92550000D03*
%TD*%
D10*
%TO.P,Q4,1,B*%
%TO.N,Board_2-Net-(Q4-B)*%
X160410000Y-26640000D03*
%TO.P,Q4,2,E*%
%TO.N,Board_2-Net-(Q2-E)*%
X160410000Y-28540000D03*
%TO.P,Q4,3,C*%
%TO.N,Board_2-Net-(J1-Pin_1)*%
X162285000Y-27590000D03*
%TD*%
%TO.P,Q3,1,B*%
%TO.N,Board_3-Net-(Q3-B)*%
X188930000Y-36640000D03*
%TO.P,Q3,2,E*%
%TO.N,Board_3-Net-(Q1-E)*%
X188930000Y-38540000D03*
%TO.P,Q3,3,C*%
%TO.N,Board_3-Net-(J1-Pin_1)*%
X190805000Y-37590000D03*
%TD*%
D14*
%TO.P,R3,1*%
%TO.N,Board_12-Net-(Q2-B)*%
X110180000Y-124980000D03*
%TO.P,R3,2*%
%TO.N,Board_12-Net-(U1-GPIO37)*%
X110180000Y-122980000D03*
%TD*%
D10*
%TO.P,Q3,1,B*%
%TO.N,Board_14-Net-(Q3-B)*%
X160410000Y-127930000D03*
%TO.P,Q3,2,E*%
%TO.N,Board_14-Net-(Q1-E)*%
X160410000Y-129830000D03*
%TO.P,Q3,3,C*%
%TO.N,Board_14-Net-(J1-Pin_1)*%
X162285000Y-128880000D03*
%TD*%
D12*
%TO.P,U1,1,EN*%
%TO.N,Board_4-unconnected-(U1-EN-Pad1)*%
X94330000Y-52070000D03*
D13*
%TO.P,U1,2,GPIO3*%
%TO.N,Board_4-unconnected-(U1-GPIO3-Pad2)*%
X94330000Y-54610000D03*
%TO.P,U1,3,GPIO5*%
%TO.N,Board_4-unconnected-(U1-GPIO5-Pad3)*%
X94330000Y-57150000D03*
%TO.P,U1,4,GPIO7*%
%TO.N,Board_4-unconnected-(U1-GPIO7-Pad4)*%
X94330000Y-59690000D03*
%TO.P,U1,5,GPIO9*%
%TO.N,Board_4-unconnected-(U1-GPIO9-Pad5)*%
X94330000Y-62230000D03*
%TO.P,U1,6,GPIO11*%
%TO.N,Board_4-unconnected-(U1-GPIO11-Pad6)*%
X94330000Y-64770000D03*
%TO.P,U1,7,GPIO12*%
%TO.N,Board_4-unconnected-(U1-GPIO12-Pad7)*%
X94330000Y-67310000D03*
%TO.P,U1,8,3V3*%
%TO.N,Board_4-Net-(Q1-E)*%
X94330000Y-69850000D03*
%TO.P,U1,9,VBUS*%
%TO.N,Board_4-unconnected-(U1-VBUS-Pad9)*%
X117190000Y-69850000D03*
%TO.P,U1,10,GND*%
%TO.N,Board_4-Net-(Q2-E)*%
X117190000Y-67310000D03*
%TO.P,U1,11,XTAL_32K_N*%
%TO.N,Board_4-unconnected-(U1-XTAL_32K_N-Pad11)*%
X117190000Y-64770000D03*
%TO.P,U1,12,DAC_2*%
%TO.N,Board_4-unconnected-(U1-DAC_2-Pad12)*%
X117190000Y-62230000D03*
%TO.P,U1,13,GPIO33*%
%TO.N,Board_4-Net-(U1-GPIO33)*%
X117190000Y-59690000D03*
%TO.P,U1,14,GPIO35*%
%TO.N,Board_4-Net-(U1-GPIO35)*%
X117190000Y-57150000D03*
%TO.P,U1,15,GPIO37*%
%TO.N,Board_4-Net-(U1-GPIO37)*%
X117190000Y-54610000D03*
%TO.P,U1,16,GPIO39*%
%TO.N,Board_4-Net-(U1-GPIO39)*%
X117190000Y-52070000D03*
%TO.P,U1,17,GPIO1*%
%TO.N,Board_4-unconnected-(U1-GPIO1-Pad17)*%
X96870000Y-52070000D03*
%TO.P,U1,18,GPIO2*%
%TO.N,Board_4-unconnected-(U1-GPIO2-Pad18)*%
X96870000Y-54610000D03*
%TO.P,U1,19,GPIO4*%
%TO.N,Board_4-unconnected-(U1-GPIO4-Pad19)*%
X96870000Y-57150000D03*
%TO.P,U1,20,GPIO6*%
%TO.N,Board_4-unconnected-(U1-GPIO6-Pad20)*%
X96870000Y-59690000D03*
%TO.P,U1,21,GPIO8*%
%TO.N,Board_4-unconnected-(U1-GPIO8-Pad21)*%
X96870000Y-62230000D03*
%TO.P,U1,22,GPIO10*%
%TO.N,Board_4-unconnected-(U1-GPIO10-Pad22)*%
X96870000Y-64770000D03*
%TO.P,U1,23,GPIO13*%
%TO.N,Board_4-unconnected-(U1-GPIO13-Pad23)*%
X96870000Y-67310000D03*
%TO.P,U1,24,GPIO14*%
%TO.N,Board_4-unconnected-(U1-GPIO14-Pad24)*%
X96870000Y-69850000D03*
%TO.P,U1,25,XTAL_32K_P*%
%TO.N,Board_4-unconnected-(U1-XTAL_32K_P-Pad25)*%
X114650000Y-69850000D03*
%TO.P,U1,26,GND*%
%TO.N,Board_4-Net-(Q2-E)*%
X114650000Y-67310000D03*
%TO.P,U1,27,DAC_1*%
%TO.N,Board_4-unconnected-(U1-DAC_1-Pad27)*%
X114650000Y-64770000D03*
%TO.P,U1,28,GPIO21*%
%TO.N,Board_4-unconnected-(U1-GPIO21-Pad28)*%
X114650000Y-62230000D03*
%TO.P,U1,29,GPIO34*%
%TO.N,Board_4-unconnected-(U1-GPIO34-Pad29)*%
X114650000Y-59690000D03*
%TO.P,U1,30,GPIO36*%
%TO.N,Board_4-unconnected-(U1-GPIO36-Pad30)*%
X114650000Y-57150000D03*
%TO.P,U1,31,GPIO38*%
%TO.N,Board_4-unconnected-(U1-GPIO38-Pad31)*%
X114650000Y-54610000D03*
%TO.P,U1,32,GPIO40*%
%TO.N,Board_4-unconnected-(U1-GPIO40-Pad32)*%
X114650000Y-52070000D03*
%TD*%
D10*
%TO.P,Q1,1,B*%
%TO.N,Board_6-Net-(Q1-B)*%
X160282500Y-72070000D03*
%TO.P,Q1,2,E*%
%TO.N,Board_6-Net-(Q1-E)*%
X160282500Y-73970000D03*
%TO.P,Q1,3,C*%
%TO.N,Board_6-Net-(J1-Pin_2)*%
X162157500Y-73020000D03*
%TD*%
D11*
%TO.P,J1,1,Pin_1*%
%TO.N,Board_0-Net-(J1-Pin_1)*%
X107140000Y-22100000D03*
%TO.P,J1,2,Pin_2*%
%TO.N,Board_0-Net-(J1-Pin_2)*%
X104600000Y-22100000D03*
%TD*%
D10*
%TO.P,Q2,1,B*%
%TO.N,Board_7-Net-(Q2-B)*%
X188930000Y-62070000D03*
%TO.P,Q2,2,E*%
%TO.N,Board_7-Net-(Q2-E)*%
X188930000Y-63970000D03*
%TO.P,Q2,3,C*%
%TO.N,Board_7-Net-(J1-Pin_2)*%
X190805000Y-63020000D03*
%TD*%
D14*
%TO.P,R2,1*%
%TO.N,Board_6-Net-(Q3-B)*%
X167220000Y-69120000D03*
%TO.P,R2,2*%
%TO.N,Board_6-Net-(U1-GPIO35)*%
X167220000Y-67120000D03*
%TD*%
D10*
%TO.P,Q2,1,B*%
%TO.N,Board_13-Net-(Q2-B)*%
X131890000Y-122930000D03*
%TO.P,Q2,2,E*%
%TO.N,Board_13-Net-(Q2-E)*%
X131890000Y-124830000D03*
%TO.P,Q2,3,C*%
%TO.N,Board_13-Net-(J1-Pin_2)*%
X133765000Y-123880000D03*
%TD*%
%TO.P,Q4,1,B*%
%TO.N,Board_0-Net-(Q4-B)*%
X103370000Y-26640000D03*
%TO.P,Q4,2,E*%
%TO.N,Board_0-Net-(Q2-E)*%
X103370000Y-28540000D03*
%TO.P,Q4,3,C*%
%TO.N,Board_0-Net-(J1-Pin_1)*%
X105245000Y-27590000D03*
%TD*%
D14*
%TO.P,R2,1*%
%TO.N,Board_5-Net-(Q3-B)*%
X138700000Y-69120000D03*
%TO.P,R2,2*%
%TO.N,Board_5-Net-(U1-GPIO35)*%
X138700000Y-67120000D03*
%TD*%
D12*
%TO.P,U1,1,EN*%
%TO.N,Board_3-unconnected-(U1-EN-Pad1)*%
X179890000Y-21640000D03*
D13*
%TO.P,U1,2,GPIO3*%
%TO.N,Board_3-unconnected-(U1-GPIO3-Pad2)*%
X179890000Y-24180000D03*
%TO.P,U1,3,GPIO5*%
%TO.N,Board_3-unconnected-(U1-GPIO5-Pad3)*%
X179890000Y-26720000D03*
%TO.P,U1,4,GPIO7*%
%TO.N,Board_3-unconnected-(U1-GPIO7-Pad4)*%
X179890000Y-29260000D03*
%TO.P,U1,5,GPIO9*%
%TO.N,Board_3-unconnected-(U1-GPIO9-Pad5)*%
X179890000Y-31800000D03*
%TO.P,U1,6,GPIO11*%
%TO.N,Board_3-unconnected-(U1-GPIO11-Pad6)*%
X179890000Y-34340000D03*
%TO.P,U1,7,GPIO12*%
%TO.N,Board_3-unconnected-(U1-GPIO12-Pad7)*%
X179890000Y-36880000D03*
%TO.P,U1,8,3V3*%
%TO.N,Board_3-Net-(Q1-E)*%
X179890000Y-39420000D03*
%TO.P,U1,9,VBUS*%
%TO.N,Board_3-unconnected-(U1-VBUS-Pad9)*%
X202750000Y-39420000D03*
%TO.P,U1,10,GND*%
%TO.N,Board_3-Net-(Q2-E)*%
X202750000Y-36880000D03*
%TO.P,U1,11,XTAL_32K_N*%
%TO.N,Board_3-unconnected-(U1-XTAL_32K_N-Pad11)*%
X202750000Y-34340000D03*
%TO.P,U1,12,DAC_2*%
%TO.N,Board_3-unconnected-(U1-DAC_2-Pad12)*%
X202750000Y-31800000D03*
%TO.P,U1,13,GPIO33*%
%TO.N,Board_3-Net-(U1-GPIO33)*%
X202750000Y-29260000D03*
%TO.P,U1,14,GPIO35*%
%TO.N,Board_3-Net-(U1-GPIO35)*%
X202750000Y-26720000D03*
%TO.P,U1,15,GPIO37*%
%TO.N,Board_3-Net-(U1-GPIO37)*%
X202750000Y-24180000D03*
%TO.P,U1,16,GPIO39*%
%TO.N,Board_3-Net-(U1-GPIO39)*%
X202750000Y-21640000D03*
%TO.P,U1,17,GPIO1*%
%TO.N,Board_3-unconnected-(U1-GPIO1-Pad17)*%
X182430000Y-21640000D03*
%TO.P,U1,18,GPIO2*%
%TO.N,Board_3-unconnected-(U1-GPIO2-Pad18)*%
X182430000Y-24180000D03*
%TO.P,U1,19,GPIO4*%
%TO.N,Board_3-unconnected-(U1-GPIO4-Pad19)*%
X182430000Y-26720000D03*
%TO.P,U1,20,GPIO6*%
%TO.N,Board_3-unconnected-(U1-GPIO6-Pad20)*%
X182430000Y-29260000D03*
%TO.P,U1,21,GPIO8*%
%TO.N,Board_3-unconnected-(U1-GPIO8-Pad21)*%
X182430000Y-31800000D03*
%TO.P,U1,22,GPIO10*%
%TO.N,Board_3-unconnected-(U1-GPIO10-Pad22)*%
X182430000Y-34340000D03*
%TO.P,U1,23,GPIO13*%
%TO.N,Board_3-unconnected-(U1-GPIO13-Pad23)*%
X182430000Y-36880000D03*
%TO.P,U1,24,GPIO14*%
%TO.N,Board_3-unconnected-(U1-GPIO14-Pad24)*%
X182430000Y-39420000D03*
%TO.P,U1,25,XTAL_32K_P*%
%TO.N,Board_3-unconnected-(U1-XTAL_32K_P-Pad25)*%
X200210000Y-39420000D03*
%TO.P,U1,26,GND*%
%TO.N,Board_3-Net-(Q2-E)*%
X200210000Y-36880000D03*
%TO.P,U1,27,DAC_1*%
%TO.N,Board_3-unconnected-(U1-DAC_1-Pad27)*%
X200210000Y-34340000D03*
%TO.P,U1,28,GPIO21*%
%TO.N,Board_3-unconnected-(U1-GPIO21-Pad28)*%
X200210000Y-31800000D03*
%TO.P,U1,29,GPIO34*%
%TO.N,Board_3-unconnected-(U1-GPIO34-Pad29)*%
X200210000Y-29260000D03*
%TO.P,U1,30,GPIO36*%
%TO.N,Board_3-unconnected-(U1-GPIO36-Pad30)*%
X200210000Y-26720000D03*
%TO.P,U1,31,GPIO38*%
%TO.N,Board_3-unconnected-(U1-GPIO38-Pad31)*%
X200210000Y-24180000D03*
%TO.P,U1,32,GPIO40*%
%TO.N,Board_3-unconnected-(U1-GPIO40-Pad32)*%
X200210000Y-21640000D03*
%TD*%
D10*
%TO.P,Q4,1,B*%
%TO.N,Board_13-Net-(Q4-B)*%
X131890000Y-117930000D03*
%TO.P,Q4,2,E*%
%TO.N,Board_13-Net-(Q2-E)*%
X131890000Y-119830000D03*
%TO.P,Q4,3,C*%
%TO.N,Board_13-Net-(J1-Pin_1)*%
X133765000Y-118880000D03*
%TD*%
D14*
%TO.P,R3,1*%
%TO.N,Board_13-Net-(Q2-B)*%
X138700000Y-124980000D03*
%TO.P,R3,2*%
%TO.N,Board_13-Net-(U1-GPIO37)*%
X138700000Y-122980000D03*
%TD*%
D12*
%TO.P,U1,1,EN*%
%TO.N,Board_10-unconnected-(U1-EN-Pad1)*%
X151370000Y-82500000D03*
D13*
%TO.P,U1,2,GPIO3*%
%TO.N,Board_10-unconnected-(U1-GPIO3-Pad2)*%
X151370000Y-85040000D03*
%TO.P,U1,3,GPIO5*%
%TO.N,Board_10-unconnected-(U1-GPIO5-Pad3)*%
X151370000Y-87580000D03*
%TO.P,U1,4,GPIO7*%
%TO.N,Board_10-unconnected-(U1-GPIO7-Pad4)*%
X151370000Y-90120000D03*
%TO.P,U1,5,GPIO9*%
%TO.N,Board_10-unconnected-(U1-GPIO9-Pad5)*%
X151370000Y-92660000D03*
%TO.P,U1,6,GPIO11*%
%TO.N,Board_10-unconnected-(U1-GPIO11-Pad6)*%
X151370000Y-95200000D03*
%TO.P,U1,7,GPIO12*%
%TO.N,Board_10-unconnected-(U1-GPIO12-Pad7)*%
X151370000Y-97740000D03*
%TO.P,U1,8,3V3*%
%TO.N,Board_10-Net-(Q1-E)*%
X151370000Y-100280000D03*
%TO.P,U1,9,VBUS*%
%TO.N,Board_10-unconnected-(U1-VBUS-Pad9)*%
X174230000Y-100280000D03*
%TO.P,U1,10,GND*%
%TO.N,Board_10-Net-(Q2-E)*%
X174230000Y-97740000D03*
%TO.P,U1,11,XTAL_32K_N*%
%TO.N,Board_10-unconnected-(U1-XTAL_32K_N-Pad11)*%
X174230000Y-95200000D03*
%TO.P,U1,12,DAC_2*%
%TO.N,Board_10-unconnected-(U1-DAC_2-Pad12)*%
X174230000Y-92660000D03*
%TO.P,U1,13,GPIO33*%
%TO.N,Board_10-Net-(U1-GPIO33)*%
X174230000Y-90120000D03*
%TO.P,U1,14,GPIO35*%
%TO.N,Board_10-Net-(U1-GPIO35)*%
X174230000Y-87580000D03*
%TO.P,U1,15,GPIO37*%
%TO.N,Board_10-Net-(U1-GPIO37)*%
X174230000Y-85040000D03*
%TO.P,U1,16,GPIO39*%
%TO.N,Board_10-Net-(U1-GPIO39)*%
X174230000Y-82500000D03*
%TO.P,U1,17,GPIO1*%
%TO.N,Board_10-unconnected-(U1-GPIO1-Pad17)*%
X153910000Y-82500000D03*
%TO.P,U1,18,GPIO2*%
%TO.N,Board_10-unconnected-(U1-GPIO2-Pad18)*%
X153910000Y-85040000D03*
%TO.P,U1,19,GPIO4*%
%TO.N,Board_10-unconnected-(U1-GPIO4-Pad19)*%
X153910000Y-87580000D03*
%TO.P,U1,20,GPIO6*%
%TO.N,Board_10-unconnected-(U1-GPIO6-Pad20)*%
X153910000Y-90120000D03*
%TO.P,U1,21,GPIO8*%
%TO.N,Board_10-unconnected-(U1-GPIO8-Pad21)*%
X153910000Y-92660000D03*
%TO.P,U1,22,GPIO10*%
%TO.N,Board_10-unconnected-(U1-GPIO10-Pad22)*%
X153910000Y-95200000D03*
%TO.P,U1,23,GPIO13*%
%TO.N,Board_10-unconnected-(U1-GPIO13-Pad23)*%
X153910000Y-97740000D03*
%TO.P,U1,24,GPIO14*%
%TO.N,Board_10-unconnected-(U1-GPIO14-Pad24)*%
X153910000Y-100280000D03*
%TO.P,U1,25,XTAL_32K_P*%
%TO.N,Board_10-unconnected-(U1-XTAL_32K_P-Pad25)*%
X171690000Y-100280000D03*
%TO.P,U1,26,GND*%
%TO.N,Board_10-Net-(Q2-E)*%
X171690000Y-97740000D03*
%TO.P,U1,27,DAC_1*%
%TO.N,Board_10-unconnected-(U1-DAC_1-Pad27)*%
X171690000Y-95200000D03*
%TO.P,U1,28,GPIO21*%
%TO.N,Board_10-unconnected-(U1-GPIO21-Pad28)*%
X171690000Y-92660000D03*
%TO.P,U1,29,GPIO34*%
%TO.N,Board_10-unconnected-(U1-GPIO34-Pad29)*%
X171690000Y-90120000D03*
%TO.P,U1,30,GPIO36*%
%TO.N,Board_10-unconnected-(U1-GPIO36-Pad30)*%
X171690000Y-87580000D03*
%TO.P,U1,31,GPIO38*%
%TO.N,Board_10-unconnected-(U1-GPIO38-Pad31)*%
X171690000Y-85040000D03*
%TO.P,U1,32,GPIO40*%
%TO.N,Board_10-unconnected-(U1-GPIO40-Pad32)*%
X171690000Y-82500000D03*
%TD*%
D14*
%TO.P,R3,1*%
%TO.N,Board_3-Net-(Q2-B)*%
X195740000Y-33690000D03*
%TO.P,R3,2*%
%TO.N,Board_3-Net-(U1-GPIO37)*%
X195740000Y-31690000D03*
%TD*%
D10*
%TO.P,Q3,1,B*%
%TO.N,Board_11-Net-(Q3-B)*%
X188930000Y-97500000D03*
%TO.P,Q3,2,E*%
%TO.N,Board_11-Net-(Q1-E)*%
X188930000Y-99400000D03*
%TO.P,Q3,3,C*%
%TO.N,Board_11-Net-(J1-Pin_1)*%
X190805000Y-98450000D03*
%TD*%
%TO.P,Q2,1,B*%
%TO.N,Board_5-Net-(Q2-B)*%
X131890000Y-62070000D03*
%TO.P,Q2,2,E*%
%TO.N,Board_5-Net-(Q2-E)*%
X131890000Y-63970000D03*
%TO.P,Q2,3,C*%
%TO.N,Board_5-Net-(J1-Pin_2)*%
X133765000Y-63020000D03*
%TD*%
D12*
%TO.P,U1,1,EN*%
%TO.N,Board_2-unconnected-(U1-EN-Pad1)*%
X151370000Y-21640000D03*
D13*
%TO.P,U1,2,GPIO3*%
%TO.N,Board_2-unconnected-(U1-GPIO3-Pad2)*%
X151370000Y-24180000D03*
%TO.P,U1,3,GPIO5*%
%TO.N,Board_2-unconnected-(U1-GPIO5-Pad3)*%
X151370000Y-26720000D03*
%TO.P,U1,4,GPIO7*%
%TO.N,Board_2-unconnected-(U1-GPIO7-Pad4)*%
X151370000Y-29260000D03*
%TO.P,U1,5,GPIO9*%
%TO.N,Board_2-unconnected-(U1-GPIO9-Pad5)*%
X151370000Y-31800000D03*
%TO.P,U1,6,GPIO11*%
%TO.N,Board_2-unconnected-(U1-GPIO11-Pad6)*%
X151370000Y-34340000D03*
%TO.P,U1,7,GPIO12*%
%TO.N,Board_2-unconnected-(U1-GPIO12-Pad7)*%
X151370000Y-36880000D03*
%TO.P,U1,8,3V3*%
%TO.N,Board_2-Net-(Q1-E)*%
X151370000Y-39420000D03*
%TO.P,U1,9,VBUS*%
%TO.N,Board_2-unconnected-(U1-VBUS-Pad9)*%
X174230000Y-39420000D03*
%TO.P,U1,10,GND*%
%TO.N,Board_2-Net-(Q2-E)*%
X174230000Y-36880000D03*
%TO.P,U1,11,XTAL_32K_N*%
%TO.N,Board_2-unconnected-(U1-XTAL_32K_N-Pad11)*%
X174230000Y-34340000D03*
%TO.P,U1,12,DAC_2*%
%TO.N,Board_2-unconnected-(U1-DAC_2-Pad12)*%
X174230000Y-31800000D03*
%TO.P,U1,13,GPIO33*%
%TO.N,Board_2-Net-(U1-GPIO33)*%
X174230000Y-29260000D03*
%TO.P,U1,14,GPIO35*%
%TO.N,Board_2-Net-(U1-GPIO35)*%
X174230000Y-26720000D03*
%TO.P,U1,15,GPIO37*%
%TO.N,Board_2-Net-(U1-GPIO37)*%
X174230000Y-24180000D03*
%TO.P,U1,16,GPIO39*%
%TO.N,Board_2-Net-(U1-GPIO39)*%
X174230000Y-21640000D03*
%TO.P,U1,17,GPIO1*%
%TO.N,Board_2-unconnected-(U1-GPIO1-Pad17)*%
X153910000Y-21640000D03*
%TO.P,U1,18,GPIO2*%
%TO.N,Board_2-unconnected-(U1-GPIO2-Pad18)*%
X153910000Y-24180000D03*
%TO.P,U1,19,GPIO4*%
%TO.N,Board_2-unconnected-(U1-GPIO4-Pad19)*%
X153910000Y-26720000D03*
%TO.P,U1,20,GPIO6*%
%TO.N,Board_2-unconnected-(U1-GPIO6-Pad20)*%
X153910000Y-29260000D03*
%TO.P,U1,21,GPIO8*%
%TO.N,Board_2-unconnected-(U1-GPIO8-Pad21)*%
X153910000Y-31800000D03*
%TO.P,U1,22,GPIO10*%
%TO.N,Board_2-unconnected-(U1-GPIO10-Pad22)*%
X153910000Y-34340000D03*
%TO.P,U1,23,GPIO13*%
%TO.N,Board_2-unconnected-(U1-GPIO13-Pad23)*%
X153910000Y-36880000D03*
%TO.P,U1,24,GPIO14*%
%TO.N,Board_2-unconnected-(U1-GPIO14-Pad24)*%
X153910000Y-39420000D03*
%TO.P,U1,25,XTAL_32K_P*%
%TO.N,Board_2-unconnected-(U1-XTAL_32K_P-Pad25)*%
X171690000Y-39420000D03*
%TO.P,U1,26,GND*%
%TO.N,Board_2-Net-(Q2-E)*%
X171690000Y-36880000D03*
%TO.P,U1,27,DAC_1*%
%TO.N,Board_2-unconnected-(U1-DAC_1-Pad27)*%
X171690000Y-34340000D03*
%TO.P,U1,28,GPIO21*%
%TO.N,Board_2-unconnected-(U1-GPIO21-Pad28)*%
X171690000Y-31800000D03*
%TO.P,U1,29,GPIO34*%
%TO.N,Board_2-unconnected-(U1-GPIO34-Pad29)*%
X171690000Y-29260000D03*
%TO.P,U1,30,GPIO36*%
%TO.N,Board_2-unconnected-(U1-GPIO36-Pad30)*%
X171690000Y-26720000D03*
%TO.P,U1,31,GPIO38*%
%TO.N,Board_2-unconnected-(U1-GPIO38-Pad31)*%
X171690000Y-24180000D03*
%TO.P,U1,32,GPIO40*%
%TO.N,Board_2-unconnected-(U1-GPIO40-Pad32)*%
X171690000Y-21640000D03*
%TD*%
D14*
%TO.P,R1,1*%
%TO.N,Board_12-Net-(Q1-B)*%
X110180000Y-134980000D03*
%TO.P,R1,2*%
%TO.N,Board_12-Net-(U1-GPIO33)*%
X110180000Y-132980000D03*
%TD*%
D10*
%TO.P,Q1,1,B*%
%TO.N,Board_2-Net-(Q1-B)*%
X160282500Y-41640000D03*
%TO.P,Q1,2,E*%
%TO.N,Board_2-Net-(Q1-E)*%
X160282500Y-43540000D03*
%TO.P,Q1,3,C*%
%TO.N,Board_2-Net-(J1-Pin_2)*%
X162157500Y-42590000D03*
%TD*%
%TO.P,Q3,1,B*%
%TO.N,Board_0-Net-(Q3-B)*%
X103370000Y-36640000D03*
%TO.P,Q3,2,E*%
%TO.N,Board_0-Net-(Q1-E)*%
X103370000Y-38540000D03*
%TO.P,Q3,3,C*%
%TO.N,Board_0-Net-(J1-Pin_1)*%
X105245000Y-37590000D03*
%TD*%
D14*
%TO.P,R3,1*%
%TO.N,Board_9-Net-(Q2-B)*%
X138700000Y-94550000D03*
%TO.P,R3,2*%
%TO.N,Board_9-Net-(U1-GPIO37)*%
X138700000Y-92550000D03*
%TD*%
D10*
%TO.P,Q3,1,B*%
%TO.N,Board_7-Net-(Q3-B)*%
X188930000Y-67070000D03*
%TO.P,Q3,2,E*%
%TO.N,Board_7-Net-(Q1-E)*%
X188930000Y-68970000D03*
%TO.P,Q3,3,C*%
%TO.N,Board_7-Net-(J1-Pin_1)*%
X190805000Y-68020000D03*
%TD*%
D12*
%TO.P,U1,1,EN*%
%TO.N,Board_6-unconnected-(U1-EN-Pad1)*%
X151370000Y-52070000D03*
D13*
%TO.P,U1,2,GPIO3*%
%TO.N,Board_6-unconnected-(U1-GPIO3-Pad2)*%
X151370000Y-54610000D03*
%TO.P,U1,3,GPIO5*%
%TO.N,Board_6-unconnected-(U1-GPIO5-Pad3)*%
X151370000Y-57150000D03*
%TO.P,U1,4,GPIO7*%
%TO.N,Board_6-unconnected-(U1-GPIO7-Pad4)*%
X151370000Y-59690000D03*
%TO.P,U1,5,GPIO9*%
%TO.N,Board_6-unconnected-(U1-GPIO9-Pad5)*%
X151370000Y-62230000D03*
%TO.P,U1,6,GPIO11*%
%TO.N,Board_6-unconnected-(U1-GPIO11-Pad6)*%
X151370000Y-64770000D03*
%TO.P,U1,7,GPIO12*%
%TO.N,Board_6-unconnected-(U1-GPIO12-Pad7)*%
X151370000Y-67310000D03*
%TO.P,U1,8,3V3*%
%TO.N,Board_6-Net-(Q1-E)*%
X151370000Y-69850000D03*
%TO.P,U1,9,VBUS*%
%TO.N,Board_6-unconnected-(U1-VBUS-Pad9)*%
X174230000Y-69850000D03*
%TO.P,U1,10,GND*%
%TO.N,Board_6-Net-(Q2-E)*%
X174230000Y-67310000D03*
%TO.P,U1,11,XTAL_32K_N*%
%TO.N,Board_6-unconnected-(U1-XTAL_32K_N-Pad11)*%
X174230000Y-64770000D03*
%TO.P,U1,12,DAC_2*%
%TO.N,Board_6-unconnected-(U1-DAC_2-Pad12)*%
X174230000Y-62230000D03*
%TO.P,U1,13,GPIO33*%
%TO.N,Board_6-Net-(U1-GPIO33)*%
X174230000Y-59690000D03*
%TO.P,U1,14,GPIO35*%
%TO.N,Board_6-Net-(U1-GPIO35)*%
X174230000Y-57150000D03*
%TO.P,U1,15,GPIO37*%
%TO.N,Board_6-Net-(U1-GPIO37)*%
X174230000Y-54610000D03*
%TO.P,U1,16,GPIO39*%
%TO.N,Board_6-Net-(U1-GPIO39)*%
X174230000Y-52070000D03*
%TO.P,U1,17,GPIO1*%
%TO.N,Board_6-unconnected-(U1-GPIO1-Pad17)*%
X153910000Y-52070000D03*
%TO.P,U1,18,GPIO2*%
%TO.N,Board_6-unconnected-(U1-GPIO2-Pad18)*%
X153910000Y-54610000D03*
%TO.P,U1,19,GPIO4*%
%TO.N,Board_6-unconnected-(U1-GPIO4-Pad19)*%
X153910000Y-57150000D03*
%TO.P,U1,20,GPIO6*%
%TO.N,Board_6-unconnected-(U1-GPIO6-Pad20)*%
X153910000Y-59690000D03*
%TO.P,U1,21,GPIO8*%
%TO.N,Board_6-unconnected-(U1-GPIO8-Pad21)*%
X153910000Y-62230000D03*
%TO.P,U1,22,GPIO10*%
%TO.N,Board_6-unconnected-(U1-GPIO10-Pad22)*%
X153910000Y-64770000D03*
%TO.P,U1,23,GPIO13*%
%TO.N,Board_6-unconnected-(U1-GPIO13-Pad23)*%
X153910000Y-67310000D03*
%TO.P,U1,24,GPIO14*%
%TO.N,Board_6-unconnected-(U1-GPIO14-Pad24)*%
X153910000Y-69850000D03*
%TO.P,U1,25,XTAL_32K_P*%
%TO.N,Board_6-unconnected-(U1-XTAL_32K_P-Pad25)*%
X171690000Y-69850000D03*
%TO.P,U1,26,GND*%
%TO.N,Board_6-Net-(Q2-E)*%
X171690000Y-67310000D03*
%TO.P,U1,27,DAC_1*%
%TO.N,Board_6-unconnected-(U1-DAC_1-Pad27)*%
X171690000Y-64770000D03*
%TO.P,U1,28,GPIO21*%
%TO.N,Board_6-unconnected-(U1-GPIO21-Pad28)*%
X171690000Y-62230000D03*
%TO.P,U1,29,GPIO34*%
%TO.N,Board_6-unconnected-(U1-GPIO34-Pad29)*%
X171690000Y-59690000D03*
%TO.P,U1,30,GPIO36*%
%TO.N,Board_6-unconnected-(U1-GPIO36-Pad30)*%
X171690000Y-57150000D03*
%TO.P,U1,31,GPIO38*%
%TO.N,Board_6-unconnected-(U1-GPIO38-Pad31)*%
X171690000Y-54610000D03*
%TO.P,U1,32,GPIO40*%
%TO.N,Board_6-unconnected-(U1-GPIO40-Pad32)*%
X171690000Y-52070000D03*
%TD*%
D10*
%TO.P,Q2,1,B*%
%TO.N,Board_3-Net-(Q2-B)*%
X188930000Y-31640000D03*
%TO.P,Q2,2,E*%
%TO.N,Board_3-Net-(Q2-E)*%
X188930000Y-33540000D03*
%TO.P,Q2,3,C*%
%TO.N,Board_3-Net-(J1-Pin_2)*%
X190805000Y-32590000D03*
%TD*%
D12*
%TO.P,U1,1,EN*%
%TO.N,Board_8-unconnected-(U1-EN-Pad1)*%
X94330000Y-82500000D03*
D13*
%TO.P,U1,2,GPIO3*%
%TO.N,Board_8-unconnected-(U1-GPIO3-Pad2)*%
X94330000Y-85040000D03*
%TO.P,U1,3,GPIO5*%
%TO.N,Board_8-unconnected-(U1-GPIO5-Pad3)*%
X94330000Y-87580000D03*
%TO.P,U1,4,GPIO7*%
%TO.N,Board_8-unconnected-(U1-GPIO7-Pad4)*%
X94330000Y-90120000D03*
%TO.P,U1,5,GPIO9*%
%TO.N,Board_8-unconnected-(U1-GPIO9-Pad5)*%
X94330000Y-92660000D03*
%TO.P,U1,6,GPIO11*%
%TO.N,Board_8-unconnected-(U1-GPIO11-Pad6)*%
X94330000Y-95200000D03*
%TO.P,U1,7,GPIO12*%
%TO.N,Board_8-unconnected-(U1-GPIO12-Pad7)*%
X94330000Y-97740000D03*
%TO.P,U1,8,3V3*%
%TO.N,Board_8-Net-(Q1-E)*%
X94330000Y-100280000D03*
%TO.P,U1,9,VBUS*%
%TO.N,Board_8-unconnected-(U1-VBUS-Pad9)*%
X117190000Y-100280000D03*
%TO.P,U1,10,GND*%
%TO.N,Board_8-Net-(Q2-E)*%
X117190000Y-97740000D03*
%TO.P,U1,11,XTAL_32K_N*%
%TO.N,Board_8-unconnected-(U1-XTAL_32K_N-Pad11)*%
X117190000Y-95200000D03*
%TO.P,U1,12,DAC_2*%
%TO.N,Board_8-unconnected-(U1-DAC_2-Pad12)*%
X117190000Y-92660000D03*
%TO.P,U1,13,GPIO33*%
%TO.N,Board_8-Net-(U1-GPIO33)*%
X117190000Y-90120000D03*
%TO.P,U1,14,GPIO35*%
%TO.N,Board_8-Net-(U1-GPIO35)*%
X117190000Y-87580000D03*
%TO.P,U1,15,GPIO37*%
%TO.N,Board_8-Net-(U1-GPIO37)*%
X117190000Y-85040000D03*
%TO.P,U1,16,GPIO39*%
%TO.N,Board_8-Net-(U1-GPIO39)*%
X117190000Y-82500000D03*
%TO.P,U1,17,GPIO1*%
%TO.N,Board_8-unconnected-(U1-GPIO1-Pad17)*%
X96870000Y-82500000D03*
%TO.P,U1,18,GPIO2*%
%TO.N,Board_8-unconnected-(U1-GPIO2-Pad18)*%
X96870000Y-85040000D03*
%TO.P,U1,19,GPIO4*%
%TO.N,Board_8-unconnected-(U1-GPIO4-Pad19)*%
X96870000Y-87580000D03*
%TO.P,U1,20,GPIO6*%
%TO.N,Board_8-unconnected-(U1-GPIO6-Pad20)*%
X96870000Y-90120000D03*
%TO.P,U1,21,GPIO8*%
%TO.N,Board_8-unconnected-(U1-GPIO8-Pad21)*%
X96870000Y-92660000D03*
%TO.P,U1,22,GPIO10*%
%TO.N,Board_8-unconnected-(U1-GPIO10-Pad22)*%
X96870000Y-95200000D03*
%TO.P,U1,23,GPIO13*%
%TO.N,Board_8-unconnected-(U1-GPIO13-Pad23)*%
X96870000Y-97740000D03*
%TO.P,U1,24,GPIO14*%
%TO.N,Board_8-unconnected-(U1-GPIO14-Pad24)*%
X96870000Y-100280000D03*
%TO.P,U1,25,XTAL_32K_P*%
%TO.N,Board_8-unconnected-(U1-XTAL_32K_P-Pad25)*%
X114650000Y-100280000D03*
%TO.P,U1,26,GND*%
%TO.N,Board_8-Net-(Q2-E)*%
X114650000Y-97740000D03*
%TO.P,U1,27,DAC_1*%
%TO.N,Board_8-unconnected-(U1-DAC_1-Pad27)*%
X114650000Y-95200000D03*
%TO.P,U1,28,GPIO21*%
%TO.N,Board_8-unconnected-(U1-GPIO21-Pad28)*%
X114650000Y-92660000D03*
%TO.P,U1,29,GPIO34*%
%TO.N,Board_8-unconnected-(U1-GPIO34-Pad29)*%
X114650000Y-90120000D03*
%TO.P,U1,30,GPIO36*%
%TO.N,Board_8-unconnected-(U1-GPIO36-Pad30)*%
X114650000Y-87580000D03*
%TO.P,U1,31,GPIO38*%
%TO.N,Board_8-unconnected-(U1-GPIO38-Pad31)*%
X114650000Y-85040000D03*
%TO.P,U1,32,GPIO40*%
%TO.N,Board_8-unconnected-(U1-GPIO40-Pad32)*%
X114650000Y-82500000D03*
%TD*%
D12*
%TO.P,U1,1,EN*%
%TO.N,Board_14-unconnected-(U1-EN-Pad1)*%
X151370000Y-112930000D03*
D13*
%TO.P,U1,2,GPIO3*%
%TO.N,Board_14-unconnected-(U1-GPIO3-Pad2)*%
X151370000Y-115470000D03*
%TO.P,U1,3,GPIO5*%
%TO.N,Board_14-unconnected-(U1-GPIO5-Pad3)*%
X151370000Y-118010000D03*
%TO.P,U1,4,GPIO7*%
%TO.N,Board_14-unconnected-(U1-GPIO7-Pad4)*%
X151370000Y-120550000D03*
%TO.P,U1,5,GPIO9*%
%TO.N,Board_14-unconnected-(U1-GPIO9-Pad5)*%
X151370000Y-123090000D03*
%TO.P,U1,6,GPIO11*%
%TO.N,Board_14-unconnected-(U1-GPIO11-Pad6)*%
X151370000Y-125630000D03*
%TO.P,U1,7,GPIO12*%
%TO.N,Board_14-unconnected-(U1-GPIO12-Pad7)*%
X151370000Y-128170000D03*
%TO.P,U1,8,3V3*%
%TO.N,Board_14-Net-(Q1-E)*%
X151370000Y-130710000D03*
%TO.P,U1,9,VBUS*%
%TO.N,Board_14-unconnected-(U1-VBUS-Pad9)*%
X174230000Y-130710000D03*
%TO.P,U1,10,GND*%
%TO.N,Board_14-Net-(Q2-E)*%
X174230000Y-128170000D03*
%TO.P,U1,11,XTAL_32K_N*%
%TO.N,Board_14-unconnected-(U1-XTAL_32K_N-Pad11)*%
X174230000Y-125630000D03*
%TO.P,U1,12,DAC_2*%
%TO.N,Board_14-unconnected-(U1-DAC_2-Pad12)*%
X174230000Y-123090000D03*
%TO.P,U1,13,GPIO33*%
%TO.N,Board_14-Net-(U1-GPIO33)*%
X174230000Y-120550000D03*
%TO.P,U1,14,GPIO35*%
%TO.N,Board_14-Net-(U1-GPIO35)*%
X174230000Y-118010000D03*
%TO.P,U1,15,GPIO37*%
%TO.N,Board_14-Net-(U1-GPIO37)*%
X174230000Y-115470000D03*
%TO.P,U1,16,GPIO39*%
%TO.N,Board_14-Net-(U1-GPIO39)*%
X174230000Y-112930000D03*
%TO.P,U1,17,GPIO1*%
%TO.N,Board_14-unconnected-(U1-GPIO1-Pad17)*%
X153910000Y-112930000D03*
%TO.P,U1,18,GPIO2*%
%TO.N,Board_14-unconnected-(U1-GPIO2-Pad18)*%
X153910000Y-115470000D03*
%TO.P,U1,19,GPIO4*%
%TO.N,Board_14-unconnected-(U1-GPIO4-Pad19)*%
X153910000Y-118010000D03*
%TO.P,U1,20,GPIO6*%
%TO.N,Board_14-unconnected-(U1-GPIO6-Pad20)*%
X153910000Y-120550000D03*
%TO.P,U1,21,GPIO8*%
%TO.N,Board_14-unconnected-(U1-GPIO8-Pad21)*%
X153910000Y-123090000D03*
%TO.P,U1,22,GPIO10*%
%TO.N,Board_14-unconnected-(U1-GPIO10-Pad22)*%
X153910000Y-125630000D03*
%TO.P,U1,23,GPIO13*%
%TO.N,Board_14-unconnected-(U1-GPIO13-Pad23)*%
X153910000Y-128170000D03*
%TO.P,U1,24,GPIO14*%
%TO.N,Board_14-unconnected-(U1-GPIO14-Pad24)*%
X153910000Y-130710000D03*
%TO.P,U1,25,XTAL_32K_P*%
%TO.N,Board_14-unconnected-(U1-XTAL_32K_P-Pad25)*%
X171690000Y-130710000D03*
%TO.P,U1,26,GND*%
%TO.N,Board_14-Net-(Q2-E)*%
X171690000Y-128170000D03*
%TO.P,U1,27,DAC_1*%
%TO.N,Board_14-unconnected-(U1-DAC_1-Pad27)*%
X171690000Y-125630000D03*
%TO.P,U1,28,GPIO21*%
%TO.N,Board_14-unconnected-(U1-GPIO21-Pad28)*%
X171690000Y-123090000D03*
%TO.P,U1,29,GPIO34*%
%TO.N,Board_14-unconnected-(U1-GPIO34-Pad29)*%
X171690000Y-120550000D03*
%TO.P,U1,30,GPIO36*%
%TO.N,Board_14-unconnected-(U1-GPIO36-Pad30)*%
X171690000Y-118010000D03*
%TO.P,U1,31,GPIO38*%
%TO.N,Board_14-unconnected-(U1-GPIO38-Pad31)*%
X171690000Y-115470000D03*
%TO.P,U1,32,GPIO40*%
%TO.N,Board_14-unconnected-(U1-GPIO40-Pad32)*%
X171690000Y-112930000D03*
%TD*%
D10*
%TO.P,Q4,1,B*%
%TO.N,Board_4-Net-(Q4-B)*%
X103370000Y-57070000D03*
%TO.P,Q4,2,E*%
%TO.N,Board_4-Net-(Q2-E)*%
X103370000Y-58970000D03*
%TO.P,Q4,3,C*%
%TO.N,Board_4-Net-(J1-Pin_1)*%
X105245000Y-58020000D03*
%TD*%
%TO.P,Q2,1,B*%
%TO.N,Board_15-Net-(Q2-B)*%
X188930000Y-122930000D03*
%TO.P,Q2,2,E*%
%TO.N,Board_15-Net-(Q2-E)*%
X188930000Y-124830000D03*
%TO.P,Q2,3,C*%
%TO.N,Board_15-Net-(J1-Pin_2)*%
X190805000Y-123880000D03*
%TD*%
%TO.P,Q3,1,B*%
%TO.N,Board_15-Net-(Q3-B)*%
X188930000Y-127930000D03*
%TO.P,Q3,2,E*%
%TO.N,Board_15-Net-(Q1-E)*%
X188930000Y-129830000D03*
%TO.P,Q3,3,C*%
%TO.N,Board_15-Net-(J1-Pin_1)*%
X190805000Y-128880000D03*
%TD*%
D12*
%TO.P,U1,1,EN*%
%TO.N,Board_7-unconnected-(U1-EN-Pad1)*%
X179890000Y-52070000D03*
D13*
%TO.P,U1,2,GPIO3*%
%TO.N,Board_7-unconnected-(U1-GPIO3-Pad2)*%
X179890000Y-54610000D03*
%TO.P,U1,3,GPIO5*%
%TO.N,Board_7-unconnected-(U1-GPIO5-Pad3)*%
X179890000Y-57150000D03*
%TO.P,U1,4,GPIO7*%
%TO.N,Board_7-unconnected-(U1-GPIO7-Pad4)*%
X179890000Y-59690000D03*
%TO.P,U1,5,GPIO9*%
%TO.N,Board_7-unconnected-(U1-GPIO9-Pad5)*%
X179890000Y-62230000D03*
%TO.P,U1,6,GPIO11*%
%TO.N,Board_7-unconnected-(U1-GPIO11-Pad6)*%
X179890000Y-64770000D03*
%TO.P,U1,7,GPIO12*%
%TO.N,Board_7-unconnected-(U1-GPIO12-Pad7)*%
X179890000Y-67310000D03*
%TO.P,U1,8,3V3*%
%TO.N,Board_7-Net-(Q1-E)*%
X179890000Y-69850000D03*
%TO.P,U1,9,VBUS*%
%TO.N,Board_7-unconnected-(U1-VBUS-Pad9)*%
X202750000Y-69850000D03*
%TO.P,U1,10,GND*%
%TO.N,Board_7-Net-(Q2-E)*%
X202750000Y-67310000D03*
%TO.P,U1,11,XTAL_32K_N*%
%TO.N,Board_7-unconnected-(U1-XTAL_32K_N-Pad11)*%
X202750000Y-64770000D03*
%TO.P,U1,12,DAC_2*%
%TO.N,Board_7-unconnected-(U1-DAC_2-Pad12)*%
X202750000Y-62230000D03*
%TO.P,U1,13,GPIO33*%
%TO.N,Board_7-Net-(U1-GPIO33)*%
X202750000Y-59690000D03*
%TO.P,U1,14,GPIO35*%
%TO.N,Board_7-Net-(U1-GPIO35)*%
X202750000Y-57150000D03*
%TO.P,U1,15,GPIO37*%
%TO.N,Board_7-Net-(U1-GPIO37)*%
X202750000Y-54610000D03*
%TO.P,U1,16,GPIO39*%
%TO.N,Board_7-Net-(U1-GPIO39)*%
X202750000Y-52070000D03*
%TO.P,U1,17,GPIO1*%
%TO.N,Board_7-unconnected-(U1-GPIO1-Pad17)*%
X182430000Y-52070000D03*
%TO.P,U1,18,GPIO2*%
%TO.N,Board_7-unconnected-(U1-GPIO2-Pad18)*%
X182430000Y-54610000D03*
%TO.P,U1,19,GPIO4*%
%TO.N,Board_7-unconnected-(U1-GPIO4-Pad19)*%
X182430000Y-57150000D03*
%TO.P,U1,20,GPIO6*%
%TO.N,Board_7-unconnected-(U1-GPIO6-Pad20)*%
X182430000Y-59690000D03*
%TO.P,U1,21,GPIO8*%
%TO.N,Board_7-unconnected-(U1-GPIO8-Pad21)*%
X182430000Y-62230000D03*
%TO.P,U1,22,GPIO10*%
%TO.N,Board_7-unconnected-(U1-GPIO10-Pad22)*%
X182430000Y-64770000D03*
%TO.P,U1,23,GPIO13*%
%TO.N,Board_7-unconnected-(U1-GPIO13-Pad23)*%
X182430000Y-67310000D03*
%TO.P,U1,24,GPIO14*%
%TO.N,Board_7-unconnected-(U1-GPIO14-Pad24)*%
X182430000Y-69850000D03*
%TO.P,U1,25,XTAL_32K_P*%
%TO.N,Board_7-unconnected-(U1-XTAL_32K_P-Pad25)*%
X200210000Y-69850000D03*
%TO.P,U1,26,GND*%
%TO.N,Board_7-Net-(Q2-E)*%
X200210000Y-67310000D03*
%TO.P,U1,27,DAC_1*%
%TO.N,Board_7-unconnected-(U1-DAC_1-Pad27)*%
X200210000Y-64770000D03*
%TO.P,U1,28,GPIO21*%
%TO.N,Board_7-unconnected-(U1-GPIO21-Pad28)*%
X200210000Y-62230000D03*
%TO.P,U1,29,GPIO34*%
%TO.N,Board_7-unconnected-(U1-GPIO34-Pad29)*%
X200210000Y-59690000D03*
%TO.P,U1,30,GPIO36*%
%TO.N,Board_7-unconnected-(U1-GPIO36-Pad30)*%
X200210000Y-57150000D03*
%TO.P,U1,31,GPIO38*%
%TO.N,Board_7-unconnected-(U1-GPIO38-Pad31)*%
X200210000Y-54610000D03*
%TO.P,U1,32,GPIO40*%
%TO.N,Board_7-unconnected-(U1-GPIO40-Pad32)*%
X200210000Y-52070000D03*
%TD*%
D14*
%TO.P,R4,1*%
%TO.N,Board_3-Net-(Q4-B)*%
X195740000Y-28690000D03*
%TO.P,R4,2*%
%TO.N,Board_3-Net-(U1-GPIO39)*%
X195740000Y-26690000D03*
%TD*%
%TO.P,R1,1*%
%TO.N,Board_9-Net-(Q1-B)*%
X138700000Y-104550000D03*
%TO.P,R1,2*%
%TO.N,Board_9-Net-(U1-GPIO33)*%
X138700000Y-102550000D03*
%TD*%
D10*
%TO.P,Q1,1,B*%
%TO.N,Board_15-Net-(Q1-B)*%
X188802500Y-132930000D03*
%TO.P,Q1,2,E*%
%TO.N,Board_15-Net-(Q1-E)*%
X188802500Y-134830000D03*
%TO.P,Q1,3,C*%
%TO.N,Board_15-Net-(J1-Pin_2)*%
X190677500Y-133880000D03*
%TD*%
%TO.P,Q2,1,B*%
%TO.N,Board_4-Net-(Q2-B)*%
X103370000Y-62070000D03*
%TO.P,Q2,2,E*%
%TO.N,Board_4-Net-(Q2-E)*%
X103370000Y-63970000D03*
%TO.P,Q2,3,C*%
%TO.N,Board_4-Net-(J1-Pin_2)*%
X105245000Y-63020000D03*
%TD*%
D14*
%TO.P,R2,1*%
%TO.N,Board_7-Net-(Q3-B)*%
X195740000Y-69120000D03*
%TO.P,R2,2*%
%TO.N,Board_7-Net-(U1-GPIO35)*%
X195740000Y-67120000D03*
%TD*%
D10*
%TO.P,Q2,1,B*%
%TO.N,Board_11-Net-(Q2-B)*%
X188930000Y-92500000D03*
%TO.P,Q2,2,E*%
%TO.N,Board_11-Net-(Q2-E)*%
X188930000Y-94400000D03*
%TO.P,Q2,3,C*%
%TO.N,Board_11-Net-(J1-Pin_2)*%
X190805000Y-93450000D03*
%TD*%
D14*
%TO.P,R2,1*%
%TO.N,Board_12-Net-(Q3-B)*%
X110180000Y-129980000D03*
%TO.P,R2,2*%
%TO.N,Board_12-Net-(U1-GPIO35)*%
X110180000Y-127980000D03*
%TD*%
D10*
%TO.P,Q4,1,B*%
%TO.N,Board_10-Net-(Q4-B)*%
X160410000Y-87500000D03*
%TO.P,Q4,2,E*%
%TO.N,Board_10-Net-(Q2-E)*%
X160410000Y-89400000D03*
%TO.P,Q4,3,C*%
%TO.N,Board_10-Net-(J1-Pin_1)*%
X162285000Y-88450000D03*
%TD*%
%TO.P,Q2,1,B*%
%TO.N,Board_2-Net-(Q2-B)*%
X160410000Y-31640000D03*
%TO.P,Q2,2,E*%
%TO.N,Board_2-Net-(Q2-E)*%
X160410000Y-33540000D03*
%TO.P,Q2,3,C*%
%TO.N,Board_2-Net-(J1-Pin_2)*%
X162285000Y-32590000D03*
%TD*%
D14*
%TO.P,R2,1*%
%TO.N,Board_15-Net-(Q3-B)*%
X195740000Y-129980000D03*
%TO.P,R2,2*%
%TO.N,Board_15-Net-(U1-GPIO35)*%
X195740000Y-127980000D03*
%TD*%
%TO.P,R2,1*%
%TO.N,Board_2-Net-(Q3-B)*%
X167220000Y-38690000D03*
%TO.P,R2,2*%
%TO.N,Board_2-Net-(U1-GPIO35)*%
X167220000Y-36690000D03*
%TD*%
%TO.P,R4,1*%
%TO.N,Board_6-Net-(Q4-B)*%
X167220000Y-59120000D03*
%TO.P,R4,2*%
%TO.N,Board_6-Net-(U1-GPIO39)*%
X167220000Y-57120000D03*
%TD*%
%TO.P,R1,1*%
%TO.N,Board_14-Net-(Q1-B)*%
X167220000Y-134980000D03*
%TO.P,R1,2*%
%TO.N,Board_14-Net-(U1-GPIO33)*%
X167220000Y-132980000D03*
%TD*%
%TO.P,R4,1*%
%TO.N,Board_7-Net-(Q4-B)*%
X195740000Y-59120000D03*
%TO.P,R4,2*%
%TO.N,Board_7-Net-(U1-GPIO39)*%
X195740000Y-57120000D03*
%TD*%
%TO.P,R4,1*%
%TO.N,Board_5-Net-(Q4-B)*%
X138700000Y-59120000D03*
%TO.P,R4,2*%
%TO.N,Board_5-Net-(U1-GPIO39)*%
X138700000Y-57120000D03*
%TD*%
D10*
%TO.P,Q2,1,B*%
%TO.N,Board_0-Net-(Q2-B)*%
X103370000Y-31640000D03*
%TO.P,Q2,2,E*%
%TO.N,Board_0-Net-(Q2-E)*%
X103370000Y-33540000D03*
%TO.P,Q2,3,C*%
%TO.N,Board_0-Net-(J1-Pin_2)*%
X105245000Y-32590000D03*
%TD*%
%TO.P,Q3,1,B*%
%TO.N,Board_6-Net-(Q3-B)*%
X160410000Y-67070000D03*
%TO.P,Q3,2,E*%
%TO.N,Board_6-Net-(Q1-E)*%
X160410000Y-68970000D03*
%TO.P,Q3,3,C*%
%TO.N,Board_6-Net-(J1-Pin_1)*%
X162285000Y-68020000D03*
%TD*%
%TO.P,Q3,1,B*%
%TO.N,Board_1-Net-(Q3-B)*%
X131890000Y-36640000D03*
%TO.P,Q3,2,E*%
%TO.N,Board_1-Net-(Q1-E)*%
X131890000Y-38540000D03*
%TO.P,Q3,3,C*%
%TO.N,Board_1-Net-(J1-Pin_1)*%
X133765000Y-37590000D03*
%TD*%
D14*
%TO.P,R3,1*%
%TO.N,Board_6-Net-(Q2-B)*%
X167220000Y-64120000D03*
%TO.P,R3,2*%
%TO.N,Board_6-Net-(U1-GPIO37)*%
X167220000Y-62120000D03*
%TD*%
D10*
%TO.P,Q3,1,B*%
%TO.N,Board_4-Net-(Q3-B)*%
X103370000Y-67070000D03*
%TO.P,Q3,2,E*%
%TO.N,Board_4-Net-(Q1-E)*%
X103370000Y-68970000D03*
%TO.P,Q3,3,C*%
%TO.N,Board_4-Net-(J1-Pin_1)*%
X105245000Y-68020000D03*
%TD*%
%TO.P,Q1,1,B*%
%TO.N,Board_14-Net-(Q1-B)*%
X160282500Y-132930000D03*
%TO.P,Q1,2,E*%
%TO.N,Board_14-Net-(Q1-E)*%
X160282500Y-134830000D03*
%TO.P,Q1,3,C*%
%TO.N,Board_14-Net-(J1-Pin_2)*%
X162157500Y-133880000D03*
%TD*%
%TO.P,Q4,1,B*%
%TO.N,Board_11-Net-(Q4-B)*%
X188930000Y-87500000D03*
%TO.P,Q4,2,E*%
%TO.N,Board_11-Net-(Q2-E)*%
X188930000Y-89400000D03*
%TO.P,Q4,3,C*%
%TO.N,Board_11-Net-(J1-Pin_1)*%
X190805000Y-88450000D03*
%TD*%
D11*
%TO.P,J1,1,Pin_1*%
%TO.N,Board_6-Net-(J1-Pin_1)*%
X164180000Y-52530000D03*
%TO.P,J1,2,Pin_2*%
%TO.N,Board_6-Net-(J1-Pin_2)*%
X161640000Y-52530000D03*
%TD*%
D14*
%TO.P,R4,1*%
%TO.N,Board_4-Net-(Q4-B)*%
X110180000Y-59120000D03*
%TO.P,R4,2*%
%TO.N,Board_4-Net-(U1-GPIO39)*%
X110180000Y-57120000D03*
%TD*%
D11*
%TO.P,J1,1,Pin_1*%
%TO.N,Board_2-Net-(J1-Pin_1)*%
X164180000Y-22100000D03*
%TO.P,J1,2,Pin_2*%
%TO.N,Board_2-Net-(J1-Pin_2)*%
X161640000Y-22100000D03*
%TD*%
%TO.P,J1,1,Pin_1*%
%TO.N,Board_8-Net-(J1-Pin_1)*%
X107140000Y-82960000D03*
%TO.P,J1,2,Pin_2*%
%TO.N,Board_8-Net-(J1-Pin_2)*%
X104600000Y-82960000D03*
%TD*%
D14*
%TO.P,R2,1*%
%TO.N,Board_13-Net-(Q3-B)*%
X138700000Y-129980000D03*
%TO.P,R2,2*%
%TO.N,Board_13-Net-(U1-GPIO35)*%
X138700000Y-127980000D03*
%TD*%
%TO.P,R1,1*%
%TO.N,Board_11-Net-(Q1-B)*%
X195740000Y-104550000D03*
%TO.P,R1,2*%
%TO.N,Board_11-Net-(U1-GPIO33)*%
X195740000Y-102550000D03*
%TD*%
%TO.P,R1,1*%
%TO.N,Board_1-Net-(Q1-B)*%
X138700000Y-43690000D03*
%TO.P,R1,2*%
%TO.N,Board_1-Net-(U1-GPIO33)*%
X138700000Y-41690000D03*
%TD*%
%TO.P,R4,1*%
%TO.N,Board_8-Net-(Q4-B)*%
X110180000Y-89550000D03*
%TO.P,R4,2*%
%TO.N,Board_8-Net-(U1-GPIO39)*%
X110180000Y-87550000D03*
%TD*%
D12*
%TO.P,U1,1,EN*%
%TO.N,Board_0-unconnected-(U1-EN-Pad1)*%
X94330000Y-21640000D03*
D13*
%TO.P,U1,2,GPIO3*%
%TO.N,Board_0-unconnected-(U1-GPIO3-Pad2)*%
X94330000Y-24180000D03*
%TO.P,U1,3,GPIO5*%
%TO.N,Board_0-unconnected-(U1-GPIO5-Pad3)*%
X94330000Y-26720000D03*
%TO.P,U1,4,GPIO7*%
%TO.N,Board_0-unconnected-(U1-GPIO7-Pad4)*%
X94330000Y-29260000D03*
%TO.P,U1,5,GPIO9*%
%TO.N,Board_0-unconnected-(U1-GPIO9-Pad5)*%
X94330000Y-31800000D03*
%TO.P,U1,6,GPIO11*%
%TO.N,Board_0-unconnected-(U1-GPIO11-Pad6)*%
X94330000Y-34340000D03*
%TO.P,U1,7,GPIO12*%
%TO.N,Board_0-unconnected-(U1-GPIO12-Pad7)*%
X94330000Y-36880000D03*
%TO.P,U1,8,3V3*%
%TO.N,Board_0-Net-(Q1-E)*%
X94330000Y-39420000D03*
%TO.P,U1,9,VBUS*%
%TO.N,Board_0-unconnected-(U1-VBUS-Pad9)*%
X117190000Y-39420000D03*
%TO.P,U1,10,GND*%
%TO.N,Board_0-Net-(Q2-E)*%
X117190000Y-36880000D03*
%TO.P,U1,11,XTAL_32K_N*%
%TO.N,Board_0-unconnected-(U1-XTAL_32K_N-Pad11)*%
X117190000Y-34340000D03*
%TO.P,U1,12,DAC_2*%
%TO.N,Board_0-unconnected-(U1-DAC_2-Pad12)*%
X117190000Y-31800000D03*
%TO.P,U1,13,GPIO33*%
%TO.N,Board_0-Net-(U1-GPIO33)*%
X117190000Y-29260000D03*
%TO.P,U1,14,GPIO35*%
%TO.N,Board_0-Net-(U1-GPIO35)*%
X117190000Y-26720000D03*
%TO.P,U1,15,GPIO37*%
%TO.N,Board_0-Net-(U1-GPIO37)*%
X117190000Y-24180000D03*
%TO.P,U1,16,GPIO39*%
%TO.N,Board_0-Net-(U1-GPIO39)*%
X117190000Y-21640000D03*
%TO.P,U1,17,GPIO1*%
%TO.N,Board_0-unconnected-(U1-GPIO1-Pad17)*%
X96870000Y-21640000D03*
%TO.P,U1,18,GPIO2*%
%TO.N,Board_0-unconnected-(U1-GPIO2-Pad18)*%
X96870000Y-24180000D03*
%TO.P,U1,19,GPIO4*%
%TO.N,Board_0-unconnected-(U1-GPIO4-Pad19)*%
X96870000Y-26720000D03*
%TO.P,U1,20,GPIO6*%
%TO.N,Board_0-unconnected-(U1-GPIO6-Pad20)*%
X96870000Y-29260000D03*
%TO.P,U1,21,GPIO8*%
%TO.N,Board_0-unconnected-(U1-GPIO8-Pad21)*%
X96870000Y-31800000D03*
%TO.P,U1,22,GPIO10*%
%TO.N,Board_0-unconnected-(U1-GPIO10-Pad22)*%
X96870000Y-34340000D03*
%TO.P,U1,23,GPIO13*%
%TO.N,Board_0-unconnected-(U1-GPIO13-Pad23)*%
X96870000Y-36880000D03*
%TO.P,U1,24,GPIO14*%
%TO.N,Board_0-unconnected-(U1-GPIO14-Pad24)*%
X96870000Y-39420000D03*
%TO.P,U1,25,XTAL_32K_P*%
%TO.N,Board_0-unconnected-(U1-XTAL_32K_P-Pad25)*%
X114650000Y-39420000D03*
%TO.P,U1,26,GND*%
%TO.N,Board_0-Net-(Q2-E)*%
X114650000Y-36880000D03*
%TO.P,U1,27,DAC_1*%
%TO.N,Board_0-unconnected-(U1-DAC_1-Pad27)*%
X114650000Y-34340000D03*
%TO.P,U1,28,GPIO21*%
%TO.N,Board_0-unconnected-(U1-GPIO21-Pad28)*%
X114650000Y-31800000D03*
%TO.P,U1,29,GPIO34*%
%TO.N,Board_0-unconnected-(U1-GPIO34-Pad29)*%
X114650000Y-29260000D03*
%TO.P,U1,30,GPIO36*%
%TO.N,Board_0-unconnected-(U1-GPIO36-Pad30)*%
X114650000Y-26720000D03*
%TO.P,U1,31,GPIO38*%
%TO.N,Board_0-unconnected-(U1-GPIO38-Pad31)*%
X114650000Y-24180000D03*
%TO.P,U1,32,GPIO40*%
%TO.N,Board_0-unconnected-(U1-GPIO40-Pad32)*%
X114650000Y-21640000D03*
%TD*%
D14*
%TO.P,R2,1*%
%TO.N,Board_3-Net-(Q3-B)*%
X195740000Y-38690000D03*
%TO.P,R2,2*%
%TO.N,Board_3-Net-(U1-GPIO35)*%
X195740000Y-36690000D03*
%TD*%
D11*
%TO.P,J1,1,Pin_1*%
%TO.N,Board_4-Net-(J1-Pin_1)*%
X107140000Y-52530000D03*
%TO.P,J1,2,Pin_2*%
%TO.N,Board_4-Net-(J1-Pin_2)*%
X104600000Y-52530000D03*
%TD*%
D14*
%TO.P,R1,1*%
%TO.N,Board_4-Net-(Q1-B)*%
X110180000Y-74120000D03*
%TO.P,R1,2*%
%TO.N,Board_4-Net-(U1-GPIO33)*%
X110180000Y-72120000D03*
%TD*%
D10*
%TO.P,Q1,1,B*%
%TO.N,Board_3-Net-(Q1-B)*%
X188802500Y-41640000D03*
%TO.P,Q1,2,E*%
%TO.N,Board_3-Net-(Q1-E)*%
X188802500Y-43540000D03*
%TO.P,Q1,3,C*%
%TO.N,Board_3-Net-(J1-Pin_2)*%
X190677500Y-42590000D03*
%TD*%
D14*
%TO.P,R1,1*%
%TO.N,Board_8-Net-(Q1-B)*%
X110180000Y-104550000D03*
%TO.P,R1,2*%
%TO.N,Board_8-Net-(U1-GPIO33)*%
X110180000Y-102550000D03*
%TD*%
D10*
%TO.P,Q3,1,B*%
%TO.N,Board_13-Net-(Q3-B)*%
X131890000Y-127930000D03*
%TO.P,Q3,2,E*%
%TO.N,Board_13-Net-(Q1-E)*%
X131890000Y-129830000D03*
%TO.P,Q3,3,C*%
%TO.N,Board_13-Net-(J1-Pin_1)*%
X133765000Y-128880000D03*
%TD*%
D14*
%TO.P,R4,1*%
%TO.N,Board_10-Net-(Q4-B)*%
X167220000Y-89550000D03*
%TO.P,R4,2*%
%TO.N,Board_10-Net-(U1-GPIO39)*%
X167220000Y-87550000D03*
%TD*%
D10*
%TO.P,Q4,1,B*%
%TO.N,Board_12-Net-(Q4-B)*%
X103370000Y-117930000D03*
%TO.P,Q4,2,E*%
%TO.N,Board_12-Net-(Q2-E)*%
X103370000Y-119830000D03*
%TO.P,Q4,3,C*%
%TO.N,Board_12-Net-(J1-Pin_1)*%
X105245000Y-118880000D03*
%TD*%
D14*
%TO.P,R1,1*%
%TO.N,Board_5-Net-(Q1-B)*%
X138700000Y-74120000D03*
%TO.P,R1,2*%
%TO.N,Board_5-Net-(U1-GPIO33)*%
X138700000Y-72120000D03*
%TD*%
D10*
%TO.P,Q4,1,B*%
%TO.N,Board_1-Net-(Q4-B)*%
X131890000Y-26640000D03*
%TO.P,Q4,2,E*%
%TO.N,Board_1-Net-(Q2-E)*%
X131890000Y-28540000D03*
%TO.P,Q4,3,C*%
%TO.N,Board_1-Net-(J1-Pin_1)*%
X133765000Y-27590000D03*
%TD*%
D14*
%TO.P,R2,1*%
%TO.N,Board_4-Net-(Q3-B)*%
X110180000Y-69120000D03*
%TO.P,R2,2*%
%TO.N,Board_4-Net-(U1-GPIO35)*%
X110180000Y-67120000D03*
%TD*%
D10*
%TO.P,Q3,1,B*%
%TO.N,Board_10-Net-(Q3-B)*%
X160410000Y-97500000D03*
%TO.P,Q3,2,E*%
%TO.N,Board_10-Net-(Q1-E)*%
X160410000Y-99400000D03*
%TO.P,Q3,3,C*%
%TO.N,Board_10-Net-(J1-Pin_1)*%
X162285000Y-98450000D03*
%TD*%
D14*
%TO.P,R3,1*%
%TO.N,Board_8-Net-(Q2-B)*%
X110180000Y-94550000D03*
%TO.P,R3,2*%
%TO.N,Board_8-Net-(U1-GPIO37)*%
X110180000Y-92550000D03*
%TD*%
D10*
%TO.P,Q2,1,B*%
%TO.N,Board_10-Net-(Q2-B)*%
X160410000Y-92500000D03*
%TO.P,Q2,2,E*%
%TO.N,Board_10-Net-(Q2-E)*%
X160410000Y-94400000D03*
%TO.P,Q2,3,C*%
%TO.N,Board_10-Net-(J1-Pin_2)*%
X162285000Y-93450000D03*
%TD*%
D14*
%TO.P,R4,1*%
%TO.N,Board_13-Net-(Q4-B)*%
X138700000Y-119980000D03*
%TO.P,R4,2*%
%TO.N,Board_13-Net-(U1-GPIO39)*%
X138700000Y-117980000D03*
%TD*%
D10*
%TO.P,Q1,1,B*%
%TO.N,Board_10-Net-(Q1-B)*%
X160282500Y-102500000D03*
%TO.P,Q1,2,E*%
%TO.N,Board_10-Net-(Q1-E)*%
X160282500Y-104400000D03*
%TO.P,Q1,3,C*%
%TO.N,Board_10-Net-(J1-Pin_2)*%
X162157500Y-103450000D03*
%TD*%
D11*
%TO.P,J1,1,Pin_1*%
%TO.N,Board_10-Net-(J1-Pin_1)*%
X164180000Y-82960000D03*
%TO.P,J1,2,Pin_2*%
%TO.N,Board_10-Net-(J1-Pin_2)*%
X161640000Y-82960000D03*
%TD*%
D14*
%TO.P,R1,1*%
%TO.N,Board_15-Net-(Q1-B)*%
X195740000Y-134980000D03*
%TO.P,R1,2*%
%TO.N,Board_15-Net-(U1-GPIO33)*%
X195740000Y-132980000D03*
%TD*%
D12*
%TO.P,U1,1,EN*%
%TO.N,Board_15-unconnected-(U1-EN-Pad1)*%
X179890000Y-112930000D03*
D13*
%TO.P,U1,2,GPIO3*%
%TO.N,Board_15-unconnected-(U1-GPIO3-Pad2)*%
X179890000Y-115470000D03*
%TO.P,U1,3,GPIO5*%
%TO.N,Board_15-unconnected-(U1-GPIO5-Pad3)*%
X179890000Y-118010000D03*
%TO.P,U1,4,GPIO7*%
%TO.N,Board_15-unconnected-(U1-GPIO7-Pad4)*%
X179890000Y-120550000D03*
%TO.P,U1,5,GPIO9*%
%TO.N,Board_15-unconnected-(U1-GPIO9-Pad5)*%
X179890000Y-123090000D03*
%TO.P,U1,6,GPIO11*%
%TO.N,Board_15-unconnected-(U1-GPIO11-Pad6)*%
X179890000Y-125630000D03*
%TO.P,U1,7,GPIO12*%
%TO.N,Board_15-unconnected-(U1-GPIO12-Pad7)*%
X179890000Y-128170000D03*
%TO.P,U1,8,3V3*%
%TO.N,Board_15-Net-(Q1-E)*%
X179890000Y-130710000D03*
%TO.P,U1,9,VBUS*%
%TO.N,Board_15-unconnected-(U1-VBUS-Pad9)*%
X202750000Y-130710000D03*
%TO.P,U1,10,GND*%
%TO.N,Board_15-Net-(Q2-E)*%
X202750000Y-128170000D03*
%TO.P,U1,11,XTAL_32K_N*%
%TO.N,Board_15-unconnected-(U1-XTAL_32K_N-Pad11)*%
X202750000Y-125630000D03*
%TO.P,U1,12,DAC_2*%
%TO.N,Board_15-unconnected-(U1-DAC_2-Pad12)*%
X202750000Y-123090000D03*
%TO.P,U1,13,GPIO33*%
%TO.N,Board_15-Net-(U1-GPIO33)*%
X202750000Y-120550000D03*
%TO.P,U1,14,GPIO35*%
%TO.N,Board_15-Net-(U1-GPIO35)*%
X202750000Y-118010000D03*
%TO.P,U1,15,GPIO37*%
%TO.N,Board_15-Net-(U1-GPIO37)*%
X202750000Y-115470000D03*
%TO.P,U1,16,GPIO39*%
%TO.N,Board_15-Net-(U1-GPIO39)*%
X202750000Y-112930000D03*
%TO.P,U1,17,GPIO1*%
%TO.N,Board_15-unconnected-(U1-GPIO1-Pad17)*%
X182430000Y-112930000D03*
%TO.P,U1,18,GPIO2*%
%TO.N,Board_15-unconnected-(U1-GPIO2-Pad18)*%
X182430000Y-115470000D03*
%TO.P,U1,19,GPIO4*%
%TO.N,Board_15-unconnected-(U1-GPIO4-Pad19)*%
X182430000Y-118010000D03*
%TO.P,U1,20,GPIO6*%
%TO.N,Board_15-unconnected-(U1-GPIO6-Pad20)*%
X182430000Y-120550000D03*
%TO.P,U1,21,GPIO8*%
%TO.N,Board_15-unconnected-(U1-GPIO8-Pad21)*%
X182430000Y-123090000D03*
%TO.P,U1,22,GPIO10*%
%TO.N,Board_15-unconnected-(U1-GPIO10-Pad22)*%
X182430000Y-125630000D03*
%TO.P,U1,23,GPIO13*%
%TO.N,Board_15-unconnected-(U1-GPIO13-Pad23)*%
X182430000Y-128170000D03*
%TO.P,U1,24,GPIO14*%
%TO.N,Board_15-unconnected-(U1-GPIO14-Pad24)*%
X182430000Y-130710000D03*
%TO.P,U1,25,XTAL_32K_P*%
%TO.N,Board_15-unconnected-(U1-XTAL_32K_P-Pad25)*%
X200210000Y-130710000D03*
%TO.P,U1,26,GND*%
%TO.N,Board_15-Net-(Q2-E)*%
X200210000Y-128170000D03*
%TO.P,U1,27,DAC_1*%
%TO.N,Board_15-unconnected-(U1-DAC_1-Pad27)*%
X200210000Y-125630000D03*
%TO.P,U1,28,GPIO21*%
%TO.N,Board_15-unconnected-(U1-GPIO21-Pad28)*%
X200210000Y-123090000D03*
%TO.P,U1,29,GPIO34*%
%TO.N,Board_15-unconnected-(U1-GPIO34-Pad29)*%
X200210000Y-120550000D03*
%TO.P,U1,30,GPIO36*%
%TO.N,Board_15-unconnected-(U1-GPIO36-Pad30)*%
X200210000Y-118010000D03*
%TO.P,U1,31,GPIO38*%
%TO.N,Board_15-unconnected-(U1-GPIO38-Pad31)*%
X200210000Y-115470000D03*
%TO.P,U1,32,GPIO40*%
%TO.N,Board_15-unconnected-(U1-GPIO40-Pad32)*%
X200210000Y-112930000D03*
%TD*%
D14*
%TO.P,R1,1*%
%TO.N,Board_10-Net-(Q1-B)*%
X167220000Y-104550000D03*
%TO.P,R1,2*%
%TO.N,Board_10-Net-(U1-GPIO33)*%
X167220000Y-102550000D03*
%TD*%
%TO.P,R4,1*%
%TO.N,Board_12-Net-(Q4-B)*%
X110180000Y-119980000D03*
%TO.P,R4,2*%
%TO.N,Board_12-Net-(U1-GPIO39)*%
X110180000Y-117980000D03*
%TD*%
%TO.P,R1,1*%
%TO.N,Board_0-Net-(Q1-B)*%
X110180000Y-43690000D03*
%TO.P,R1,2*%
%TO.N,Board_0-Net-(U1-GPIO33)*%
X110180000Y-41690000D03*
%TD*%
D10*
%TO.P,Q4,1,B*%
%TO.N,Board_14-Net-(Q4-B)*%
X160410000Y-117930000D03*
%TO.P,Q4,2,E*%
%TO.N,Board_14-Net-(Q2-E)*%
X160410000Y-119830000D03*
%TO.P,Q4,3,C*%
%TO.N,Board_14-Net-(J1-Pin_1)*%
X162285000Y-118880000D03*
%TD*%
%TO.P,Q4,1,B*%
%TO.N,Board_3-Net-(Q4-B)*%
X188930000Y-26640000D03*
%TO.P,Q4,2,E*%
%TO.N,Board_3-Net-(Q2-E)*%
X188930000Y-28540000D03*
%TO.P,Q4,3,C*%
%TO.N,Board_3-Net-(J1-Pin_1)*%
X190805000Y-27590000D03*
%TD*%
D14*
%TO.P,R4,1*%
%TO.N,Board_14-Net-(Q4-B)*%
X167220000Y-119980000D03*
%TO.P,R4,2*%
%TO.N,Board_14-Net-(U1-GPIO39)*%
X167220000Y-117980000D03*
%TD*%
%TO.P,R1,1*%
%TO.N,Board_2-Net-(Q1-B)*%
X167220000Y-43690000D03*
%TO.P,R1,2*%
%TO.N,Board_2-Net-(U1-GPIO33)*%
X167220000Y-41690000D03*
%TD*%
D10*
%TO.P,Q2,1,B*%
%TO.N,Board_12-Net-(Q2-B)*%
X103370000Y-122930000D03*
%TO.P,Q2,2,E*%
%TO.N,Board_12-Net-(Q2-E)*%
X103370000Y-124830000D03*
%TO.P,Q2,3,C*%
%TO.N,Board_12-Net-(J1-Pin_2)*%
X105245000Y-123880000D03*
%TD*%
D14*
%TO.P,R3,1*%
%TO.N,Board_10-Net-(Q2-B)*%
X167220000Y-94550000D03*
%TO.P,R3,2*%
%TO.N,Board_10-Net-(U1-GPIO37)*%
X167220000Y-92550000D03*
%TD*%
D11*
%TO.P,J1,1,Pin_1*%
%TO.N,Board_15-Net-(J1-Pin_1)*%
X192700000Y-113390000D03*
%TO.P,J1,2,Pin_2*%
%TO.N,Board_15-Net-(J1-Pin_2)*%
X190160000Y-113390000D03*
%TD*%
D10*
%TO.P,Q1,1,B*%
%TO.N,Board_4-Net-(Q1-B)*%
X103242500Y-72070000D03*
%TO.P,Q1,2,E*%
%TO.N,Board_4-Net-(Q1-E)*%
X103242500Y-73970000D03*
%TO.P,Q1,3,C*%
%TO.N,Board_4-Net-(J1-Pin_2)*%
X105117500Y-73020000D03*
%TD*%
D11*
%TO.P,J1,1,Pin_1*%
%TO.N,Board_12-Net-(J1-Pin_1)*%
X107140000Y-113390000D03*
%TO.P,J1,2,Pin_2*%
%TO.N,Board_12-Net-(J1-Pin_2)*%
X104600000Y-113390000D03*
%TD*%
D10*
%TO.P,Q1,1,B*%
%TO.N,Board_13-Net-(Q1-B)*%
X131762500Y-132930000D03*
%TO.P,Q1,2,E*%
%TO.N,Board_13-Net-(Q1-E)*%
X131762500Y-134830000D03*
%TO.P,Q1,3,C*%
%TO.N,Board_13-Net-(J1-Pin_2)*%
X133637500Y-133880000D03*
%TD*%
D12*
%TO.P,U1,1,EN*%
%TO.N,Board_11-unconnected-(U1-EN-Pad1)*%
X179890000Y-82500000D03*
D13*
%TO.P,U1,2,GPIO3*%
%TO.N,Board_11-unconnected-(U1-GPIO3-Pad2)*%
X179890000Y-85040000D03*
%TO.P,U1,3,GPIO5*%
%TO.N,Board_11-unconnected-(U1-GPIO5-Pad3)*%
X179890000Y-87580000D03*
%TO.P,U1,4,GPIO7*%
%TO.N,Board_11-unconnected-(U1-GPIO7-Pad4)*%
X179890000Y-90120000D03*
%TO.P,U1,5,GPIO9*%
%TO.N,Board_11-unconnected-(U1-GPIO9-Pad5)*%
X179890000Y-92660000D03*
%TO.P,U1,6,GPIO11*%
%TO.N,Board_11-unconnected-(U1-GPIO11-Pad6)*%
X179890000Y-95200000D03*
%TO.P,U1,7,GPIO12*%
%TO.N,Board_11-unconnected-(U1-GPIO12-Pad7)*%
X179890000Y-97740000D03*
%TO.P,U1,8,3V3*%
%TO.N,Board_11-Net-(Q1-E)*%
X179890000Y-100280000D03*
%TO.P,U1,9,VBUS*%
%TO.N,Board_11-unconnected-(U1-VBUS-Pad9)*%
X202750000Y-100280000D03*
%TO.P,U1,10,GND*%
%TO.N,Board_11-Net-(Q2-E)*%
X202750000Y-97740000D03*
%TO.P,U1,11,XTAL_32K_N*%
%TO.N,Board_11-unconnected-(U1-XTAL_32K_N-Pad11)*%
X202750000Y-95200000D03*
%TO.P,U1,12,DAC_2*%
%TO.N,Board_11-unconnected-(U1-DAC_2-Pad12)*%
X202750000Y-92660000D03*
%TO.P,U1,13,GPIO33*%
%TO.N,Board_11-Net-(U1-GPIO33)*%
X202750000Y-90120000D03*
%TO.P,U1,14,GPIO35*%
%TO.N,Board_11-Net-(U1-GPIO35)*%
X202750000Y-87580000D03*
%TO.P,U1,15,GPIO37*%
%TO.N,Board_11-Net-(U1-GPIO37)*%
X202750000Y-85040000D03*
%TO.P,U1,16,GPIO39*%
%TO.N,Board_11-Net-(U1-GPIO39)*%
X202750000Y-82500000D03*
%TO.P,U1,17,GPIO1*%
%TO.N,Board_11-unconnected-(U1-GPIO1-Pad17)*%
X182430000Y-82500000D03*
%TO.P,U1,18,GPIO2*%
%TO.N,Board_11-unconnected-(U1-GPIO2-Pad18)*%
X182430000Y-85040000D03*
%TO.P,U1,19,GPIO4*%
%TO.N,Board_11-unconnected-(U1-GPIO4-Pad19)*%
X182430000Y-87580000D03*
%TO.P,U1,20,GPIO6*%
%TO.N,Board_11-unconnected-(U1-GPIO6-Pad20)*%
X182430000Y-90120000D03*
%TO.P,U1,21,GPIO8*%
%TO.N,Board_11-unconnected-(U1-GPIO8-Pad21)*%
X182430000Y-92660000D03*
%TO.P,U1,22,GPIO10*%
%TO.N,Board_11-unconnected-(U1-GPIO10-Pad22)*%
X182430000Y-95200000D03*
%TO.P,U1,23,GPIO13*%
%TO.N,Board_11-unconnected-(U1-GPIO13-Pad23)*%
X182430000Y-97740000D03*
%TO.P,U1,24,GPIO14*%
%TO.N,Board_11-unconnected-(U1-GPIO14-Pad24)*%
X182430000Y-100280000D03*
%TO.P,U1,25,XTAL_32K_P*%
%TO.N,Board_11-unconnected-(U1-XTAL_32K_P-Pad25)*%
X200210000Y-100280000D03*
%TO.P,U1,26,GND*%
%TO.N,Board_11-Net-(Q2-E)*%
X200210000Y-97740000D03*
%TO.P,U1,27,DAC_1*%
%TO.N,Board_11-unconnected-(U1-DAC_1-Pad27)*%
X200210000Y-95200000D03*
%TO.P,U1,28,GPIO21*%
%TO.N,Board_11-unconnected-(U1-GPIO21-Pad28)*%
X200210000Y-92660000D03*
%TO.P,U1,29,GPIO34*%
%TO.N,Board_11-unconnected-(U1-GPIO34-Pad29)*%
X200210000Y-90120000D03*
%TO.P,U1,30,GPIO36*%
%TO.N,Board_11-unconnected-(U1-GPIO36-Pad30)*%
X200210000Y-87580000D03*
%TO.P,U1,31,GPIO38*%
%TO.N,Board_11-unconnected-(U1-GPIO38-Pad31)*%
X200210000Y-85040000D03*
%TO.P,U1,32,GPIO40*%
%TO.N,Board_11-unconnected-(U1-GPIO40-Pad32)*%
X200210000Y-82500000D03*
%TD*%
D14*
%TO.P,R3,1*%
%TO.N,Board_2-Net-(Q2-B)*%
X167220000Y-33690000D03*
%TO.P,R3,2*%
%TO.N,Board_2-Net-(U1-GPIO37)*%
X167220000Y-31690000D03*
%TD*%
D10*
%TO.P,Q3,1,B*%
%TO.N,Board_8-Net-(Q3-B)*%
X103370000Y-97500000D03*
%TO.P,Q3,2,E*%
%TO.N,Board_8-Net-(Q1-E)*%
X103370000Y-99400000D03*
%TO.P,Q3,3,C*%
%TO.N,Board_8-Net-(J1-Pin_1)*%
X105245000Y-98450000D03*
%TD*%
D12*
%TO.P,U1,1,EN*%
%TO.N,Board_1-unconnected-(U1-EN-Pad1)*%
X122850000Y-21640000D03*
D13*
%TO.P,U1,2,GPIO3*%
%TO.N,Board_1-unconnected-(U1-GPIO3-Pad2)*%
X122850000Y-24180000D03*
%TO.P,U1,3,GPIO5*%
%TO.N,Board_1-unconnected-(U1-GPIO5-Pad3)*%
X122850000Y-26720000D03*
%TO.P,U1,4,GPIO7*%
%TO.N,Board_1-unconnected-(U1-GPIO7-Pad4)*%
X122850000Y-29260000D03*
%TO.P,U1,5,GPIO9*%
%TO.N,Board_1-unconnected-(U1-GPIO9-Pad5)*%
X122850000Y-31800000D03*
%TO.P,U1,6,GPIO11*%
%TO.N,Board_1-unconnected-(U1-GPIO11-Pad6)*%
X122850000Y-34340000D03*
%TO.P,U1,7,GPIO12*%
%TO.N,Board_1-unconnected-(U1-GPIO12-Pad7)*%
X122850000Y-36880000D03*
%TO.P,U1,8,3V3*%
%TO.N,Board_1-Net-(Q1-E)*%
X122850000Y-39420000D03*
%TO.P,U1,9,VBUS*%
%TO.N,Board_1-unconnected-(U1-VBUS-Pad9)*%
X145710000Y-39420000D03*
%TO.P,U1,10,GND*%
%TO.N,Board_1-Net-(Q2-E)*%
X145710000Y-36880000D03*
%TO.P,U1,11,XTAL_32K_N*%
%TO.N,Board_1-unconnected-(U1-XTAL_32K_N-Pad11)*%
X145710000Y-34340000D03*
%TO.P,U1,12,DAC_2*%
%TO.N,Board_1-unconnected-(U1-DAC_2-Pad12)*%
X145710000Y-31800000D03*
%TO.P,U1,13,GPIO33*%
%TO.N,Board_1-Net-(U1-GPIO33)*%
X145710000Y-29260000D03*
%TO.P,U1,14,GPIO35*%
%TO.N,Board_1-Net-(U1-GPIO35)*%
X145710000Y-26720000D03*
%TO.P,U1,15,GPIO37*%
%TO.N,Board_1-Net-(U1-GPIO37)*%
X145710000Y-24180000D03*
%TO.P,U1,16,GPIO39*%
%TO.N,Board_1-Net-(U1-GPIO39)*%
X145710000Y-21640000D03*
%TO.P,U1,17,GPIO1*%
%TO.N,Board_1-unconnected-(U1-GPIO1-Pad17)*%
X125390000Y-21640000D03*
%TO.P,U1,18,GPIO2*%
%TO.N,Board_1-unconnected-(U1-GPIO2-Pad18)*%
X125390000Y-24180000D03*
%TO.P,U1,19,GPIO4*%
%TO.N,Board_1-unconnected-(U1-GPIO4-Pad19)*%
X125390000Y-26720000D03*
%TO.P,U1,20,GPIO6*%
%TO.N,Board_1-unconnected-(U1-GPIO6-Pad20)*%
X125390000Y-29260000D03*
%TO.P,U1,21,GPIO8*%
%TO.N,Board_1-unconnected-(U1-GPIO8-Pad21)*%
X125390000Y-31800000D03*
%TO.P,U1,22,GPIO10*%
%TO.N,Board_1-unconnected-(U1-GPIO10-Pad22)*%
X125390000Y-34340000D03*
%TO.P,U1,23,GPIO13*%
%TO.N,Board_1-unconnected-(U1-GPIO13-Pad23)*%
X125390000Y-36880000D03*
%TO.P,U1,24,GPIO14*%
%TO.N,Board_1-unconnected-(U1-GPIO14-Pad24)*%
X125390000Y-39420000D03*
%TO.P,U1,25,XTAL_32K_P*%
%TO.N,Board_1-unconnected-(U1-XTAL_32K_P-Pad25)*%
X143170000Y-39420000D03*
%TO.P,U1,26,GND*%
%TO.N,Board_1-Net-(Q2-E)*%
X143170000Y-36880000D03*
%TO.P,U1,27,DAC_1*%
%TO.N,Board_1-unconnected-(U1-DAC_1-Pad27)*%
X143170000Y-34340000D03*
%TO.P,U1,28,GPIO21*%
%TO.N,Board_1-unconnected-(U1-GPIO21-Pad28)*%
X143170000Y-31800000D03*
%TO.P,U1,29,GPIO34*%
%TO.N,Board_1-unconnected-(U1-GPIO34-Pad29)*%
X143170000Y-29260000D03*
%TO.P,U1,30,GPIO36*%
%TO.N,Board_1-unconnected-(U1-GPIO36-Pad30)*%
X143170000Y-26720000D03*
%TO.P,U1,31,GPIO38*%
%TO.N,Board_1-unconnected-(U1-GPIO38-Pad31)*%
X143170000Y-24180000D03*
%TO.P,U1,32,GPIO40*%
%TO.N,Board_1-unconnected-(U1-GPIO40-Pad32)*%
X143170000Y-21640000D03*
%TD*%
D11*
%TO.P,J1,1,Pin_1*%
%TO.N,Board_3-Net-(J1-Pin_1)*%
X192700000Y-22100000D03*
%TO.P,J1,2,Pin_2*%
%TO.N,Board_3-Net-(J1-Pin_2)*%
X190160000Y-22100000D03*
%TD*%
D10*
%TO.P,Q2,1,B*%
%TO.N,Board_8-Net-(Q2-B)*%
X103370000Y-92500000D03*
%TO.P,Q2,2,E*%
%TO.N,Board_8-Net-(Q2-E)*%
X103370000Y-94400000D03*
%TO.P,Q2,3,C*%
%TO.N,Board_8-Net-(J1-Pin_2)*%
X105245000Y-93450000D03*
%TD*%
%TO.P,Q2,1,B*%
%TO.N,Board_9-Net-(Q2-B)*%
X131890000Y-92500000D03*
%TO.P,Q2,2,E*%
%TO.N,Board_9-Net-(Q2-E)*%
X131890000Y-94400000D03*
%TO.P,Q2,3,C*%
%TO.N,Board_9-Net-(J1-Pin_2)*%
X133765000Y-93450000D03*
%TD*%
%TO.P,Q4,1,B*%
%TO.N,Board_5-Net-(Q4-B)*%
X131890000Y-57070000D03*
%TO.P,Q4,2,E*%
%TO.N,Board_5-Net-(Q2-E)*%
X131890000Y-58970000D03*
%TO.P,Q4,3,C*%
%TO.N,Board_5-Net-(J1-Pin_1)*%
X133765000Y-58020000D03*
%TD*%
D14*
%TO.P,R3,1*%
%TO.N,Board_0-Net-(Q2-B)*%
X110180000Y-33690000D03*
%TO.P,R3,2*%
%TO.N,Board_0-Net-(U1-GPIO37)*%
X110180000Y-31690000D03*
%TD*%
%TO.P,R4,1*%
%TO.N,Board_0-Net-(Q4-B)*%
X110180000Y-28690000D03*
%TO.P,R4,2*%
%TO.N,Board_0-Net-(U1-GPIO39)*%
X110180000Y-26690000D03*
%TD*%
D15*
%TO.N,Board_0-Net-(Q2-E)*%
X104621200Y-33487800D03*
%TO.N,Board_1-Net-(Q2-E)*%
X133141200Y-33487800D03*
%TO.N,Board_2-Net-(Q2-E)*%
X161661200Y-33487800D03*
%TO.N,Board_3-Net-(Q2-E)*%
X190181200Y-33487800D03*
%TO.N,Board_4-Net-(Q2-E)*%
X104621200Y-63917800D03*
%TO.N,Board_5-Net-(Q2-E)*%
X133141200Y-63917800D03*
%TO.N,Board_6-Net-(Q2-E)*%
X161661200Y-63917800D03*
%TO.N,Board_7-Net-(Q2-E)*%
X190181200Y-63917800D03*
%TO.N,Board_8-Net-(Q2-E)*%
X104621200Y-94347800D03*
%TO.N,Board_9-Net-(Q2-E)*%
X133141200Y-94347800D03*
%TO.N,Board_10-Net-(Q2-E)*%
X161661200Y-94347800D03*
%TO.N,Board_11-Net-(Q2-E)*%
X190181200Y-94347800D03*
%TO.N,Board_12-Net-(Q2-E)*%
X104621200Y-124777800D03*
%TO.N,Board_13-Net-(Q2-E)*%
X133141200Y-124777800D03*
%TO.N,Board_14-Net-(Q2-E)*%
X161661200Y-124777800D03*
%TO.N,Board_15-Net-(Q2-E)*%
X190181200Y-124777800D03*
%TD*%
D16*
%TO.N,Board_0-Net-(J1-Pin_1)*%
X104123500Y-20936800D02*
X101472400Y-23587900D01*
X103894500Y-36011300D02*
X104147800Y-36011300D01*
X106450800Y-22100000D02*
X106491500Y-22100000D01*
X105328300Y-20936800D02*
X104123500Y-20936800D01*
X106410000Y-22100000D02*
X106450800Y-22100000D01*
X106450800Y-22100000D02*
X105245000Y-23305800D01*
X101472400Y-33589200D02*
X103894500Y-36011300D01*
X105245000Y-23305800D02*
X105245000Y-27590000D01*
X105245000Y-37108500D02*
X105245000Y-37590000D01*
X106491500Y-22100000D02*
X106532000Y-22100000D01*
X106532000Y-22100000D02*
X107140000Y-22100000D01*
X101472400Y-23587900D02*
X101472400Y-33589200D01*
X106491500Y-22100000D02*
X105328300Y-20936800D01*
X104147800Y-36011300D02*
X105245000Y-37108500D01*
%TO.N,Board_0-Net-(J1-Pin_2)*%
X110766000Y-37690000D02*
X109187600Y-37690000D01*
X110328000Y-40190000D02*
X111238200Y-39279800D01*
X111238200Y-38162200D02*
X110766000Y-37690000D01*
X107517500Y-40190000D02*
X110328000Y-40190000D01*
X101878900Y-25972800D02*
X104600000Y-23251700D01*
X111238200Y-39279800D02*
X111238200Y-38162200D01*
X104915100Y-34193100D02*
X102644500Y-34193100D01*
X105302900Y-32647900D02*
X105245000Y-32590000D01*
X105117500Y-42590000D02*
X107517500Y-40190000D01*
X105302900Y-33805300D02*
X105302900Y-32647900D01*
X105302900Y-33805300D02*
X104915100Y-34193100D01*
X109187600Y-37690000D02*
X105302900Y-33805300D01*
X101878900Y-33427500D02*
X101878900Y-25972800D01*
X102644500Y-34193100D02*
X101878900Y-33427500D01*
X104600000Y-22100000D02*
X104600000Y-23251700D01*
%TO.N,Board_0-Net-(Q1-B)*%
X103242500Y-41640000D02*
X103242500Y-42152400D01*
X103242500Y-42152400D02*
X104780100Y-43690000D01*
X104780100Y-43690000D02*
X110180000Y-43690000D01*
%TO.N,Board_0-Net-(Q1-E)*%
X102190900Y-42488400D02*
X103242500Y-43540000D01*
X102190900Y-38540000D02*
X103370000Y-38540000D01*
X95502500Y-38247500D02*
X101898400Y-38247500D01*
X101898400Y-38247500D02*
X102190900Y-38540000D01*
X102190900Y-38540000D02*
X102190900Y-42488400D01*
X94330000Y-39420000D02*
X95502500Y-38247500D01*
%TO.N,Board_0-Net-(Q2-B)*%
X109420000Y-33690000D02*
X107370000Y-31640000D01*
X107370000Y-31640000D02*
X103370000Y-31640000D01*
X110180000Y-33690000D02*
X109420000Y-33690000D01*
%TO.N,Board_0-Net-(Q2-E)*%
X103422200Y-33487800D02*
X103370000Y-33540000D01*
X102311500Y-29598500D02*
X102311500Y-32377100D01*
X117190000Y-36880000D02*
X114650000Y-36880000D01*
X102311500Y-32377100D02*
X103422200Y-33487800D01*
X104621200Y-33487800D02*
X103422200Y-33487800D01*
X103370000Y-28540000D02*
X102311500Y-29598500D01*
%TO.N,Board_0-Net-(Q3-B)*%
X104907500Y-38690000D02*
X103370000Y-37152500D01*
X109920000Y-38690000D02*
X104907500Y-38690000D01*
X103370000Y-37152500D02*
X103370000Y-36640000D01*
X110180000Y-38690000D02*
X109920000Y-38690000D01*
%TO.N,Board_0-Net-(Q4-B)*%
X104907600Y-28690000D02*
X110180000Y-28690000D01*
X103370000Y-27152400D02*
X104907600Y-28690000D01*
X103370000Y-26640000D02*
X103370000Y-27152400D01*
%TO.N,Board_0-Net-(U1-GPIO33)*%
X117190000Y-29260000D02*
X115801700Y-30648300D01*
X113498300Y-38011700D02*
X110180000Y-41330000D01*
X115127100Y-35491700D02*
X114396400Y-35491700D01*
X115801700Y-34817100D02*
X115127100Y-35491700D01*
X114396400Y-35491700D02*
X113498300Y-36389800D01*
X113498300Y-36389800D02*
X113498300Y-38011700D01*
X110180000Y-41330000D02*
X110180000Y-41690000D01*
X115801700Y-30648300D02*
X115801700Y-34817100D01*
%TO.N,Board_0-Net-(U1-GPIO35)*%
X114291300Y-27990000D02*
X113091100Y-29190200D01*
X115920000Y-27990000D02*
X114291300Y-27990000D01*
X117190000Y-26720000D02*
X115920000Y-27990000D01*
X113091100Y-33778900D02*
X110180000Y-36690000D01*
X113091100Y-29190200D02*
X113091100Y-33778900D01*
%TO.N,Board_0-Net-(U1-GPIO37)*%
X114260100Y-25450000D02*
X112237600Y-27472500D01*
X117190000Y-24180000D02*
X115920000Y-25450000D01*
X112237600Y-27472500D02*
X112237600Y-29632400D01*
X112237600Y-29632400D02*
X110180000Y-31690000D01*
X115920000Y-25450000D02*
X114260100Y-25450000D01*
%TO.N,Board_0-Net-(U1-GPIO39)*%
X113960000Y-22910000D02*
X110180000Y-26690000D01*
X117190000Y-21640000D02*
X115920000Y-22910000D01*
X115920000Y-22910000D02*
X113960000Y-22910000D01*
%TO.N,Board_1-Net-(J1-Pin_1)*%
X133765000Y-37108500D02*
X133765000Y-37590000D01*
X132643500Y-20936800D02*
X129992400Y-23587900D01*
X132667800Y-36011300D02*
X133765000Y-37108500D01*
X134970800Y-22100000D02*
X133765000Y-23305800D01*
X133848300Y-20936800D02*
X132643500Y-20936800D01*
X135011500Y-22100000D02*
X135052000Y-22100000D01*
X134930000Y-22100000D02*
X134970800Y-22100000D01*
X134970800Y-22100000D02*
X135011500Y-22100000D01*
X135011500Y-22100000D02*
X133848300Y-20936800D01*
X129992400Y-33589200D02*
X132414500Y-36011300D01*
X129992400Y-23587900D02*
X129992400Y-33589200D01*
X135052000Y-22100000D02*
X135660000Y-22100000D01*
X133765000Y-23305800D02*
X133765000Y-27590000D01*
X132414500Y-36011300D02*
X132667800Y-36011300D01*
%TO.N,Board_1-Net-(J1-Pin_2)*%
X130398900Y-33427500D02*
X130398900Y-25972800D01*
X139758200Y-39279800D02*
X139758200Y-38162200D01*
X136037500Y-40190000D02*
X138848000Y-40190000D01*
X139758200Y-38162200D02*
X139286000Y-37690000D01*
X138848000Y-40190000D02*
X139758200Y-39279800D01*
X133637500Y-42590000D02*
X136037500Y-40190000D01*
X133822900Y-33805300D02*
X133822900Y-32647900D01*
X133822900Y-32647900D02*
X133765000Y-32590000D01*
X130398900Y-25972800D02*
X133120000Y-23251700D01*
X133120000Y-22100000D02*
X133120000Y-23251700D01*
X133822900Y-33805300D02*
X133435100Y-34193100D01*
X131164500Y-34193100D02*
X130398900Y-33427500D01*
X137707600Y-37690000D02*
X133822900Y-33805300D01*
X139286000Y-37690000D02*
X137707600Y-37690000D01*
X133435100Y-34193100D02*
X131164500Y-34193100D01*
%TO.N,Board_1-Net-(Q1-B)*%
X131762500Y-42152400D02*
X133300100Y-43690000D01*
X131762500Y-41640000D02*
X131762500Y-42152400D01*
X133300100Y-43690000D02*
X138700000Y-43690000D01*
%TO.N,Board_1-Net-(Q1-E)*%
X130710900Y-38540000D02*
X130710900Y-42488400D01*
X122850000Y-39420000D02*
X124022500Y-38247500D01*
X130710900Y-38540000D02*
X131890000Y-38540000D01*
X130710900Y-42488400D02*
X131762500Y-43540000D01*
X130418400Y-38247500D02*
X130710900Y-38540000D01*
X124022500Y-38247500D02*
X130418400Y-38247500D01*
%TO.N,Board_1-Net-(Q2-B)*%
X137940000Y-33690000D02*
X135890000Y-31640000D01*
X135890000Y-31640000D02*
X131890000Y-31640000D01*
X138700000Y-33690000D02*
X137940000Y-33690000D01*
%TO.N,Board_1-Net-(Q2-E)*%
X130831500Y-29598500D02*
X130831500Y-32377100D01*
X133141200Y-33487800D02*
X131942200Y-33487800D01*
X130831500Y-32377100D02*
X131942200Y-33487800D01*
X131890000Y-28540000D02*
X130831500Y-29598500D01*
X145710000Y-36880000D02*
X143170000Y-36880000D01*
X131942200Y-33487800D02*
X131890000Y-33540000D01*
%TO.N,Board_1-Net-(Q3-B)*%
X138440000Y-38690000D02*
X133427500Y-38690000D01*
X133427500Y-38690000D02*
X131890000Y-37152500D01*
X138700000Y-38690000D02*
X138440000Y-38690000D01*
X131890000Y-37152500D02*
X131890000Y-36640000D01*
%TO.N,Board_1-Net-(Q4-B)*%
X131890000Y-26640000D02*
X131890000Y-27152400D01*
X133427600Y-28690000D02*
X138700000Y-28690000D01*
X131890000Y-27152400D02*
X133427600Y-28690000D01*
%TO.N,Board_1-Net-(U1-GPIO33)*%
X143647100Y-35491700D02*
X142916400Y-35491700D01*
X142916400Y-35491700D02*
X142018300Y-36389800D01*
X138700000Y-41330000D02*
X138700000Y-41690000D01*
X142018300Y-38011700D02*
X138700000Y-41330000D01*
X142018300Y-36389800D02*
X142018300Y-38011700D01*
X145710000Y-29260000D02*
X144321700Y-30648300D01*
X144321700Y-34817100D02*
X143647100Y-35491700D01*
X144321700Y-30648300D02*
X144321700Y-34817100D01*
%TO.N,Board_1-Net-(U1-GPIO35)*%
X142811300Y-27990000D02*
X141611100Y-29190200D01*
X141611100Y-29190200D02*
X141611100Y-33778900D01*
X141611100Y-33778900D02*
X138700000Y-36690000D01*
X145710000Y-26720000D02*
X144440000Y-27990000D01*
X144440000Y-27990000D02*
X142811300Y-27990000D01*
%TO.N,Board_1-Net-(U1-GPIO37)*%
X145710000Y-24180000D02*
X144440000Y-25450000D01*
X144440000Y-25450000D02*
X142780100Y-25450000D01*
X140757600Y-27472500D02*
X140757600Y-29632400D01*
X142780100Y-25450000D02*
X140757600Y-27472500D01*
X140757600Y-29632400D02*
X138700000Y-31690000D01*
%TO.N,Board_1-Net-(U1-GPIO39)*%
X142480000Y-22910000D02*
X138700000Y-26690000D01*
X145710000Y-21640000D02*
X144440000Y-22910000D01*
X144440000Y-22910000D02*
X142480000Y-22910000D01*
%TO.N,Board_2-Net-(J1-Pin_1)*%
X163531500Y-22100000D02*
X163572000Y-22100000D01*
X158512400Y-23587900D02*
X158512400Y-33589200D01*
X163490800Y-22100000D02*
X163531500Y-22100000D01*
X162285000Y-23305800D02*
X162285000Y-27590000D01*
X163572000Y-22100000D02*
X164180000Y-22100000D01*
X163450000Y-22100000D02*
X163490800Y-22100000D01*
X161163500Y-20936800D02*
X158512400Y-23587900D01*
X162285000Y-37108500D02*
X162285000Y-37590000D01*
X160934500Y-36011300D02*
X161187800Y-36011300D01*
X161187800Y-36011300D02*
X162285000Y-37108500D01*
X158512400Y-33589200D02*
X160934500Y-36011300D01*
X162368300Y-20936800D02*
X161163500Y-20936800D01*
X163490800Y-22100000D02*
X162285000Y-23305800D01*
X163531500Y-22100000D02*
X162368300Y-20936800D01*
%TO.N,Board_2-Net-(J1-Pin_2)*%
X162342900Y-33805300D02*
X161955100Y-34193100D01*
X158918900Y-33427500D02*
X158918900Y-25972800D01*
X161640000Y-22100000D02*
X161640000Y-23251700D01*
X159684500Y-34193100D02*
X158918900Y-33427500D01*
X164557500Y-40190000D02*
X167368000Y-40190000D01*
X168278200Y-39279800D02*
X168278200Y-38162200D01*
X158918900Y-25972800D02*
X161640000Y-23251700D01*
X162342900Y-33805300D02*
X162342900Y-32647900D01*
X166227600Y-37690000D02*
X162342900Y-33805300D01*
X167368000Y-40190000D02*
X168278200Y-39279800D01*
X167806000Y-37690000D02*
X166227600Y-37690000D01*
X162157500Y-42590000D02*
X164557500Y-40190000D01*
X168278200Y-38162200D02*
X167806000Y-37690000D01*
X162342900Y-32647900D02*
X162285000Y-32590000D01*
X161955100Y-34193100D02*
X159684500Y-34193100D01*
%TO.N,Board_2-Net-(Q1-B)*%
X160282500Y-41640000D02*
X160282500Y-42152400D01*
X161820100Y-43690000D02*
X167220000Y-43690000D01*
X160282500Y-42152400D02*
X161820100Y-43690000D01*
%TO.N,Board_2-Net-(Q1-E)*%
X159230900Y-42488400D02*
X160282500Y-43540000D01*
X152542500Y-38247500D02*
X158938400Y-38247500D01*
X159230900Y-38540000D02*
X159230900Y-42488400D01*
X151370000Y-39420000D02*
X152542500Y-38247500D01*
X158938400Y-38247500D02*
X159230900Y-38540000D01*
X159230900Y-38540000D02*
X160410000Y-38540000D01*
%TO.N,Board_2-Net-(Q2-B)*%
X166460000Y-33690000D02*
X164410000Y-31640000D01*
X167220000Y-33690000D02*
X166460000Y-33690000D01*
X164410000Y-31640000D02*
X160410000Y-31640000D01*
%TO.N,Board_2-Net-(Q2-E)*%
X159351500Y-29598500D02*
X159351500Y-32377100D01*
X160410000Y-28540000D02*
X159351500Y-29598500D01*
X159351500Y-32377100D02*
X160462200Y-33487800D01*
X161661200Y-33487800D02*
X160462200Y-33487800D01*
X174230000Y-36880000D02*
X171690000Y-36880000D01*
X160462200Y-33487800D02*
X160410000Y-33540000D01*
%TO.N,Board_2-Net-(Q3-B)*%
X161947500Y-38690000D02*
X160410000Y-37152500D01*
X167220000Y-38690000D02*
X166960000Y-38690000D01*
X166960000Y-38690000D02*
X161947500Y-38690000D01*
X160410000Y-37152500D02*
X160410000Y-36640000D01*
%TO.N,Board_2-Net-(Q4-B)*%
X161947600Y-28690000D02*
X167220000Y-28690000D01*
X160410000Y-26640000D02*
X160410000Y-27152400D01*
X160410000Y-27152400D02*
X161947600Y-28690000D01*
%TO.N,Board_2-Net-(U1-GPIO33)*%
X172841700Y-34817100D02*
X172167100Y-35491700D01*
X170538300Y-36389800D02*
X170538300Y-38011700D01*
X171436400Y-35491700D02*
X170538300Y-36389800D01*
X172841700Y-30648300D02*
X172841700Y-34817100D01*
X170538300Y-38011700D02*
X167220000Y-41330000D01*
X167220000Y-41330000D02*
X167220000Y-41690000D01*
X172167100Y-35491700D02*
X171436400Y-35491700D01*
X174230000Y-29260000D02*
X172841700Y-30648300D01*
%TO.N,Board_2-Net-(U1-GPIO35)*%
X170131100Y-29190200D02*
X170131100Y-33778900D01*
X171331300Y-27990000D02*
X170131100Y-29190200D01*
X174230000Y-26720000D02*
X172960000Y-27990000D01*
X170131100Y-33778900D02*
X167220000Y-36690000D01*
X172960000Y-27990000D02*
X171331300Y-27990000D01*
%TO.N,Board_2-Net-(U1-GPIO37)*%
X169277600Y-27472500D02*
X169277600Y-29632400D01*
X171300100Y-25450000D02*
X169277600Y-27472500D01*
X172960000Y-25450000D02*
X171300100Y-25450000D01*
X169277600Y-29632400D02*
X167220000Y-31690000D01*
X174230000Y-24180000D02*
X172960000Y-25450000D01*
%TO.N,Board_2-Net-(U1-GPIO39)*%
X174230000Y-21640000D02*
X172960000Y-22910000D01*
X171000000Y-22910000D02*
X167220000Y-26690000D01*
X172960000Y-22910000D02*
X171000000Y-22910000D01*
%TO.N,Board_3-Net-(J1-Pin_1)*%
X192010800Y-22100000D02*
X192051500Y-22100000D01*
X189683500Y-20936800D02*
X187032400Y-23587900D01*
X192051500Y-22100000D02*
X192092000Y-22100000D01*
X191970000Y-22100000D02*
X192010800Y-22100000D01*
X189454500Y-36011300D02*
X189707800Y-36011300D01*
X187032400Y-23587900D02*
X187032400Y-33589200D01*
X189707800Y-36011300D02*
X190805000Y-37108500D01*
X192092000Y-22100000D02*
X192700000Y-22100000D01*
X190805000Y-23305800D02*
X190805000Y-27590000D01*
X190805000Y-37108500D02*
X190805000Y-37590000D01*
X187032400Y-33589200D02*
X189454500Y-36011300D01*
X192051500Y-22100000D02*
X190888300Y-20936800D01*
X190888300Y-20936800D02*
X189683500Y-20936800D01*
X192010800Y-22100000D02*
X190805000Y-23305800D01*
%TO.N,Board_3-Net-(J1-Pin_2)*%
X194747600Y-37690000D02*
X190862900Y-33805300D01*
X190677500Y-42590000D02*
X193077500Y-40190000D01*
X190862900Y-32647900D02*
X190805000Y-32590000D01*
X193077500Y-40190000D02*
X195888000Y-40190000D01*
X190862900Y-33805300D02*
X190475100Y-34193100D01*
X195888000Y-40190000D02*
X196798200Y-39279800D01*
X196798200Y-38162200D02*
X196326000Y-37690000D01*
X190862900Y-33805300D02*
X190862900Y-32647900D01*
X187438900Y-25972800D02*
X190160000Y-23251700D01*
X190160000Y-22100000D02*
X190160000Y-23251700D01*
X187438900Y-33427500D02*
X187438900Y-25972800D01*
X196798200Y-39279800D02*
X196798200Y-38162200D01*
X196326000Y-37690000D02*
X194747600Y-37690000D01*
X190475100Y-34193100D02*
X188204500Y-34193100D01*
X188204500Y-34193100D02*
X187438900Y-33427500D01*
%TO.N,Board_3-Net-(Q1-B)*%
X188802500Y-42152400D02*
X190340100Y-43690000D01*
X190340100Y-43690000D02*
X195740000Y-43690000D01*
X188802500Y-41640000D02*
X188802500Y-42152400D01*
%TO.N,Board_3-Net-(Q1-E)*%
X187750900Y-38540000D02*
X188930000Y-38540000D01*
X187750900Y-38540000D02*
X187750900Y-42488400D01*
X179890000Y-39420000D02*
X181062500Y-38247500D01*
X181062500Y-38247500D02*
X187458400Y-38247500D01*
X187458400Y-38247500D02*
X187750900Y-38540000D01*
X187750900Y-42488400D02*
X188802500Y-43540000D01*
%TO.N,Board_3-Net-(Q2-B)*%
X194980000Y-33690000D02*
X192930000Y-31640000D01*
X192930000Y-31640000D02*
X188930000Y-31640000D01*
X195740000Y-33690000D02*
X194980000Y-33690000D01*
%TO.N,Board_3-Net-(Q2-E)*%
X187871500Y-32377100D02*
X188982200Y-33487800D01*
X202750000Y-36880000D02*
X200210000Y-36880000D01*
X187871500Y-29598500D02*
X187871500Y-32377100D01*
X188982200Y-33487800D02*
X188930000Y-33540000D01*
X190181200Y-33487800D02*
X188982200Y-33487800D01*
X188930000Y-28540000D02*
X187871500Y-29598500D01*
%TO.N,Board_3-Net-(Q3-B)*%
X195480000Y-38690000D02*
X190467500Y-38690000D01*
X188930000Y-37152500D02*
X188930000Y-36640000D01*
X190467500Y-38690000D02*
X188930000Y-37152500D01*
X195740000Y-38690000D02*
X195480000Y-38690000D01*
%TO.N,Board_3-Net-(Q4-B)*%
X188930000Y-26640000D02*
X188930000Y-27152400D01*
X188930000Y-27152400D02*
X190467600Y-28690000D01*
X190467600Y-28690000D02*
X195740000Y-28690000D01*
%TO.N,Board_3-Net-(U1-GPIO33)*%
X199058300Y-38011700D02*
X195740000Y-41330000D01*
X199956400Y-35491700D02*
X199058300Y-36389800D01*
X199058300Y-36389800D02*
X199058300Y-38011700D01*
X201361700Y-34817100D02*
X200687100Y-35491700D01*
X201361700Y-30648300D02*
X201361700Y-34817100D01*
X202750000Y-29260000D02*
X201361700Y-30648300D01*
X195740000Y-41330000D02*
X195740000Y-41690000D01*
X200687100Y-35491700D02*
X199956400Y-35491700D01*
%TO.N,Board_3-Net-(U1-GPIO35)*%
X198651100Y-29190200D02*
X198651100Y-33778900D01*
X198651100Y-33778900D02*
X195740000Y-36690000D01*
X202750000Y-26720000D02*
X201480000Y-27990000D01*
X199851300Y-27990000D02*
X198651100Y-29190200D01*
X201480000Y-27990000D02*
X199851300Y-27990000D01*
%TO.N,Board_3-Net-(U1-GPIO37)*%
X202750000Y-24180000D02*
X201480000Y-25450000D01*
X201480000Y-25450000D02*
X199820100Y-25450000D01*
X197797600Y-27472500D02*
X197797600Y-29632400D01*
X199820100Y-25450000D02*
X197797600Y-27472500D01*
X197797600Y-29632400D02*
X195740000Y-31690000D01*
%TO.N,Board_3-Net-(U1-GPIO39)*%
X199520000Y-22910000D02*
X195740000Y-26690000D01*
X202750000Y-21640000D02*
X201480000Y-22910000D01*
X201480000Y-22910000D02*
X199520000Y-22910000D01*
%TO.N,Board_4-Net-(J1-Pin_1)*%
X106450800Y-52530000D02*
X106491500Y-52530000D01*
X106450800Y-52530000D02*
X105245000Y-53735800D01*
X105245000Y-53735800D02*
X105245000Y-58020000D01*
X104147800Y-66441300D02*
X105245000Y-67538500D01*
X105328300Y-51366800D02*
X104123500Y-51366800D01*
X103894500Y-66441300D02*
X104147800Y-66441300D01*
X106491500Y-52530000D02*
X106532000Y-52530000D01*
X106491500Y-52530000D02*
X105328300Y-51366800D01*
X104123500Y-51366800D02*
X101472400Y-54017900D01*
X106410000Y-52530000D02*
X106450800Y-52530000D01*
X101472400Y-64019200D02*
X103894500Y-66441300D01*
X101472400Y-54017900D02*
X101472400Y-64019200D01*
X106532000Y-52530000D02*
X107140000Y-52530000D01*
X105245000Y-67538500D02*
X105245000Y-68020000D01*
%TO.N,Board_4-Net-(J1-Pin_2)*%
X102644500Y-64623100D02*
X101878900Y-63857500D01*
X105302900Y-64235300D02*
X104915100Y-64623100D01*
X110328000Y-70620000D02*
X111238200Y-69709800D01*
X101878900Y-63857500D02*
X101878900Y-56402800D01*
X111238200Y-68592200D02*
X110766000Y-68120000D01*
X101878900Y-56402800D02*
X104600000Y-53681700D01*
X104600000Y-52530000D02*
X104600000Y-53681700D01*
X105117500Y-73020000D02*
X107517500Y-70620000D01*
X109187600Y-68120000D02*
X105302900Y-64235300D01*
X105302900Y-63077900D02*
X105245000Y-63020000D01*
X107517500Y-70620000D02*
X110328000Y-70620000D01*
X110766000Y-68120000D02*
X109187600Y-68120000D01*
X111238200Y-69709800D02*
X111238200Y-68592200D01*
X105302900Y-64235300D02*
X105302900Y-63077900D01*
X104915100Y-64623100D02*
X102644500Y-64623100D01*
%TO.N,Board_4-Net-(Q1-B)*%
X104780100Y-74120000D02*
X110180000Y-74120000D01*
X103242500Y-72070000D02*
X103242500Y-72582400D01*
X103242500Y-72582400D02*
X104780100Y-74120000D01*
%TO.N,Board_4-Net-(Q1-E)*%
X102190900Y-72918400D02*
X103242500Y-73970000D01*
X94330000Y-69850000D02*
X95502500Y-68677500D01*
X102190900Y-68970000D02*
X103370000Y-68970000D01*
X95502500Y-68677500D02*
X101898400Y-68677500D01*
X101898400Y-68677500D02*
X102190900Y-68970000D01*
X102190900Y-68970000D02*
X102190900Y-72918400D01*
%TO.N,Board_4-Net-(Q2-B)*%
X109420000Y-64120000D02*
X107370000Y-62070000D01*
X110180000Y-64120000D02*
X109420000Y-64120000D01*
X107370000Y-62070000D02*
X103370000Y-62070000D01*
%TO.N,Board_4-Net-(Q2-E)*%
X104621200Y-63917800D02*
X103422200Y-63917800D01*
X102311500Y-60028500D02*
X102311500Y-62807100D01*
X117190000Y-67310000D02*
X114650000Y-67310000D01*
X103370000Y-58970000D02*
X102311500Y-60028500D01*
X103422200Y-63917800D02*
X103370000Y-63970000D01*
X102311500Y-62807100D02*
X103422200Y-63917800D01*
%TO.N,Board_4-Net-(Q3-B)*%
X109920000Y-69120000D02*
X104907500Y-69120000D01*
X103370000Y-67582500D02*
X103370000Y-67070000D01*
X104907500Y-69120000D02*
X103370000Y-67582500D01*
X110180000Y-69120000D02*
X109920000Y-69120000D01*
%TO.N,Board_4-Net-(Q4-B)*%
X103370000Y-57070000D02*
X103370000Y-57582400D01*
X103370000Y-57582400D02*
X104907600Y-59120000D01*
X104907600Y-59120000D02*
X110180000Y-59120000D01*
%TO.N,Board_4-Net-(U1-GPIO33)*%
X115127100Y-65921700D02*
X114396400Y-65921700D01*
X114396400Y-65921700D02*
X113498300Y-66819800D01*
X113498300Y-68441700D02*
X110180000Y-71760000D01*
X115801700Y-65247100D02*
X115127100Y-65921700D01*
X110180000Y-71760000D02*
X110180000Y-72120000D01*
X113498300Y-66819800D02*
X113498300Y-68441700D01*
X117190000Y-59690000D02*
X115801700Y-61078300D01*
X115801700Y-61078300D02*
X115801700Y-65247100D01*
%TO.N,Board_4-Net-(U1-GPIO35)*%
X117190000Y-57150000D02*
X115920000Y-58420000D01*
X113091100Y-59620200D02*
X113091100Y-64208900D01*
X114291300Y-58420000D02*
X113091100Y-59620200D01*
X113091100Y-64208900D02*
X110180000Y-67120000D01*
X115920000Y-58420000D02*
X114291300Y-58420000D01*
%TO.N,Board_4-Net-(U1-GPIO37)*%
X114260100Y-55880000D02*
X112237600Y-57902500D01*
X112237600Y-57902500D02*
X112237600Y-60062400D01*
X117190000Y-54610000D02*
X115920000Y-55880000D01*
X115920000Y-55880000D02*
X114260100Y-55880000D01*
X112237600Y-60062400D02*
X110180000Y-62120000D01*
%TO.N,Board_4-Net-(U1-GPIO39)*%
X117190000Y-52070000D02*
X115920000Y-53340000D01*
X115920000Y-53340000D02*
X113960000Y-53340000D01*
X113960000Y-53340000D02*
X110180000Y-57120000D01*
%TO.N,Board_5-Net-(J1-Pin_1)*%
X129992400Y-64019200D02*
X132414500Y-66441300D01*
X133848300Y-51366800D02*
X132643500Y-51366800D01*
X132643500Y-51366800D02*
X129992400Y-54017900D01*
X132414500Y-66441300D02*
X132667800Y-66441300D01*
X134970800Y-52530000D02*
X135011500Y-52530000D01*
X135052000Y-52530000D02*
X135660000Y-52530000D01*
X132667800Y-66441300D02*
X133765000Y-67538500D01*
X129992400Y-54017900D02*
X129992400Y-64019200D01*
X134930000Y-52530000D02*
X134970800Y-52530000D01*
X135011500Y-52530000D02*
X135052000Y-52530000D01*
X135011500Y-52530000D02*
X133848300Y-51366800D01*
X133765000Y-67538500D02*
X133765000Y-68020000D01*
X133765000Y-53735800D02*
X133765000Y-58020000D01*
X134970800Y-52530000D02*
X133765000Y-53735800D01*
%TO.N,Board_5-Net-(J1-Pin_2)*%
X133435100Y-64623100D02*
X131164500Y-64623100D01*
X139758200Y-68592200D02*
X139286000Y-68120000D01*
X133637500Y-73020000D02*
X136037500Y-70620000D01*
X130398900Y-63857500D02*
X130398900Y-56402800D01*
X131164500Y-64623100D02*
X130398900Y-63857500D01*
X133822900Y-64235300D02*
X133822900Y-63077900D01*
X136037500Y-70620000D02*
X138848000Y-70620000D01*
X133822900Y-64235300D02*
X133435100Y-64623100D01*
X139286000Y-68120000D02*
X137707600Y-68120000D01*
X133822900Y-63077900D02*
X133765000Y-63020000D01*
X139758200Y-69709800D02*
X139758200Y-68592200D01*
X130398900Y-56402800D02*
X133120000Y-53681700D01*
X137707600Y-68120000D02*
X133822900Y-64235300D01*
X138848000Y-70620000D02*
X139758200Y-69709800D01*
X133120000Y-52530000D02*
X133120000Y-53681700D01*
%TO.N,Board_5-Net-(Q1-B)*%
X131762500Y-72582400D02*
X133300100Y-74120000D01*
X133300100Y-74120000D02*
X138700000Y-74120000D01*
X131762500Y-72070000D02*
X131762500Y-72582400D01*
%TO.N,Board_5-Net-(Q1-E)*%
X130710900Y-68970000D02*
X131890000Y-68970000D01*
X130710900Y-68970000D02*
X130710900Y-72918400D01*
X130710900Y-72918400D02*
X131762500Y-73970000D01*
X124022500Y-68677500D02*
X130418400Y-68677500D01*
X122850000Y-69850000D02*
X124022500Y-68677500D01*
X130418400Y-68677500D02*
X130710900Y-68970000D01*
%TO.N,Board_5-Net-(Q2-B)*%
X135890000Y-62070000D02*
X131890000Y-62070000D01*
X138700000Y-64120000D02*
X137940000Y-64120000D01*
X137940000Y-64120000D02*
X135890000Y-62070000D01*
%TO.N,Board_5-Net-(Q2-E)*%
X133141200Y-63917800D02*
X131942200Y-63917800D01*
X131942200Y-63917800D02*
X131890000Y-63970000D01*
X130831500Y-60028500D02*
X130831500Y-62807100D01*
X130831500Y-62807100D02*
X131942200Y-63917800D01*
X145710000Y-67310000D02*
X143170000Y-67310000D01*
X131890000Y-58970000D02*
X130831500Y-60028500D01*
%TO.N,Board_5-Net-(Q3-B)*%
X138440000Y-69120000D02*
X133427500Y-69120000D01*
X131890000Y-67582500D02*
X131890000Y-67070000D01*
X138700000Y-69120000D02*
X138440000Y-69120000D01*
X133427500Y-69120000D02*
X131890000Y-67582500D01*
%TO.N,Board_5-Net-(Q4-B)*%
X133427600Y-59120000D02*
X138700000Y-59120000D01*
X131890000Y-57070000D02*
X131890000Y-57582400D01*
X131890000Y-57582400D02*
X133427600Y-59120000D01*
%TO.N,Board_5-Net-(U1-GPIO33)*%
X144321700Y-65247100D02*
X143647100Y-65921700D01*
X142916400Y-65921700D02*
X142018300Y-66819800D01*
X143647100Y-65921700D02*
X142916400Y-65921700D01*
X145710000Y-59690000D02*
X144321700Y-61078300D01*
X142018300Y-66819800D02*
X142018300Y-68441700D01*
X142018300Y-68441700D02*
X138700000Y-71760000D01*
X138700000Y-71760000D02*
X138700000Y-72120000D01*
X144321700Y-61078300D02*
X144321700Y-65247100D01*
%TO.N,Board_5-Net-(U1-GPIO35)*%
X142811300Y-58420000D02*
X141611100Y-59620200D01*
X145710000Y-57150000D02*
X144440000Y-58420000D01*
X144440000Y-58420000D02*
X142811300Y-58420000D01*
X141611100Y-64208900D02*
X138700000Y-67120000D01*
X141611100Y-59620200D02*
X141611100Y-64208900D01*
%TO.N,Board_5-Net-(U1-GPIO37)*%
X140757600Y-57902500D02*
X140757600Y-60062400D01*
X140757600Y-60062400D02*
X138700000Y-62120000D01*
X145710000Y-54610000D02*
X144440000Y-55880000D01*
X144440000Y-55880000D02*
X142780100Y-55880000D01*
X142780100Y-55880000D02*
X140757600Y-57902500D01*
%TO.N,Board_5-Net-(U1-GPIO39)*%
X144440000Y-53340000D02*
X142480000Y-53340000D01*
X142480000Y-53340000D02*
X138700000Y-57120000D01*
X145710000Y-52070000D02*
X144440000Y-53340000D01*
%TO.N,Board_6-Net-(J1-Pin_1)*%
X163531500Y-52530000D02*
X163572000Y-52530000D01*
X163490800Y-52530000D02*
X163531500Y-52530000D01*
X163450000Y-52530000D02*
X163490800Y-52530000D01*
X162368300Y-51366800D02*
X161163500Y-51366800D01*
X163490800Y-52530000D02*
X162285000Y-53735800D01*
X163572000Y-52530000D02*
X164180000Y-52530000D01*
X161187800Y-66441300D02*
X162285000Y-67538500D01*
X160934500Y-66441300D02*
X161187800Y-66441300D01*
X158512400Y-64019200D02*
X160934500Y-66441300D01*
X162285000Y-53735800D02*
X162285000Y-58020000D01*
X163531500Y-52530000D02*
X162368300Y-51366800D01*
X161163500Y-51366800D02*
X158512400Y-54017900D01*
X158512400Y-54017900D02*
X158512400Y-64019200D01*
X162285000Y-67538500D02*
X162285000Y-68020000D01*
%TO.N,Board_6-Net-(J1-Pin_2)*%
X158918900Y-63857500D02*
X158918900Y-56402800D01*
X167806000Y-68120000D02*
X166227600Y-68120000D01*
X162342900Y-64235300D02*
X161955100Y-64623100D01*
X166227600Y-68120000D02*
X162342900Y-64235300D01*
X168278200Y-69709800D02*
X168278200Y-68592200D01*
X164557500Y-70620000D02*
X167368000Y-70620000D01*
X161640000Y-52530000D02*
X161640000Y-53681700D01*
X162342900Y-64235300D02*
X162342900Y-63077900D01*
X162157500Y-73020000D02*
X164557500Y-70620000D01*
X159684500Y-64623100D02*
X158918900Y-63857500D01*
X167368000Y-70620000D02*
X168278200Y-69709800D01*
X168278200Y-68592200D02*
X167806000Y-68120000D01*
X158918900Y-56402800D02*
X161640000Y-53681700D01*
X162342900Y-63077900D02*
X162285000Y-63020000D01*
X161955100Y-64623100D02*
X159684500Y-64623100D01*
%TO.N,Board_6-Net-(Q1-B)*%
X161820100Y-74120000D02*
X167220000Y-74120000D01*
X160282500Y-72070000D02*
X160282500Y-72582400D01*
X160282500Y-72582400D02*
X161820100Y-74120000D01*
%TO.N,Board_6-Net-(Q1-E)*%
X159230900Y-72918400D02*
X160282500Y-73970000D01*
X158938400Y-68677500D02*
X159230900Y-68970000D01*
X159230900Y-68970000D02*
X160410000Y-68970000D01*
X152542500Y-68677500D02*
X158938400Y-68677500D01*
X151370000Y-69850000D02*
X152542500Y-68677500D01*
X159230900Y-68970000D02*
X159230900Y-72918400D01*
%TO.N,Board_6-Net-(Q2-B)*%
X164410000Y-62070000D02*
X160410000Y-62070000D01*
X166460000Y-64120000D02*
X164410000Y-62070000D01*
X167220000Y-64120000D02*
X166460000Y-64120000D01*
%TO.N,Board_6-Net-(Q2-E)*%
X159351500Y-60028500D02*
X159351500Y-62807100D01*
X160462200Y-63917800D02*
X160410000Y-63970000D01*
X174230000Y-67310000D02*
X171690000Y-67310000D01*
X159351500Y-62807100D02*
X160462200Y-63917800D01*
X161661200Y-63917800D02*
X160462200Y-63917800D01*
X160410000Y-58970000D02*
X159351500Y-60028500D01*
%TO.N,Board_6-Net-(Q3-B)*%
X166960000Y-69120000D02*
X161947500Y-69120000D01*
X160410000Y-67582500D02*
X160410000Y-67070000D01*
X161947500Y-69120000D02*
X160410000Y-67582500D01*
X167220000Y-69120000D02*
X166960000Y-69120000D01*
%TO.N,Board_6-Net-(Q4-B)*%
X160410000Y-57070000D02*
X160410000Y-57582400D01*
X160410000Y-57582400D02*
X161947600Y-59120000D01*
X161947600Y-59120000D02*
X167220000Y-59120000D01*
%TO.N,Board_6-Net-(U1-GPIO33)*%
X170538300Y-66819800D02*
X170538300Y-68441700D01*
X167220000Y-71760000D02*
X167220000Y-72120000D01*
X172841700Y-65247100D02*
X172167100Y-65921700D01*
X170538300Y-68441700D02*
X167220000Y-71760000D01*
X171436400Y-65921700D02*
X170538300Y-66819800D01*
X174230000Y-59690000D02*
X172841700Y-61078300D01*
X172167100Y-65921700D02*
X171436400Y-65921700D01*
X172841700Y-61078300D02*
X172841700Y-65247100D01*
%TO.N,Board_6-Net-(U1-GPIO35)*%
X171331300Y-58420000D02*
X170131100Y-59620200D01*
X170131100Y-59620200D02*
X170131100Y-64208900D01*
X170131100Y-64208900D02*
X167220000Y-67120000D01*
X174230000Y-57150000D02*
X172960000Y-58420000D01*
X172960000Y-58420000D02*
X171331300Y-58420000D01*
%TO.N,Board_6-Net-(U1-GPIO37)*%
X172960000Y-55880000D02*
X171300100Y-55880000D01*
X169277600Y-60062400D02*
X167220000Y-62120000D01*
X171300100Y-55880000D02*
X169277600Y-57902500D01*
X169277600Y-57902500D02*
X169277600Y-60062400D01*
X174230000Y-54610000D02*
X172960000Y-55880000D01*
%TO.N,Board_6-Net-(U1-GPIO39)*%
X171000000Y-53340000D02*
X167220000Y-57120000D01*
X174230000Y-52070000D02*
X172960000Y-53340000D01*
X172960000Y-53340000D02*
X171000000Y-53340000D01*
%TO.N,Board_7-Net-(J1-Pin_1)*%
X187032400Y-64019200D02*
X189454500Y-66441300D01*
X192051500Y-52530000D02*
X192092000Y-52530000D01*
X192051500Y-52530000D02*
X190888300Y-51366800D01*
X187032400Y-54017900D02*
X187032400Y-64019200D01*
X190805000Y-67538500D02*
X190805000Y-68020000D01*
X192010800Y-52530000D02*
X192051500Y-52530000D01*
X192010800Y-52530000D02*
X190805000Y-53735800D01*
X189683500Y-51366800D02*
X187032400Y-54017900D01*
X190888300Y-51366800D02*
X189683500Y-51366800D01*
X190805000Y-53735800D02*
X190805000Y-58020000D01*
X189454500Y-66441300D02*
X189707800Y-66441300D01*
X192092000Y-52530000D02*
X192700000Y-52530000D01*
X191970000Y-52530000D02*
X192010800Y-52530000D01*
X189707800Y-66441300D02*
X190805000Y-67538500D01*
%TO.N,Board_7-Net-(J1-Pin_2)*%
X194747600Y-68120000D02*
X190862900Y-64235300D01*
X195888000Y-70620000D02*
X196798200Y-69709800D01*
X196798200Y-68592200D02*
X196326000Y-68120000D01*
X193077500Y-70620000D02*
X195888000Y-70620000D01*
X190862900Y-64235300D02*
X190475100Y-64623100D01*
X190862900Y-63077900D02*
X190805000Y-63020000D01*
X187438900Y-56402800D02*
X190160000Y-53681700D01*
X190677500Y-73020000D02*
X193077500Y-70620000D01*
X190475100Y-64623100D02*
X188204500Y-64623100D01*
X196326000Y-68120000D02*
X194747600Y-68120000D01*
X188204500Y-64623100D02*
X187438900Y-63857500D01*
X187438900Y-63857500D02*
X187438900Y-56402800D01*
X190862900Y-64235300D02*
X190862900Y-63077900D01*
X196798200Y-69709800D02*
X196798200Y-68592200D01*
X190160000Y-52530000D02*
X190160000Y-53681700D01*
%TO.N,Board_7-Net-(Q1-B)*%
X190340100Y-74120000D02*
X195740000Y-74120000D01*
X188802500Y-72582400D02*
X190340100Y-74120000D01*
X188802500Y-72070000D02*
X188802500Y-72582400D01*
%TO.N,Board_7-Net-(Q1-E)*%
X179890000Y-69850000D02*
X181062500Y-68677500D01*
X187750900Y-68970000D02*
X187750900Y-72918400D01*
X187458400Y-68677500D02*
X187750900Y-68970000D01*
X181062500Y-68677500D02*
X187458400Y-68677500D01*
X187750900Y-68970000D02*
X188930000Y-68970000D01*
X187750900Y-72918400D02*
X188802500Y-73970000D01*
%TO.N,Board_7-Net-(Q2-B)*%
X195740000Y-64120000D02*
X194980000Y-64120000D01*
X194980000Y-64120000D02*
X192930000Y-62070000D01*
X192930000Y-62070000D02*
X188930000Y-62070000D01*
%TO.N,Board_7-Net-(Q2-E)*%
X202750000Y-67310000D02*
X200210000Y-67310000D01*
X188982200Y-63917800D02*
X188930000Y-63970000D01*
X187871500Y-62807100D02*
X188982200Y-63917800D01*
X187871500Y-60028500D02*
X187871500Y-62807100D01*
X188930000Y-58970000D02*
X187871500Y-60028500D01*
X190181200Y-63917800D02*
X188982200Y-63917800D01*
%TO.N,Board_7-Net-(Q3-B)*%
X188930000Y-67582500D02*
X188930000Y-67070000D01*
X190467500Y-69120000D02*
X188930000Y-67582500D01*
X195480000Y-69120000D02*
X190467500Y-69120000D01*
X195740000Y-69120000D02*
X195480000Y-69120000D01*
%TO.N,Board_7-Net-(Q4-B)*%
X188930000Y-57070000D02*
X188930000Y-57582400D01*
X190467600Y-59120000D02*
X195740000Y-59120000D01*
X188930000Y-57582400D02*
X190467600Y-59120000D01*
%TO.N,Board_7-Net-(U1-GPIO33)*%
X199956400Y-65921700D02*
X199058300Y-66819800D01*
X195740000Y-71760000D02*
X195740000Y-72120000D01*
X201361700Y-61078300D02*
X201361700Y-65247100D01*
X201361700Y-65247100D02*
X200687100Y-65921700D01*
X199058300Y-68441700D02*
X195740000Y-71760000D01*
X200687100Y-65921700D02*
X199956400Y-65921700D01*
X199058300Y-66819800D02*
X199058300Y-68441700D01*
X202750000Y-59690000D02*
X201361700Y-61078300D01*
%TO.N,Board_7-Net-(U1-GPIO35)*%
X199851300Y-58420000D02*
X198651100Y-59620200D01*
X198651100Y-59620200D02*
X198651100Y-64208900D01*
X202750000Y-57150000D02*
X201480000Y-58420000D01*
X198651100Y-64208900D02*
X195740000Y-67120000D01*
X201480000Y-58420000D02*
X199851300Y-58420000D01*
%TO.N,Board_7-Net-(U1-GPIO37)*%
X202750000Y-54610000D02*
X201480000Y-55880000D01*
X197797600Y-57902500D02*
X197797600Y-60062400D01*
X201480000Y-55880000D02*
X199820100Y-55880000D01*
X199820100Y-55880000D02*
X197797600Y-57902500D01*
X197797600Y-60062400D02*
X195740000Y-62120000D01*
%TO.N,Board_7-Net-(U1-GPIO39)*%
X201480000Y-53340000D02*
X199520000Y-53340000D01*
X199520000Y-53340000D02*
X195740000Y-57120000D01*
X202750000Y-52070000D02*
X201480000Y-53340000D01*
%TO.N,Board_8-Net-(J1-Pin_1)*%
X106532000Y-82960000D02*
X107140000Y-82960000D01*
X104147800Y-96871300D02*
X105245000Y-97968500D01*
X105328300Y-81796800D02*
X104123500Y-81796800D01*
X106450800Y-82960000D02*
X105245000Y-84165800D01*
X103894500Y-96871300D02*
X104147800Y-96871300D01*
X101472400Y-84447900D02*
X101472400Y-94449200D01*
X106491500Y-82960000D02*
X106532000Y-82960000D01*
X105245000Y-84165800D02*
X105245000Y-88450000D01*
X101472400Y-94449200D02*
X103894500Y-96871300D01*
X106450800Y-82960000D02*
X106491500Y-82960000D01*
X104123500Y-81796800D02*
X101472400Y-84447900D01*
X105245000Y-97968500D02*
X105245000Y-98450000D01*
X106410000Y-82960000D02*
X106450800Y-82960000D01*
X106491500Y-82960000D02*
X105328300Y-81796800D01*
%TO.N,Board_8-Net-(J1-Pin_2)*%
X109187600Y-98550000D02*
X105302900Y-94665300D01*
X104600000Y-82960000D02*
X104600000Y-84111700D01*
X107517500Y-101050000D02*
X110328000Y-101050000D01*
X111238200Y-100139800D02*
X111238200Y-99022200D01*
X105117500Y-103450000D02*
X107517500Y-101050000D01*
X105302900Y-93507900D02*
X105245000Y-93450000D01*
X111238200Y-99022200D02*
X110766000Y-98550000D01*
X105302900Y-94665300D02*
X105302900Y-93507900D01*
X102644500Y-95053100D02*
X101878900Y-94287500D01*
X101878900Y-86832800D02*
X104600000Y-84111700D01*
X110766000Y-98550000D02*
X109187600Y-98550000D01*
X110328000Y-101050000D02*
X111238200Y-100139800D01*
X105302900Y-94665300D02*
X104915100Y-95053100D01*
X104915100Y-95053100D02*
X102644500Y-95053100D01*
X101878900Y-94287500D02*
X101878900Y-86832800D01*
%TO.N,Board_8-Net-(Q1-B)*%
X103242500Y-103012400D02*
X104780100Y-104550000D01*
X103242500Y-102500000D02*
X103242500Y-103012400D01*
X104780100Y-104550000D02*
X110180000Y-104550000D01*
%TO.N,Board_8-Net-(Q1-E)*%
X102190900Y-99400000D02*
X102190900Y-103348400D01*
X95502500Y-99107500D02*
X101898400Y-99107500D01*
X102190900Y-103348400D02*
X103242500Y-104400000D01*
X102190900Y-99400000D02*
X103370000Y-99400000D01*
X94330000Y-100280000D02*
X95502500Y-99107500D01*
X101898400Y-99107500D02*
X102190900Y-99400000D01*
%TO.N,Board_8-Net-(Q2-B)*%
X109420000Y-94550000D02*
X107370000Y-92500000D01*
X110180000Y-94550000D02*
X109420000Y-94550000D01*
X107370000Y-92500000D02*
X103370000Y-92500000D01*
%TO.N,Board_8-Net-(Q2-E)*%
X102311500Y-90458500D02*
X102311500Y-93237100D01*
X104621200Y-94347800D02*
X103422200Y-94347800D01*
X103422200Y-94347800D02*
X103370000Y-94400000D01*
X117190000Y-97740000D02*
X114650000Y-97740000D01*
X103370000Y-89400000D02*
X102311500Y-90458500D01*
X102311500Y-93237100D02*
X103422200Y-94347800D01*
%TO.N,Board_8-Net-(Q3-B)*%
X104907500Y-99550000D02*
X103370000Y-98012500D01*
X103370000Y-98012500D02*
X103370000Y-97500000D01*
X109920000Y-99550000D02*
X104907500Y-99550000D01*
X110180000Y-99550000D02*
X109920000Y-99550000D01*
%TO.N,Board_8-Net-(Q4-B)*%
X103370000Y-88012400D02*
X104907600Y-89550000D01*
X104907600Y-89550000D02*
X110180000Y-89550000D01*
X103370000Y-87500000D02*
X103370000Y-88012400D01*
%TO.N,Board_8-Net-(U1-GPIO33)*%
X110180000Y-102190000D02*
X110180000Y-102550000D01*
X113498300Y-98871700D02*
X110180000Y-102190000D01*
X115801700Y-91508300D02*
X115801700Y-95677100D01*
X115127100Y-96351700D02*
X114396400Y-96351700D01*
X114396400Y-96351700D02*
X113498300Y-97249800D01*
X117190000Y-90120000D02*
X115801700Y-91508300D01*
X113498300Y-97249800D02*
X113498300Y-98871700D01*
X115801700Y-95677100D02*
X115127100Y-96351700D01*
%TO.N,Board_8-Net-(U1-GPIO35)*%
X115920000Y-88850000D02*
X114291300Y-88850000D01*
X113091100Y-90050200D02*
X113091100Y-94638900D01*
X113091100Y-94638900D02*
X110180000Y-97550000D01*
X114291300Y-88850000D02*
X113091100Y-90050200D01*
X117190000Y-87580000D02*
X115920000Y-88850000D01*
%TO.N,Board_8-Net-(U1-GPIO37)*%
X117190000Y-85040000D02*
X115920000Y-86310000D01*
X115920000Y-86310000D02*
X114260100Y-86310000D01*
X114260100Y-86310000D02*
X112237600Y-88332500D01*
X112237600Y-90492400D02*
X110180000Y-92550000D01*
X112237600Y-88332500D02*
X112237600Y-90492400D01*
%TO.N,Board_8-Net-(U1-GPIO39)*%
X117190000Y-82500000D02*
X115920000Y-83770000D01*
X115920000Y-83770000D02*
X113960000Y-83770000D01*
X113960000Y-83770000D02*
X110180000Y-87550000D01*
%TO.N,Board_9-Net-(J1-Pin_1)*%
X134970800Y-82960000D02*
X135011500Y-82960000D01*
X135052000Y-82960000D02*
X135660000Y-82960000D01*
X134930000Y-82960000D02*
X134970800Y-82960000D01*
X129992400Y-84447900D02*
X129992400Y-94449200D01*
X135011500Y-82960000D02*
X133848300Y-81796800D01*
X133765000Y-97968500D02*
X133765000Y-98450000D01*
X133848300Y-81796800D02*
X132643500Y-81796800D01*
X132667800Y-96871300D02*
X133765000Y-97968500D01*
X129992400Y-94449200D02*
X132414500Y-96871300D01*
X134970800Y-82960000D02*
X133765000Y-84165800D01*
X135011500Y-82960000D02*
X135052000Y-82960000D01*
X132643500Y-81796800D02*
X129992400Y-84447900D01*
X133765000Y-84165800D02*
X133765000Y-88450000D01*
X132414500Y-96871300D02*
X132667800Y-96871300D01*
%TO.N,Board_9-Net-(J1-Pin_2)*%
X136037500Y-101050000D02*
X138848000Y-101050000D01*
X133822900Y-94665300D02*
X133822900Y-93507900D01*
X133120000Y-82960000D02*
X133120000Y-84111700D01*
X137707600Y-98550000D02*
X133822900Y-94665300D01*
X133637500Y-103450000D02*
X136037500Y-101050000D01*
X130398900Y-94287500D02*
X130398900Y-86832800D01*
X133822900Y-94665300D02*
X133435100Y-95053100D01*
X138848000Y-101050000D02*
X139758200Y-100139800D01*
X130398900Y-86832800D02*
X133120000Y-84111700D01*
X139286000Y-98550000D02*
X137707600Y-98550000D01*
X133435100Y-95053100D02*
X131164500Y-95053100D01*
X133822900Y-93507900D02*
X133765000Y-93450000D01*
X139758200Y-99022200D02*
X139286000Y-98550000D01*
X131164500Y-95053100D02*
X130398900Y-94287500D01*
X139758200Y-100139800D02*
X139758200Y-99022200D01*
%TO.N,Board_9-Net-(Q1-B)*%
X133300100Y-104550000D02*
X138700000Y-104550000D01*
X131762500Y-103012400D02*
X133300100Y-104550000D01*
X131762500Y-102500000D02*
X131762500Y-103012400D01*
%TO.N,Board_9-Net-(Q1-E)*%
X130710900Y-103348400D02*
X131762500Y-104400000D01*
X130418400Y-99107500D02*
X130710900Y-99400000D01*
X130710900Y-99400000D02*
X130710900Y-103348400D01*
X124022500Y-99107500D02*
X130418400Y-99107500D01*
X122850000Y-100280000D02*
X124022500Y-99107500D01*
X130710900Y-99400000D02*
X131890000Y-99400000D01*
%TO.N,Board_9-Net-(Q2-B)*%
X138700000Y-94550000D02*
X137940000Y-94550000D01*
X137940000Y-94550000D02*
X135890000Y-92500000D01*
X135890000Y-92500000D02*
X131890000Y-92500000D01*
%TO.N,Board_9-Net-(Q2-E)*%
X131890000Y-89400000D02*
X130831500Y-90458500D01*
X145710000Y-97740000D02*
X143170000Y-97740000D01*
X130831500Y-93237100D02*
X131942200Y-94347800D01*
X131942200Y-94347800D02*
X131890000Y-94400000D01*
X130831500Y-90458500D02*
X130831500Y-93237100D01*
X133141200Y-94347800D02*
X131942200Y-94347800D01*
%TO.N,Board_9-Net-(Q3-B)*%
X138440000Y-99550000D02*
X133427500Y-99550000D01*
X138700000Y-99550000D02*
X138440000Y-99550000D01*
X131890000Y-98012500D02*
X131890000Y-97500000D01*
X133427500Y-99550000D02*
X131890000Y-98012500D01*
%TO.N,Board_9-Net-(Q4-B)*%
X131890000Y-88012400D02*
X133427600Y-89550000D01*
X133427600Y-89550000D02*
X138700000Y-89550000D01*
X131890000Y-87500000D02*
X131890000Y-88012400D01*
%TO.N,Board_9-Net-(U1-GPIO33)*%
X142018300Y-97249800D02*
X142018300Y-98871700D01*
X145710000Y-90120000D02*
X144321700Y-91508300D01*
X143647100Y-96351700D02*
X142916400Y-96351700D01*
X144321700Y-95677100D02*
X143647100Y-96351700D01*
X142916400Y-96351700D02*
X142018300Y-97249800D01*
X142018300Y-98871700D02*
X138700000Y-102190000D01*
X144321700Y-91508300D02*
X144321700Y-95677100D01*
X138700000Y-102190000D02*
X138700000Y-102550000D01*
%TO.N,Board_9-Net-(U1-GPIO35)*%
X141611100Y-94638900D02*
X138700000Y-97550000D01*
X144440000Y-88850000D02*
X142811300Y-88850000D01*
X142811300Y-88850000D02*
X141611100Y-90050200D01*
X141611100Y-90050200D02*
X141611100Y-94638900D01*
X145710000Y-87580000D02*
X144440000Y-88850000D01*
%TO.N,Board_9-Net-(U1-GPIO37)*%
X140757600Y-88332500D02*
X140757600Y-90492400D01*
X145710000Y-85040000D02*
X144440000Y-86310000D01*
X140757600Y-90492400D02*
X138700000Y-92550000D01*
X144440000Y-86310000D02*
X142780100Y-86310000D01*
X142780100Y-86310000D02*
X140757600Y-88332500D01*
%TO.N,Board_9-Net-(U1-GPIO39)*%
X145710000Y-82500000D02*
X144440000Y-83770000D01*
X142480000Y-83770000D02*
X138700000Y-87550000D01*
X144440000Y-83770000D02*
X142480000Y-83770000D01*
%TO.N,Board_10-Net-(J1-Pin_1)*%
X161187800Y-96871300D02*
X162285000Y-97968500D01*
X161163500Y-81796800D02*
X158512400Y-84447900D01*
X163490800Y-82960000D02*
X162285000Y-84165800D01*
X158512400Y-94449200D02*
X160934500Y-96871300D01*
X162368300Y-81796800D02*
X161163500Y-81796800D01*
X163572000Y-82960000D02*
X164180000Y-82960000D01*
X160934500Y-96871300D02*
X161187800Y-96871300D01*
X163531500Y-82960000D02*
X162368300Y-81796800D01*
X163450000Y-82960000D02*
X163490800Y-82960000D01*
X163490800Y-82960000D02*
X163531500Y-82960000D01*
X162285000Y-84165800D02*
X162285000Y-88450000D01*
X163531500Y-82960000D02*
X163572000Y-82960000D01*
X162285000Y-97968500D02*
X162285000Y-98450000D01*
X158512400Y-84447900D02*
X158512400Y-94449200D01*
%TO.N,Board_10-Net-(J1-Pin_2)*%
X162342900Y-93507900D02*
X162285000Y-93450000D01*
X164557500Y-101050000D02*
X167368000Y-101050000D01*
X159684500Y-95053100D02*
X158918900Y-94287500D01*
X166227600Y-98550000D02*
X162342900Y-94665300D01*
X158918900Y-94287500D02*
X158918900Y-86832800D01*
X167806000Y-98550000D02*
X166227600Y-98550000D01*
X167368000Y-101050000D02*
X168278200Y-100139800D01*
X162342900Y-94665300D02*
X162342900Y-93507900D01*
X168278200Y-99022200D02*
X167806000Y-98550000D01*
X158918900Y-86832800D02*
X161640000Y-84111700D01*
X161640000Y-82960000D02*
X161640000Y-84111700D01*
X162342900Y-94665300D02*
X161955100Y-95053100D01*
X168278200Y-100139800D02*
X168278200Y-99022200D01*
X162157500Y-103450000D02*
X164557500Y-101050000D01*
X161955100Y-95053100D02*
X159684500Y-95053100D01*
%TO.N,Board_10-Net-(Q1-B)*%
X160282500Y-103012400D02*
X161820100Y-104550000D01*
X160282500Y-102500000D02*
X160282500Y-103012400D01*
X161820100Y-104550000D02*
X167220000Y-104550000D01*
%TO.N,Board_10-Net-(Q1-E)*%
X151370000Y-100280000D02*
X152542500Y-99107500D01*
X159230900Y-99400000D02*
X159230900Y-103348400D01*
X152542500Y-99107500D02*
X158938400Y-99107500D01*
X158938400Y-99107500D02*
X159230900Y-99400000D01*
X159230900Y-103348400D02*
X160282500Y-104400000D01*
X159230900Y-99400000D02*
X160410000Y-99400000D01*
%TO.N,Board_10-Net-(Q2-B)*%
X167220000Y-94550000D02*
X166460000Y-94550000D01*
X166460000Y-94550000D02*
X164410000Y-92500000D01*
X164410000Y-92500000D02*
X160410000Y-92500000D01*
%TO.N,Board_10-Net-(Q2-E)*%
X159351500Y-93237100D02*
X160462200Y-94347800D01*
X160462200Y-94347800D02*
X160410000Y-94400000D01*
X160410000Y-89400000D02*
X159351500Y-90458500D01*
X159351500Y-90458500D02*
X159351500Y-93237100D01*
X161661200Y-94347800D02*
X160462200Y-94347800D01*
X174230000Y-97740000D02*
X171690000Y-97740000D01*
%TO.N,Board_10-Net-(Q3-B)*%
X166960000Y-99550000D02*
X161947500Y-99550000D01*
X160410000Y-98012500D02*
X160410000Y-97500000D01*
X161947500Y-99550000D02*
X160410000Y-98012500D01*
X167220000Y-99550000D02*
X166960000Y-99550000D01*
%TO.N,Board_10-Net-(Q4-B)*%
X160410000Y-87500000D02*
X160410000Y-88012400D01*
X161947600Y-89550000D02*
X167220000Y-89550000D01*
X160410000Y-88012400D02*
X161947600Y-89550000D01*
%TO.N,Board_10-Net-(U1-GPIO33)*%
X167220000Y-102190000D02*
X167220000Y-102550000D01*
X170538300Y-98871700D02*
X167220000Y-102190000D01*
X170538300Y-97249800D02*
X170538300Y-98871700D01*
X172167100Y-96351700D02*
X171436400Y-96351700D01*
X171436400Y-96351700D02*
X170538300Y-97249800D01*
X172841700Y-95677100D02*
X172167100Y-96351700D01*
X174230000Y-90120000D02*
X172841700Y-91508300D01*
X172841700Y-91508300D02*
X172841700Y-95677100D01*
%TO.N,Board_10-Net-(U1-GPIO35)*%
X174230000Y-87580000D02*
X172960000Y-88850000D01*
X170131100Y-90050200D02*
X170131100Y-94638900D01*
X171331300Y-88850000D02*
X170131100Y-90050200D01*
X170131100Y-94638900D02*
X167220000Y-97550000D01*
X172960000Y-88850000D02*
X171331300Y-88850000D01*
%TO.N,Board_10-Net-(U1-GPIO37)*%
X172960000Y-86310000D02*
X171300100Y-86310000D01*
X169277600Y-90492400D02*
X167220000Y-92550000D01*
X169277600Y-88332500D02*
X169277600Y-90492400D01*
X174230000Y-85040000D02*
X172960000Y-86310000D01*
X171300100Y-86310000D02*
X169277600Y-88332500D01*
%TO.N,Board_10-Net-(U1-GPIO39)*%
X171000000Y-83770000D02*
X167220000Y-87550000D01*
X174230000Y-82500000D02*
X172960000Y-83770000D01*
X172960000Y-83770000D02*
X171000000Y-83770000D01*
%TO.N,Board_11-Net-(J1-Pin_1)*%
X187032400Y-84447900D02*
X187032400Y-94449200D01*
X192010800Y-82960000D02*
X190805000Y-84165800D01*
X190888300Y-81796800D02*
X189683500Y-81796800D01*
X191970000Y-82960000D02*
X192010800Y-82960000D01*
X189454500Y-96871300D02*
X189707800Y-96871300D01*
X187032400Y-94449200D02*
X189454500Y-96871300D01*
X189683500Y-81796800D02*
X187032400Y-84447900D01*
X189707800Y-96871300D02*
X190805000Y-97968500D01*
X190805000Y-84165800D02*
X190805000Y-88450000D01*
X190805000Y-97968500D02*
X190805000Y-98450000D01*
X192010800Y-82960000D02*
X192051500Y-82960000D01*
X192051500Y-82960000D02*
X192092000Y-82960000D01*
X192092000Y-82960000D02*
X192700000Y-82960000D01*
X192051500Y-82960000D02*
X190888300Y-81796800D01*
%TO.N,Board_11-Net-(J1-Pin_2)*%
X187438900Y-86832800D02*
X190160000Y-84111700D01*
X190862900Y-94665300D02*
X190475100Y-95053100D01*
X190862900Y-94665300D02*
X190862900Y-93507900D01*
X196798200Y-99022200D02*
X196326000Y-98550000D01*
X196798200Y-100139800D02*
X196798200Y-99022200D01*
X194747600Y-98550000D02*
X190862900Y-94665300D01*
X188204500Y-95053100D02*
X187438900Y-94287500D01*
X190677500Y-103450000D02*
X193077500Y-101050000D01*
X190862900Y-93507900D02*
X190805000Y-93450000D01*
X196326000Y-98550000D02*
X194747600Y-98550000D01*
X193077500Y-101050000D02*
X195888000Y-101050000D01*
X190160000Y-82960000D02*
X190160000Y-84111700D01*
X195888000Y-101050000D02*
X196798200Y-100139800D01*
X187438900Y-94287500D02*
X187438900Y-86832800D01*
X190475100Y-95053100D02*
X188204500Y-95053100D01*
%TO.N,Board_11-Net-(Q1-B)*%
X190340100Y-104550000D02*
X195740000Y-104550000D01*
X188802500Y-103012400D02*
X190340100Y-104550000D01*
X188802500Y-102500000D02*
X188802500Y-103012400D01*
%TO.N,Board_11-Net-(Q1-E)*%
X187750900Y-103348400D02*
X188802500Y-104400000D01*
X179890000Y-100280000D02*
X181062500Y-99107500D01*
X187750900Y-99400000D02*
X187750900Y-103348400D01*
X181062500Y-99107500D02*
X187458400Y-99107500D01*
X187458400Y-99107500D02*
X187750900Y-99400000D01*
X187750900Y-99400000D02*
X188930000Y-99400000D01*
%TO.N,Board_11-Net-(Q2-B)*%
X194980000Y-94550000D02*
X192930000Y-92500000D01*
X192930000Y-92500000D02*
X188930000Y-92500000D01*
X195740000Y-94550000D02*
X194980000Y-94550000D01*
%TO.N,Board_11-Net-(Q2-E)*%
X188982200Y-94347800D02*
X188930000Y-94400000D01*
X190181200Y-94347800D02*
X188982200Y-94347800D01*
X187871500Y-93237100D02*
X188982200Y-94347800D01*
X187871500Y-90458500D02*
X187871500Y-93237100D01*
X202750000Y-97740000D02*
X200210000Y-97740000D01*
X188930000Y-89400000D02*
X187871500Y-90458500D01*
%TO.N,Board_11-Net-(Q3-B)*%
X190467500Y-99550000D02*
X188930000Y-98012500D01*
X195740000Y-99550000D02*
X195480000Y-99550000D01*
X188930000Y-98012500D02*
X188930000Y-97500000D01*
X195480000Y-99550000D02*
X190467500Y-99550000D01*
%TO.N,Board_11-Net-(Q4-B)*%
X188930000Y-87500000D02*
X188930000Y-88012400D01*
X190467600Y-89550000D02*
X195740000Y-89550000D01*
X188930000Y-88012400D02*
X190467600Y-89550000D01*
%TO.N,Board_11-Net-(U1-GPIO33)*%
X202750000Y-90120000D02*
X201361700Y-91508300D01*
X201361700Y-95677100D02*
X200687100Y-96351700D01*
X195740000Y-102190000D02*
X195740000Y-102550000D01*
X201361700Y-91508300D02*
X201361700Y-95677100D01*
X199956400Y-96351700D02*
X199058300Y-97249800D01*
X199058300Y-98871700D02*
X195740000Y-102190000D01*
X200687100Y-96351700D02*
X199956400Y-96351700D01*
X199058300Y-97249800D02*
X199058300Y-98871700D01*
%TO.N,Board_11-Net-(U1-GPIO35)*%
X201480000Y-88850000D02*
X199851300Y-88850000D01*
X199851300Y-88850000D02*
X198651100Y-90050200D01*
X198651100Y-94638900D02*
X195740000Y-97550000D01*
X202750000Y-87580000D02*
X201480000Y-88850000D01*
X198651100Y-90050200D02*
X198651100Y-94638900D01*
%TO.N,Board_11-Net-(U1-GPIO37)*%
X197797600Y-88332500D02*
X197797600Y-90492400D01*
X199820100Y-86310000D02*
X197797600Y-88332500D01*
X197797600Y-90492400D02*
X195740000Y-92550000D01*
X202750000Y-85040000D02*
X201480000Y-86310000D01*
X201480000Y-86310000D02*
X199820100Y-86310000D01*
%TO.N,Board_11-Net-(U1-GPIO39)*%
X199520000Y-83770000D02*
X195740000Y-87550000D01*
X202750000Y-82500000D02*
X201480000Y-83770000D01*
X201480000Y-83770000D02*
X199520000Y-83770000D01*
%TO.N,Board_12-Net-(J1-Pin_1)*%
X104147800Y-127301300D02*
X105245000Y-128398500D01*
X101472400Y-114877900D02*
X101472400Y-124879200D01*
X104123500Y-112226800D02*
X101472400Y-114877900D01*
X105328300Y-112226800D02*
X104123500Y-112226800D01*
X106450800Y-113390000D02*
X105245000Y-114595800D01*
X106491500Y-113390000D02*
X106532000Y-113390000D01*
X106491500Y-113390000D02*
X105328300Y-112226800D01*
X105245000Y-128398500D02*
X105245000Y-128880000D01*
X101472400Y-124879200D02*
X103894500Y-127301300D01*
X103894500Y-127301300D02*
X104147800Y-127301300D01*
X106410000Y-113390000D02*
X106450800Y-113390000D01*
X106450800Y-113390000D02*
X106491500Y-113390000D01*
X106532000Y-113390000D02*
X107140000Y-113390000D01*
X105245000Y-114595800D02*
X105245000Y-118880000D01*
%TO.N,Board_12-Net-(J1-Pin_2)*%
X105117500Y-133880000D02*
X107517500Y-131480000D01*
X104915100Y-125483100D02*
X102644500Y-125483100D01*
X102644500Y-125483100D02*
X101878900Y-124717500D01*
X104600000Y-113390000D02*
X104600000Y-114541700D01*
X111238200Y-130569800D02*
X111238200Y-129452200D01*
X111238200Y-129452200D02*
X110766000Y-128980000D01*
X101878900Y-117262800D02*
X104600000Y-114541700D01*
X105302900Y-123937900D02*
X105245000Y-123880000D01*
X105302900Y-125095300D02*
X105302900Y-123937900D01*
X110766000Y-128980000D02*
X109187600Y-128980000D01*
X101878900Y-124717500D02*
X101878900Y-117262800D01*
X107517500Y-131480000D02*
X110328000Y-131480000D01*
X109187600Y-128980000D02*
X105302900Y-125095300D01*
X105302900Y-125095300D02*
X104915100Y-125483100D01*
X110328000Y-131480000D02*
X111238200Y-130569800D01*
%TO.N,Board_12-Net-(Q1-B)*%
X103242500Y-133442400D02*
X104780100Y-134980000D01*
X103242500Y-132930000D02*
X103242500Y-133442400D01*
X104780100Y-134980000D02*
X110180000Y-134980000D01*
%TO.N,Board_12-Net-(Q1-E)*%
X102190900Y-129830000D02*
X102190900Y-133778400D01*
X95502500Y-129537500D02*
X101898400Y-129537500D01*
X94330000Y-130710000D02*
X95502500Y-129537500D01*
X102190900Y-129830000D02*
X103370000Y-129830000D01*
X102190900Y-133778400D02*
X103242500Y-134830000D01*
X101898400Y-129537500D02*
X102190900Y-129830000D01*
%TO.N,Board_12-Net-(Q2-B)*%
X110180000Y-124980000D02*
X109420000Y-124980000D01*
X107370000Y-122930000D02*
X103370000Y-122930000D01*
X109420000Y-124980000D02*
X107370000Y-122930000D01*
%TO.N,Board_12-Net-(Q2-E)*%
X103422200Y-124777800D02*
X103370000Y-124830000D01*
X102311500Y-120888500D02*
X102311500Y-123667100D01*
X117190000Y-128170000D02*
X114650000Y-128170000D01*
X103370000Y-119830000D02*
X102311500Y-120888500D01*
X104621200Y-124777800D02*
X103422200Y-124777800D01*
X102311500Y-123667100D02*
X103422200Y-124777800D01*
%TO.N,Board_12-Net-(Q3-B)*%
X109920000Y-129980000D02*
X104907500Y-129980000D01*
X103370000Y-128442500D02*
X103370000Y-127930000D01*
X110180000Y-129980000D02*
X109920000Y-129980000D01*
X104907500Y-129980000D02*
X103370000Y-128442500D01*
%TO.N,Board_12-Net-(Q4-B)*%
X103370000Y-117930000D02*
X103370000Y-118442400D01*
X103370000Y-118442400D02*
X104907600Y-119980000D01*
X104907600Y-119980000D02*
X110180000Y-119980000D01*
%TO.N,Board_12-Net-(U1-GPIO33)*%
X114396400Y-126781700D02*
X113498300Y-127679800D01*
X113498300Y-129301700D02*
X110180000Y-132620000D01*
X115801700Y-126107100D02*
X115127100Y-126781700D01*
X115127100Y-126781700D02*
X114396400Y-126781700D01*
X115801700Y-121938300D02*
X115801700Y-126107100D01*
X110180000Y-132620000D02*
X110180000Y-132980000D01*
X117190000Y-120550000D02*
X115801700Y-121938300D01*
X113498300Y-127679800D02*
X113498300Y-129301700D01*
%TO.N,Board_12-Net-(U1-GPIO35)*%
X115920000Y-119280000D02*
X114291300Y-119280000D01*
X114291300Y-119280000D02*
X113091100Y-120480200D01*
X113091100Y-120480200D02*
X113091100Y-125068900D01*
X113091100Y-125068900D02*
X110180000Y-127980000D01*
X117190000Y-118010000D02*
X115920000Y-119280000D01*
%TO.N,Board_12-Net-(U1-GPIO37)*%
X117190000Y-115470000D02*
X115920000Y-116740000D01*
X112237600Y-118762500D02*
X112237600Y-120922400D01*
X112237600Y-120922400D02*
X110180000Y-122980000D01*
X114260100Y-116740000D02*
X112237600Y-118762500D01*
X115920000Y-116740000D02*
X114260100Y-116740000D01*
%TO.N,Board_12-Net-(U1-GPIO39)*%
X113960000Y-114200000D02*
X110180000Y-117980000D01*
X117190000Y-112930000D02*
X115920000Y-114200000D01*
X115920000Y-114200000D02*
X113960000Y-114200000D01*
%TO.N,Board_13-Net-(J1-Pin_1)*%
X134970800Y-113390000D02*
X133765000Y-114595800D01*
X133765000Y-128398500D02*
X133765000Y-128880000D01*
X134930000Y-113390000D02*
X134970800Y-113390000D01*
X132643500Y-112226800D02*
X129992400Y-114877900D01*
X129992400Y-114877900D02*
X129992400Y-124879200D01*
X133765000Y-114595800D02*
X133765000Y-118880000D01*
X135011500Y-113390000D02*
X135052000Y-113390000D01*
X132414500Y-127301300D02*
X132667800Y-127301300D01*
X135052000Y-113390000D02*
X135660000Y-113390000D01*
X129992400Y-124879200D02*
X132414500Y-127301300D01*
X134970800Y-113390000D02*
X135011500Y-113390000D01*
X135011500Y-113390000D02*
X133848300Y-112226800D01*
X133848300Y-112226800D02*
X132643500Y-112226800D01*
X132667800Y-127301300D02*
X133765000Y-128398500D01*
%TO.N,Board_13-Net-(J1-Pin_2)*%
X133822900Y-123937900D02*
X133765000Y-123880000D01*
X133120000Y-113390000D02*
X133120000Y-114541700D01*
X137707600Y-128980000D02*
X133822900Y-125095300D01*
X130398900Y-117262800D02*
X133120000Y-114541700D01*
X139286000Y-128980000D02*
X137707600Y-128980000D01*
X133822900Y-125095300D02*
X133435100Y-125483100D01*
X139758200Y-130569800D02*
X139758200Y-129452200D01*
X133435100Y-125483100D02*
X131164500Y-125483100D01*
X133637500Y-133880000D02*
X136037500Y-131480000D01*
X133822900Y-125095300D02*
X133822900Y-123937900D01*
X131164500Y-125483100D02*
X130398900Y-124717500D01*
X136037500Y-131480000D02*
X138848000Y-131480000D01*
X130398900Y-124717500D02*
X130398900Y-117262800D01*
X139758200Y-129452200D02*
X139286000Y-128980000D01*
X138848000Y-131480000D02*
X139758200Y-130569800D01*
%TO.N,Board_13-Net-(Q1-B)*%
X131762500Y-132930000D02*
X131762500Y-133442400D01*
X131762500Y-133442400D02*
X133300100Y-134980000D01*
X133300100Y-134980000D02*
X138700000Y-134980000D01*
%TO.N,Board_13-Net-(Q1-E)*%
X122850000Y-130710000D02*
X124022500Y-129537500D01*
X124022500Y-129537500D02*
X130418400Y-129537500D01*
X130710900Y-129830000D02*
X131890000Y-129830000D01*
X130418400Y-129537500D02*
X130710900Y-129830000D01*
X130710900Y-133778400D02*
X131762500Y-134830000D01*
X130710900Y-129830000D02*
X130710900Y-133778400D01*
%TO.N,Board_13-Net-(Q2-B)*%
X135890000Y-122930000D02*
X131890000Y-122930000D01*
X137940000Y-124980000D02*
X135890000Y-122930000D01*
X138700000Y-124980000D02*
X137940000Y-124980000D01*
%TO.N,Board_13-Net-(Q2-E)*%
X130831500Y-120888500D02*
X130831500Y-123667100D01*
X130831500Y-123667100D02*
X131942200Y-124777800D01*
X133141200Y-124777800D02*
X131942200Y-124777800D01*
X145710000Y-128170000D02*
X143170000Y-128170000D01*
X131890000Y-119830000D02*
X130831500Y-120888500D01*
X131942200Y-124777800D02*
X131890000Y-124830000D01*
%TO.N,Board_13-Net-(Q3-B)*%
X133427500Y-129980000D02*
X131890000Y-128442500D01*
X131890000Y-128442500D02*
X131890000Y-127930000D01*
X138440000Y-129980000D02*
X133427500Y-129980000D01*
X138700000Y-129980000D02*
X138440000Y-129980000D01*
%TO.N,Board_13-Net-(Q4-B)*%
X131890000Y-118442400D02*
X133427600Y-119980000D01*
X131890000Y-117930000D02*
X131890000Y-118442400D01*
X133427600Y-119980000D02*
X138700000Y-119980000D01*
%TO.N,Board_13-Net-(U1-GPIO33)*%
X142018300Y-129301700D02*
X138700000Y-132620000D01*
X144321700Y-126107100D02*
X143647100Y-126781700D01*
X142018300Y-127679800D02*
X142018300Y-129301700D01*
X138700000Y-132620000D02*
X138700000Y-132980000D01*
X145710000Y-120550000D02*
X144321700Y-121938300D01*
X142916400Y-126781700D02*
X142018300Y-127679800D01*
X144321700Y-121938300D02*
X144321700Y-126107100D01*
X143647100Y-126781700D02*
X142916400Y-126781700D01*
%TO.N,Board_13-Net-(U1-GPIO35)*%
X145710000Y-118010000D02*
X144440000Y-119280000D01*
X144440000Y-119280000D02*
X142811300Y-119280000D01*
X141611100Y-120480200D02*
X141611100Y-125068900D01*
X142811300Y-119280000D02*
X141611100Y-120480200D01*
X141611100Y-125068900D02*
X138700000Y-127980000D01*
%TO.N,Board_13-Net-(U1-GPIO37)*%
X140757600Y-118762500D02*
X140757600Y-120922400D01*
X142780100Y-116740000D02*
X140757600Y-118762500D01*
X145710000Y-115470000D02*
X144440000Y-116740000D01*
X140757600Y-120922400D02*
X138700000Y-122980000D01*
X144440000Y-116740000D02*
X142780100Y-116740000D01*
%TO.N,Board_13-Net-(U1-GPIO39)*%
X144440000Y-114200000D02*
X142480000Y-114200000D01*
X142480000Y-114200000D02*
X138700000Y-117980000D01*
X145710000Y-112930000D02*
X144440000Y-114200000D01*
%TO.N,Board_14-Net-(J1-Pin_1)*%
X163531500Y-113390000D02*
X163572000Y-113390000D01*
X158512400Y-114877900D02*
X158512400Y-124879200D01*
X162285000Y-128398500D02*
X162285000Y-128880000D01*
X163490800Y-113390000D02*
X163531500Y-113390000D01*
X161187800Y-127301300D02*
X162285000Y-128398500D01*
X161163500Y-112226800D02*
X158512400Y-114877900D01*
X163531500Y-113390000D02*
X162368300Y-112226800D01*
X158512400Y-124879200D02*
X160934500Y-127301300D01*
X163572000Y-113390000D02*
X164180000Y-113390000D01*
X163450000Y-113390000D02*
X163490800Y-113390000D01*
X160934500Y-127301300D02*
X161187800Y-127301300D01*
X162285000Y-114595800D02*
X162285000Y-118880000D01*
X163490800Y-113390000D02*
X162285000Y-114595800D01*
X162368300Y-112226800D02*
X161163500Y-112226800D01*
%TO.N,Board_14-Net-(J1-Pin_2)*%
X162342900Y-125095300D02*
X162342900Y-123937900D01*
X159684500Y-125483100D02*
X158918900Y-124717500D01*
X168278200Y-129452200D02*
X167806000Y-128980000D01*
X158918900Y-117262800D02*
X161640000Y-114541700D01*
X166227600Y-128980000D02*
X162342900Y-125095300D01*
X158918900Y-124717500D02*
X158918900Y-117262800D01*
X161955100Y-125483100D02*
X159684500Y-125483100D01*
X167368000Y-131480000D02*
X168278200Y-130569800D01*
X164557500Y-131480000D02*
X167368000Y-131480000D01*
X162157500Y-133880000D02*
X164557500Y-131480000D01*
X162342900Y-125095300D02*
X161955100Y-125483100D01*
X168278200Y-130569800D02*
X168278200Y-129452200D01*
X167806000Y-128980000D02*
X166227600Y-128980000D01*
X161640000Y-113390000D02*
X161640000Y-114541700D01*
X162342900Y-123937900D02*
X162285000Y-123880000D01*
%TO.N,Board_14-Net-(Q1-B)*%
X160282500Y-132930000D02*
X160282500Y-133442400D01*
X160282500Y-133442400D02*
X161820100Y-134980000D01*
X161820100Y-134980000D02*
X167220000Y-134980000D01*
%TO.N,Board_14-Net-(Q1-E)*%
X151370000Y-130710000D02*
X152542500Y-129537500D01*
X159230900Y-133778400D02*
X160282500Y-134830000D01*
X158938400Y-129537500D02*
X159230900Y-129830000D01*
X152542500Y-129537500D02*
X158938400Y-129537500D01*
X159230900Y-129830000D02*
X159230900Y-133778400D01*
X159230900Y-129830000D02*
X160410000Y-129830000D01*
%TO.N,Board_14-Net-(Q2-B)*%
X164410000Y-122930000D02*
X160410000Y-122930000D01*
X166460000Y-124980000D02*
X164410000Y-122930000D01*
X167220000Y-124980000D02*
X166460000Y-124980000D01*
%TO.N,Board_14-Net-(Q2-E)*%
X159351500Y-123667100D02*
X160462200Y-124777800D01*
X160410000Y-119830000D02*
X159351500Y-120888500D01*
X161661200Y-124777800D02*
X160462200Y-124777800D01*
X160462200Y-124777800D02*
X160410000Y-124830000D01*
X159351500Y-120888500D02*
X159351500Y-123667100D01*
X174230000Y-128170000D02*
X171690000Y-128170000D01*
%TO.N,Board_14-Net-(Q3-B)*%
X167220000Y-129980000D02*
X166960000Y-129980000D01*
X166960000Y-129980000D02*
X161947500Y-129980000D01*
X161947500Y-129980000D02*
X160410000Y-128442500D01*
X160410000Y-128442500D02*
X160410000Y-127930000D01*
%TO.N,Board_14-Net-(Q4-B)*%
X161947600Y-119980000D02*
X167220000Y-119980000D01*
X160410000Y-117930000D02*
X160410000Y-118442400D01*
X160410000Y-118442400D02*
X161947600Y-119980000D01*
%TO.N,Board_14-Net-(U1-GPIO33)*%
X167220000Y-132620000D02*
X167220000Y-132980000D01*
X172167100Y-126781700D02*
X171436400Y-126781700D01*
X171436400Y-126781700D02*
X170538300Y-127679800D01*
X170538300Y-129301700D02*
X167220000Y-132620000D01*
X172841700Y-126107100D02*
X172167100Y-126781700D01*
X172841700Y-121938300D02*
X172841700Y-126107100D01*
X170538300Y-127679800D02*
X170538300Y-129301700D01*
X174230000Y-120550000D02*
X172841700Y-121938300D01*
%TO.N,Board_14-Net-(U1-GPIO35)*%
X171331300Y-119280000D02*
X170131100Y-120480200D01*
X172960000Y-119280000D02*
X171331300Y-119280000D01*
X170131100Y-125068900D02*
X167220000Y-127980000D01*
X170131100Y-120480200D02*
X170131100Y-125068900D01*
X174230000Y-118010000D02*
X172960000Y-119280000D01*
%TO.N,Board_14-Net-(U1-GPIO37)*%
X171300100Y-116740000D02*
X169277600Y-118762500D01*
X172960000Y-116740000D02*
X171300100Y-116740000D01*
X174230000Y-115470000D02*
X172960000Y-116740000D01*
X169277600Y-120922400D02*
X167220000Y-122980000D01*
X169277600Y-118762500D02*
X169277600Y-120922400D01*
%TO.N,Board_14-Net-(U1-GPIO39)*%
X172960000Y-114200000D02*
X171000000Y-114200000D01*
X174230000Y-112930000D02*
X172960000Y-114200000D01*
X171000000Y-114200000D02*
X167220000Y-117980000D01*
%TO.N,Board_15-Net-(J1-Pin_1)*%
X192010800Y-113390000D02*
X192051500Y-113390000D01*
X187032400Y-114877900D02*
X187032400Y-124879200D01*
X192010800Y-113390000D02*
X190805000Y-114595800D01*
X191970000Y-113390000D02*
X192010800Y-113390000D01*
X189454500Y-127301300D02*
X189707800Y-127301300D01*
X187032400Y-124879200D02*
X189454500Y-127301300D01*
X192092000Y-113390000D02*
X192700000Y-113390000D01*
X192051500Y-113390000D02*
X192092000Y-113390000D01*
X189683500Y-112226800D02*
X187032400Y-114877900D01*
X192051500Y-113390000D02*
X190888300Y-112226800D01*
X190805000Y-114595800D02*
X190805000Y-118880000D01*
X190805000Y-128398500D02*
X190805000Y-128880000D01*
X190888300Y-112226800D02*
X189683500Y-112226800D01*
X189707800Y-127301300D02*
X190805000Y-128398500D01*
%TO.N,Board_15-Net-(J1-Pin_2)*%
X190862900Y-125095300D02*
X190862900Y-123937900D01*
X190475100Y-125483100D02*
X188204500Y-125483100D01*
X187438900Y-124717500D02*
X187438900Y-117262800D01*
X188204500Y-125483100D02*
X187438900Y-124717500D01*
X196798200Y-130569800D02*
X196798200Y-129452200D01*
X196798200Y-129452200D02*
X196326000Y-128980000D01*
X190160000Y-113390000D02*
X190160000Y-114541700D01*
X187438900Y-117262800D02*
X190160000Y-114541700D01*
X193077500Y-131480000D02*
X195888000Y-131480000D01*
X194747600Y-128980000D02*
X190862900Y-125095300D01*
X190677500Y-133880000D02*
X193077500Y-131480000D01*
X190862900Y-123937900D02*
X190805000Y-123880000D01*
X196326000Y-128980000D02*
X194747600Y-128980000D01*
X195888000Y-131480000D02*
X196798200Y-130569800D01*
X190862900Y-125095300D02*
X190475100Y-125483100D01*
%TO.N,Board_15-Net-(Q1-B)*%
X188802500Y-132930000D02*
X188802500Y-133442400D01*
X188802500Y-133442400D02*
X190340100Y-134980000D01*
X190340100Y-134980000D02*
X195740000Y-134980000D01*
%TO.N,Board_15-Net-(Q1-E)*%
X187750900Y-129830000D02*
X188930000Y-129830000D01*
X187750900Y-129830000D02*
X187750900Y-133778400D01*
X187750900Y-133778400D02*
X188802500Y-134830000D01*
X187458400Y-129537500D02*
X187750900Y-129830000D01*
X179890000Y-130710000D02*
X181062500Y-129537500D01*
X181062500Y-129537500D02*
X187458400Y-129537500D01*
%TO.N,Board_15-Net-(Q2-B)*%
X195740000Y-124980000D02*
X194980000Y-124980000D01*
X194980000Y-124980000D02*
X192930000Y-122930000D01*
X192930000Y-122930000D02*
X188930000Y-122930000D01*
%TO.N,Board_15-Net-(Q2-E)*%
X190181200Y-124777800D02*
X188982200Y-124777800D01*
X202750000Y-128170000D02*
X200210000Y-128170000D01*
X188982200Y-124777800D02*
X188930000Y-124830000D01*
X188930000Y-119830000D02*
X187871500Y-120888500D01*
X187871500Y-120888500D02*
X187871500Y-123667100D01*
X187871500Y-123667100D02*
X188982200Y-124777800D01*
%TO.N,Board_15-Net-(Q3-B)*%
X190467500Y-129980000D02*
X188930000Y-128442500D01*
X195480000Y-129980000D02*
X190467500Y-129980000D01*
X188930000Y-128442500D02*
X188930000Y-127930000D01*
X195740000Y-129980000D02*
X195480000Y-129980000D01*
%TO.N,Board_15-Net-(Q4-B)*%
X188930000Y-117930000D02*
X188930000Y-118442400D01*
X188930000Y-118442400D02*
X190467600Y-119980000D01*
X190467600Y-119980000D02*
X195740000Y-119980000D01*
%TO.N,Board_15-Net-(U1-GPIO33)*%
X199058300Y-129301700D02*
X195740000Y-132620000D01*
X199058300Y-127679800D02*
X199058300Y-129301700D01*
X201361700Y-121938300D02*
X201361700Y-126107100D01*
X200687100Y-126781700D02*
X199956400Y-126781700D01*
X195740000Y-132620000D02*
X195740000Y-132980000D01*
X202750000Y-120550000D02*
X201361700Y-121938300D01*
X199956400Y-126781700D02*
X199058300Y-127679800D01*
X201361700Y-126107100D02*
X200687100Y-126781700D01*
%TO.N,Board_15-Net-(U1-GPIO35)*%
X198651100Y-125068900D02*
X195740000Y-127980000D01*
X198651100Y-120480200D02*
X198651100Y-125068900D01*
X201480000Y-119280000D02*
X199851300Y-119280000D01*
X202750000Y-118010000D02*
X201480000Y-119280000D01*
X199851300Y-119280000D02*
X198651100Y-120480200D01*
%TO.N,Board_15-Net-(U1-GPIO37)*%
X201480000Y-116740000D02*
X199820100Y-116740000D01*
X197797600Y-120922400D02*
X195740000Y-122980000D01*
X202750000Y-115470000D02*
X201480000Y-116740000D01*
X197797600Y-118762500D02*
X197797600Y-120922400D01*
X199820100Y-116740000D02*
X197797600Y-118762500D01*
%TO.N,Board_15-Net-(U1-GPIO39)*%
X201480000Y-114200000D02*
X199520000Y-114200000D01*
X199520000Y-114200000D02*
X195740000Y-117980000D01*
X202750000Y-112930000D02*
X201480000Y-114200000D01*
%TD*%
M02*
