%TF.GenerationSoftware,KiCad,Pcbnew,8.0.6*%
%TF.CreationDate,2024-10-19T01:04:28+01:00*%
%TF.ProjectId,panel,70616e65-6c2e-46b6-9963-61645f706362,rev?*%
%TF.SameCoordinates,Original*%
%TF.FileFunction,Copper,L2,Bot*%
%TF.FilePolarity,Positive*%
%FSLAX46Y46*%
G04 Gerber Fmt 4.6, Leading zero omitted, Abs format (unit mm)*
G04 Created by KiCad (PCBNEW 8.0.6) date 2024-10-19 01:04:28*
%MOMM*%
%LPD*%
G01*
G04 APERTURE LIST*
G04 Aperture macros list*
%AMFreePoly0*
4,1,19,-0.850000,0.510000,-0.510000,0.850000,0.255000,0.850000,0.408997,0.829726,0.552500,0.770285,0.675729,0.675729,0.770285,0.552500,0.829726,0.408997,0.850000,0.255000,0.850000,-0.510000,0.510000,-0.850000,-0.255000,-0.850000,-0.408997,-0.829726,-0.552500,-0.770285,-0.675729,-0.675729,-0.770285,-0.552500,-0.829726,-0.408997,-0.850000,-0.255000,-0.850000,0.510000,-0.850000,0.510000,
$1*%
G04 Aperture macros list end*
%TA.AperFunction,ComponentPad*%
%ADD10O,1.700000X1.700000*%
%TD*%
%TA.AperFunction,ComponentPad*%
%ADD11FreePoly0,0.000000*%
%TD*%
%TA.AperFunction,ComponentPad*%
%ADD12C,1.700000*%
%TD*%
%TA.AperFunction,ViaPad*%
%ADD13C,0.600000*%
%TD*%
%TA.AperFunction,Conductor*%
%ADD14C,0.200000*%
%TD*%
G04 APERTURE END LIST*
D10*
%TO.P,J1,1,Pin_1*%
%TO.N,Board_13-Net-(J1-Pin_1)*%
X135660000Y-113390000D03*
%TO.P,J1,2,Pin_2*%
%TO.N,Board_13-Net-(J1-Pin_2)*%
X133120000Y-113390000D03*
%TD*%
D11*
%TO.P,U1,1,EN*%
%TO.N,Board_12-unconnected-(U1-EN-Pad1)*%
X94330000Y-112930000D03*
D12*
%TO.P,U1,2,GPIO3*%
%TO.N,Board_12-unconnected-(U1-GPIO3-Pad2)*%
X94330000Y-115470000D03*
%TO.P,U1,3,GPIO5*%
%TO.N,Board_12-unconnected-(U1-GPIO5-Pad3)*%
X94330000Y-118010000D03*
%TO.P,U1,4,GPIO7*%
%TO.N,Board_12-unconnected-(U1-GPIO7-Pad4)*%
X94330000Y-120550000D03*
%TO.P,U1,5,GPIO9*%
%TO.N,Board_12-unconnected-(U1-GPIO9-Pad5)*%
X94330000Y-123090000D03*
%TO.P,U1,6,GPIO11*%
%TO.N,Board_12-unconnected-(U1-GPIO11-Pad6)*%
X94330000Y-125630000D03*
%TO.P,U1,7,GPIO12*%
%TO.N,Board_12-unconnected-(U1-GPIO12-Pad7)*%
X94330000Y-128170000D03*
%TO.P,U1,8,3V3*%
%TO.N,Board_12-Net-(Q1-E)*%
X94330000Y-130710000D03*
%TO.P,U1,9,VBUS*%
%TO.N,Board_12-unconnected-(U1-VBUS-Pad9)*%
X117190000Y-130710000D03*
%TO.P,U1,10,GND*%
%TO.N,Board_12-Net-(Q2-E)*%
X117190000Y-128170000D03*
%TO.P,U1,11,XTAL_32K_N*%
%TO.N,Board_12-unconnected-(U1-XTAL_32K_N-Pad11)*%
X117190000Y-125630000D03*
%TO.P,U1,12,DAC_2*%
%TO.N,Board_12-unconnected-(U1-DAC_2-Pad12)*%
X117190000Y-123090000D03*
%TO.P,U1,13,GPIO33*%
%TO.N,Board_12-Net-(U1-GPIO33)*%
X117190000Y-120550000D03*
%TO.P,U1,14,GPIO35*%
%TO.N,Board_12-Net-(U1-GPIO35)*%
X117190000Y-118010000D03*
%TO.P,U1,15,GPIO37*%
%TO.N,Board_12-Net-(U1-GPIO37)*%
X117190000Y-115470000D03*
%TO.P,U1,16,GPIO39*%
%TO.N,Board_12-Net-(U1-GPIO39)*%
X117190000Y-112930000D03*
%TO.P,U1,17,GPIO1*%
%TO.N,Board_12-unconnected-(U1-GPIO1-Pad17)*%
X96870000Y-112930000D03*
%TO.P,U1,18,GPIO2*%
%TO.N,Board_12-unconnected-(U1-GPIO2-Pad18)*%
X96870000Y-115470000D03*
%TO.P,U1,19,GPIO4*%
%TO.N,Board_12-unconnected-(U1-GPIO4-Pad19)*%
X96870000Y-118010000D03*
%TO.P,U1,20,GPIO6*%
%TO.N,Board_12-unconnected-(U1-GPIO6-Pad20)*%
X96870000Y-120550000D03*
%TO.P,U1,21,GPIO8*%
%TO.N,Board_12-unconnected-(U1-GPIO8-Pad21)*%
X96870000Y-123090000D03*
%TO.P,U1,22,GPIO10*%
%TO.N,Board_12-unconnected-(U1-GPIO10-Pad22)*%
X96870000Y-125630000D03*
%TO.P,U1,23,GPIO13*%
%TO.N,Board_12-unconnected-(U1-GPIO13-Pad23)*%
X96870000Y-128170000D03*
%TO.P,U1,24,GPIO14*%
%TO.N,Board_12-unconnected-(U1-GPIO14-Pad24)*%
X96870000Y-130710000D03*
%TO.P,U1,25,XTAL_32K_P*%
%TO.N,Board_12-unconnected-(U1-XTAL_32K_P-Pad25)*%
X114650000Y-130710000D03*
%TO.P,U1,26,GND*%
%TO.N,Board_12-Net-(Q2-E)*%
X114650000Y-128170000D03*
%TO.P,U1,27,DAC_1*%
%TO.N,Board_12-unconnected-(U1-DAC_1-Pad27)*%
X114650000Y-125630000D03*
%TO.P,U1,28,GPIO21*%
%TO.N,Board_12-unconnected-(U1-GPIO21-Pad28)*%
X114650000Y-123090000D03*
%TO.P,U1,29,GPIO34*%
%TO.N,Board_12-unconnected-(U1-GPIO34-Pad29)*%
X114650000Y-120550000D03*
%TO.P,U1,30,GPIO36*%
%TO.N,Board_12-unconnected-(U1-GPIO36-Pad30)*%
X114650000Y-118010000D03*
%TO.P,U1,31,GPIO38*%
%TO.N,Board_12-unconnected-(U1-GPIO38-Pad31)*%
X114650000Y-115470000D03*
%TO.P,U1,32,GPIO40*%
%TO.N,Board_12-unconnected-(U1-GPIO40-Pad32)*%
X114650000Y-112930000D03*
%TD*%
D10*
%TO.P,J1,1,Pin_1*%
%TO.N,Board_7-Net-(J1-Pin_1)*%
X192700000Y-52530000D03*
%TO.P,J1,2,Pin_2*%
%TO.N,Board_7-Net-(J1-Pin_2)*%
X190160000Y-52530000D03*
%TD*%
%TO.P,J1,1,Pin_1*%
%TO.N,Board_9-Net-(J1-Pin_1)*%
X135660000Y-82960000D03*
%TO.P,J1,2,Pin_2*%
%TO.N,Board_9-Net-(J1-Pin_2)*%
X133120000Y-82960000D03*
%TD*%
%TO.P,J1,1,Pin_1*%
%TO.N,Board_5-Net-(J1-Pin_1)*%
X135660000Y-52530000D03*
%TO.P,J1,2,Pin_2*%
%TO.N,Board_5-Net-(J1-Pin_2)*%
X133120000Y-52530000D03*
%TD*%
%TO.P,J1,1,Pin_1*%
%TO.N,Board_1-Net-(J1-Pin_1)*%
X135660000Y-22100000D03*
%TO.P,J1,2,Pin_2*%
%TO.N,Board_1-Net-(J1-Pin_2)*%
X133120000Y-22100000D03*
%TD*%
D11*
%TO.P,U1,1,EN*%
%TO.N,Board_9-unconnected-(U1-EN-Pad1)*%
X122850000Y-82500000D03*
D12*
%TO.P,U1,2,GPIO3*%
%TO.N,Board_9-unconnected-(U1-GPIO3-Pad2)*%
X122850000Y-85040000D03*
%TO.P,U1,3,GPIO5*%
%TO.N,Board_9-unconnected-(U1-GPIO5-Pad3)*%
X122850000Y-87580000D03*
%TO.P,U1,4,GPIO7*%
%TO.N,Board_9-unconnected-(U1-GPIO7-Pad4)*%
X122850000Y-90120000D03*
%TO.P,U1,5,GPIO9*%
%TO.N,Board_9-unconnected-(U1-GPIO9-Pad5)*%
X122850000Y-92660000D03*
%TO.P,U1,6,GPIO11*%
%TO.N,Board_9-unconnected-(U1-GPIO11-Pad6)*%
X122850000Y-95200000D03*
%TO.P,U1,7,GPIO12*%
%TO.N,Board_9-unconnected-(U1-GPIO12-Pad7)*%
X122850000Y-97740000D03*
%TO.P,U1,8,3V3*%
%TO.N,Board_9-Net-(Q1-E)*%
X122850000Y-100280000D03*
%TO.P,U1,9,VBUS*%
%TO.N,Board_9-unconnected-(U1-VBUS-Pad9)*%
X145710000Y-100280000D03*
%TO.P,U1,10,GND*%
%TO.N,Board_9-Net-(Q2-E)*%
X145710000Y-97740000D03*
%TO.P,U1,11,XTAL_32K_N*%
%TO.N,Board_9-unconnected-(U1-XTAL_32K_N-Pad11)*%
X145710000Y-95200000D03*
%TO.P,U1,12,DAC_2*%
%TO.N,Board_9-unconnected-(U1-DAC_2-Pad12)*%
X145710000Y-92660000D03*
%TO.P,U1,13,GPIO33*%
%TO.N,Board_9-Net-(U1-GPIO33)*%
X145710000Y-90120000D03*
%TO.P,U1,14,GPIO35*%
%TO.N,Board_9-Net-(U1-GPIO35)*%
X145710000Y-87580000D03*
%TO.P,U1,15,GPIO37*%
%TO.N,Board_9-Net-(U1-GPIO37)*%
X145710000Y-85040000D03*
%TO.P,U1,16,GPIO39*%
%TO.N,Board_9-Net-(U1-GPIO39)*%
X145710000Y-82500000D03*
%TO.P,U1,17,GPIO1*%
%TO.N,Board_9-unconnected-(U1-GPIO1-Pad17)*%
X125390000Y-82500000D03*
%TO.P,U1,18,GPIO2*%
%TO.N,Board_9-unconnected-(U1-GPIO2-Pad18)*%
X125390000Y-85040000D03*
%TO.P,U1,19,GPIO4*%
%TO.N,Board_9-unconnected-(U1-GPIO4-Pad19)*%
X125390000Y-87580000D03*
%TO.P,U1,20,GPIO6*%
%TO.N,Board_9-unconnected-(U1-GPIO6-Pad20)*%
X125390000Y-90120000D03*
%TO.P,U1,21,GPIO8*%
%TO.N,Board_9-unconnected-(U1-GPIO8-Pad21)*%
X125390000Y-92660000D03*
%TO.P,U1,22,GPIO10*%
%TO.N,Board_9-unconnected-(U1-GPIO10-Pad22)*%
X125390000Y-95200000D03*
%TO.P,U1,23,GPIO13*%
%TO.N,Board_9-unconnected-(U1-GPIO13-Pad23)*%
X125390000Y-97740000D03*
%TO.P,U1,24,GPIO14*%
%TO.N,Board_9-unconnected-(U1-GPIO14-Pad24)*%
X125390000Y-100280000D03*
%TO.P,U1,25,XTAL_32K_P*%
%TO.N,Board_9-unconnected-(U1-XTAL_32K_P-Pad25)*%
X143170000Y-100280000D03*
%TO.P,U1,26,GND*%
%TO.N,Board_9-Net-(Q2-E)*%
X143170000Y-97740000D03*
%TO.P,U1,27,DAC_1*%
%TO.N,Board_9-unconnected-(U1-DAC_1-Pad27)*%
X143170000Y-95200000D03*
%TO.P,U1,28,GPIO21*%
%TO.N,Board_9-unconnected-(U1-GPIO21-Pad28)*%
X143170000Y-92660000D03*
%TO.P,U1,29,GPIO34*%
%TO.N,Board_9-unconnected-(U1-GPIO34-Pad29)*%
X143170000Y-90120000D03*
%TO.P,U1,30,GPIO36*%
%TO.N,Board_9-unconnected-(U1-GPIO36-Pad30)*%
X143170000Y-87580000D03*
%TO.P,U1,31,GPIO38*%
%TO.N,Board_9-unconnected-(U1-GPIO38-Pad31)*%
X143170000Y-85040000D03*
%TO.P,U1,32,GPIO40*%
%TO.N,Board_9-unconnected-(U1-GPIO40-Pad32)*%
X143170000Y-82500000D03*
%TD*%
D11*
%TO.P,U1,1,EN*%
%TO.N,Board_5-unconnected-(U1-EN-Pad1)*%
X122850000Y-52070000D03*
D12*
%TO.P,U1,2,GPIO3*%
%TO.N,Board_5-unconnected-(U1-GPIO3-Pad2)*%
X122850000Y-54610000D03*
%TO.P,U1,3,GPIO5*%
%TO.N,Board_5-unconnected-(U1-GPIO5-Pad3)*%
X122850000Y-57150000D03*
%TO.P,U1,4,GPIO7*%
%TO.N,Board_5-unconnected-(U1-GPIO7-Pad4)*%
X122850000Y-59690000D03*
%TO.P,U1,5,GPIO9*%
%TO.N,Board_5-unconnected-(U1-GPIO9-Pad5)*%
X122850000Y-62230000D03*
%TO.P,U1,6,GPIO11*%
%TO.N,Board_5-unconnected-(U1-GPIO11-Pad6)*%
X122850000Y-64770000D03*
%TO.P,U1,7,GPIO12*%
%TO.N,Board_5-unconnected-(U1-GPIO12-Pad7)*%
X122850000Y-67310000D03*
%TO.P,U1,8,3V3*%
%TO.N,Board_5-Net-(Q1-E)*%
X122850000Y-69850000D03*
%TO.P,U1,9,VBUS*%
%TO.N,Board_5-unconnected-(U1-VBUS-Pad9)*%
X145710000Y-69850000D03*
%TO.P,U1,10,GND*%
%TO.N,Board_5-Net-(Q2-E)*%
X145710000Y-67310000D03*
%TO.P,U1,11,XTAL_32K_N*%
%TO.N,Board_5-unconnected-(U1-XTAL_32K_N-Pad11)*%
X145710000Y-64770000D03*
%TO.P,U1,12,DAC_2*%
%TO.N,Board_5-unconnected-(U1-DAC_2-Pad12)*%
X145710000Y-62230000D03*
%TO.P,U1,13,GPIO33*%
%TO.N,Board_5-Net-(U1-GPIO33)*%
X145710000Y-59690000D03*
%TO.P,U1,14,GPIO35*%
%TO.N,Board_5-Net-(U1-GPIO35)*%
X145710000Y-57150000D03*
%TO.P,U1,15,GPIO37*%
%TO.N,Board_5-Net-(U1-GPIO37)*%
X145710000Y-54610000D03*
%TO.P,U1,16,GPIO39*%
%TO.N,Board_5-Net-(U1-GPIO39)*%
X145710000Y-52070000D03*
%TO.P,U1,17,GPIO1*%
%TO.N,Board_5-unconnected-(U1-GPIO1-Pad17)*%
X125390000Y-52070000D03*
%TO.P,U1,18,GPIO2*%
%TO.N,Board_5-unconnected-(U1-GPIO2-Pad18)*%
X125390000Y-54610000D03*
%TO.P,U1,19,GPIO4*%
%TO.N,Board_5-unconnected-(U1-GPIO4-Pad19)*%
X125390000Y-57150000D03*
%TO.P,U1,20,GPIO6*%
%TO.N,Board_5-unconnected-(U1-GPIO6-Pad20)*%
X125390000Y-59690000D03*
%TO.P,U1,21,GPIO8*%
%TO.N,Board_5-unconnected-(U1-GPIO8-Pad21)*%
X125390000Y-62230000D03*
%TO.P,U1,22,GPIO10*%
%TO.N,Board_5-unconnected-(U1-GPIO10-Pad22)*%
X125390000Y-64770000D03*
%TO.P,U1,23,GPIO13*%
%TO.N,Board_5-unconnected-(U1-GPIO13-Pad23)*%
X125390000Y-67310000D03*
%TO.P,U1,24,GPIO14*%
%TO.N,Board_5-unconnected-(U1-GPIO14-Pad24)*%
X125390000Y-69850000D03*
%TO.P,U1,25,XTAL_32K_P*%
%TO.N,Board_5-unconnected-(U1-XTAL_32K_P-Pad25)*%
X143170000Y-69850000D03*
%TO.P,U1,26,GND*%
%TO.N,Board_5-Net-(Q2-E)*%
X143170000Y-67310000D03*
%TO.P,U1,27,DAC_1*%
%TO.N,Board_5-unconnected-(U1-DAC_1-Pad27)*%
X143170000Y-64770000D03*
%TO.P,U1,28,GPIO21*%
%TO.N,Board_5-unconnected-(U1-GPIO21-Pad28)*%
X143170000Y-62230000D03*
%TO.P,U1,29,GPIO34*%
%TO.N,Board_5-unconnected-(U1-GPIO34-Pad29)*%
X143170000Y-59690000D03*
%TO.P,U1,30,GPIO36*%
%TO.N,Board_5-unconnected-(U1-GPIO36-Pad30)*%
X143170000Y-57150000D03*
%TO.P,U1,31,GPIO38*%
%TO.N,Board_5-unconnected-(U1-GPIO38-Pad31)*%
X143170000Y-54610000D03*
%TO.P,U1,32,GPIO40*%
%TO.N,Board_5-unconnected-(U1-GPIO40-Pad32)*%
X143170000Y-52070000D03*
%TD*%
D11*
%TO.P,U1,1,EN*%
%TO.N,Board_13-unconnected-(U1-EN-Pad1)*%
X122850000Y-112930000D03*
D12*
%TO.P,U1,2,GPIO3*%
%TO.N,Board_13-unconnected-(U1-GPIO3-Pad2)*%
X122850000Y-115470000D03*
%TO.P,U1,3,GPIO5*%
%TO.N,Board_13-unconnected-(U1-GPIO5-Pad3)*%
X122850000Y-118010000D03*
%TO.P,U1,4,GPIO7*%
%TO.N,Board_13-unconnected-(U1-GPIO7-Pad4)*%
X122850000Y-120550000D03*
%TO.P,U1,5,GPIO9*%
%TO.N,Board_13-unconnected-(U1-GPIO9-Pad5)*%
X122850000Y-123090000D03*
%TO.P,U1,6,GPIO11*%
%TO.N,Board_13-unconnected-(U1-GPIO11-Pad6)*%
X122850000Y-125630000D03*
%TO.P,U1,7,GPIO12*%
%TO.N,Board_13-unconnected-(U1-GPIO12-Pad7)*%
X122850000Y-128170000D03*
%TO.P,U1,8,3V3*%
%TO.N,Board_13-Net-(Q1-E)*%
X122850000Y-130710000D03*
%TO.P,U1,9,VBUS*%
%TO.N,Board_13-unconnected-(U1-VBUS-Pad9)*%
X145710000Y-130710000D03*
%TO.P,U1,10,GND*%
%TO.N,Board_13-Net-(Q2-E)*%
X145710000Y-128170000D03*
%TO.P,U1,11,XTAL_32K_N*%
%TO.N,Board_13-unconnected-(U1-XTAL_32K_N-Pad11)*%
X145710000Y-125630000D03*
%TO.P,U1,12,DAC_2*%
%TO.N,Board_13-unconnected-(U1-DAC_2-Pad12)*%
X145710000Y-123090000D03*
%TO.P,U1,13,GPIO33*%
%TO.N,Board_13-Net-(U1-GPIO33)*%
X145710000Y-120550000D03*
%TO.P,U1,14,GPIO35*%
%TO.N,Board_13-Net-(U1-GPIO35)*%
X145710000Y-118010000D03*
%TO.P,U1,15,GPIO37*%
%TO.N,Board_13-Net-(U1-GPIO37)*%
X145710000Y-115470000D03*
%TO.P,U1,16,GPIO39*%
%TO.N,Board_13-Net-(U1-GPIO39)*%
X145710000Y-112930000D03*
%TO.P,U1,17,GPIO1*%
%TO.N,Board_13-unconnected-(U1-GPIO1-Pad17)*%
X125390000Y-112930000D03*
%TO.P,U1,18,GPIO2*%
%TO.N,Board_13-unconnected-(U1-GPIO2-Pad18)*%
X125390000Y-115470000D03*
%TO.P,U1,19,GPIO4*%
%TO.N,Board_13-unconnected-(U1-GPIO4-Pad19)*%
X125390000Y-118010000D03*
%TO.P,U1,20,GPIO6*%
%TO.N,Board_13-unconnected-(U1-GPIO6-Pad20)*%
X125390000Y-120550000D03*
%TO.P,U1,21,GPIO8*%
%TO.N,Board_13-unconnected-(U1-GPIO8-Pad21)*%
X125390000Y-123090000D03*
%TO.P,U1,22,GPIO10*%
%TO.N,Board_13-unconnected-(U1-GPIO10-Pad22)*%
X125390000Y-125630000D03*
%TO.P,U1,23,GPIO13*%
%TO.N,Board_13-unconnected-(U1-GPIO13-Pad23)*%
X125390000Y-128170000D03*
%TO.P,U1,24,GPIO14*%
%TO.N,Board_13-unconnected-(U1-GPIO14-Pad24)*%
X125390000Y-130710000D03*
%TO.P,U1,25,XTAL_32K_P*%
%TO.N,Board_13-unconnected-(U1-XTAL_32K_P-Pad25)*%
X143170000Y-130710000D03*
%TO.P,U1,26,GND*%
%TO.N,Board_13-Net-(Q2-E)*%
X143170000Y-128170000D03*
%TO.P,U1,27,DAC_1*%
%TO.N,Board_13-unconnected-(U1-DAC_1-Pad27)*%
X143170000Y-125630000D03*
%TO.P,U1,28,GPIO21*%
%TO.N,Board_13-unconnected-(U1-GPIO21-Pad28)*%
X143170000Y-123090000D03*
%TO.P,U1,29,GPIO34*%
%TO.N,Board_13-unconnected-(U1-GPIO34-Pad29)*%
X143170000Y-120550000D03*
%TO.P,U1,30,GPIO36*%
%TO.N,Board_13-unconnected-(U1-GPIO36-Pad30)*%
X143170000Y-118010000D03*
%TO.P,U1,31,GPIO38*%
%TO.N,Board_13-unconnected-(U1-GPIO38-Pad31)*%
X143170000Y-115470000D03*
%TO.P,U1,32,GPIO40*%
%TO.N,Board_13-unconnected-(U1-GPIO40-Pad32)*%
X143170000Y-112930000D03*
%TD*%
D10*
%TO.P,J1,1,Pin_1*%
%TO.N,Board_14-Net-(J1-Pin_1)*%
X164180000Y-113390000D03*
%TO.P,J1,2,Pin_2*%
%TO.N,Board_14-Net-(J1-Pin_2)*%
X161640000Y-113390000D03*
%TD*%
%TO.P,J1,1,Pin_1*%
%TO.N,Board_11-Net-(J1-Pin_1)*%
X192700000Y-82960000D03*
%TO.P,J1,2,Pin_2*%
%TO.N,Board_11-Net-(J1-Pin_2)*%
X190160000Y-82960000D03*
%TD*%
D11*
%TO.P,U1,1,EN*%
%TO.N,Board_4-unconnected-(U1-EN-Pad1)*%
X94330000Y-52070000D03*
D12*
%TO.P,U1,2,GPIO3*%
%TO.N,Board_4-unconnected-(U1-GPIO3-Pad2)*%
X94330000Y-54610000D03*
%TO.P,U1,3,GPIO5*%
%TO.N,Board_4-unconnected-(U1-GPIO5-Pad3)*%
X94330000Y-57150000D03*
%TO.P,U1,4,GPIO7*%
%TO.N,Board_4-unconnected-(U1-GPIO7-Pad4)*%
X94330000Y-59690000D03*
%TO.P,U1,5,GPIO9*%
%TO.N,Board_4-unconnected-(U1-GPIO9-Pad5)*%
X94330000Y-62230000D03*
%TO.P,U1,6,GPIO11*%
%TO.N,Board_4-unconnected-(U1-GPIO11-Pad6)*%
X94330000Y-64770000D03*
%TO.P,U1,7,GPIO12*%
%TO.N,Board_4-unconnected-(U1-GPIO12-Pad7)*%
X94330000Y-67310000D03*
%TO.P,U1,8,3V3*%
%TO.N,Board_4-Net-(Q1-E)*%
X94330000Y-69850000D03*
%TO.P,U1,9,VBUS*%
%TO.N,Board_4-unconnected-(U1-VBUS-Pad9)*%
X117190000Y-69850000D03*
%TO.P,U1,10,GND*%
%TO.N,Board_4-Net-(Q2-E)*%
X117190000Y-67310000D03*
%TO.P,U1,11,XTAL_32K_N*%
%TO.N,Board_4-unconnected-(U1-XTAL_32K_N-Pad11)*%
X117190000Y-64770000D03*
%TO.P,U1,12,DAC_2*%
%TO.N,Board_4-unconnected-(U1-DAC_2-Pad12)*%
X117190000Y-62230000D03*
%TO.P,U1,13,GPIO33*%
%TO.N,Board_4-Net-(U1-GPIO33)*%
X117190000Y-59690000D03*
%TO.P,U1,14,GPIO35*%
%TO.N,Board_4-Net-(U1-GPIO35)*%
X117190000Y-57150000D03*
%TO.P,U1,15,GPIO37*%
%TO.N,Board_4-Net-(U1-GPIO37)*%
X117190000Y-54610000D03*
%TO.P,U1,16,GPIO39*%
%TO.N,Board_4-Net-(U1-GPIO39)*%
X117190000Y-52070000D03*
%TO.P,U1,17,GPIO1*%
%TO.N,Board_4-unconnected-(U1-GPIO1-Pad17)*%
X96870000Y-52070000D03*
%TO.P,U1,18,GPIO2*%
%TO.N,Board_4-unconnected-(U1-GPIO2-Pad18)*%
X96870000Y-54610000D03*
%TO.P,U1,19,GPIO4*%
%TO.N,Board_4-unconnected-(U1-GPIO4-Pad19)*%
X96870000Y-57150000D03*
%TO.P,U1,20,GPIO6*%
%TO.N,Board_4-unconnected-(U1-GPIO6-Pad20)*%
X96870000Y-59690000D03*
%TO.P,U1,21,GPIO8*%
%TO.N,Board_4-unconnected-(U1-GPIO8-Pad21)*%
X96870000Y-62230000D03*
%TO.P,U1,22,GPIO10*%
%TO.N,Board_4-unconnected-(U1-GPIO10-Pad22)*%
X96870000Y-64770000D03*
%TO.P,U1,23,GPIO13*%
%TO.N,Board_4-unconnected-(U1-GPIO13-Pad23)*%
X96870000Y-67310000D03*
%TO.P,U1,24,GPIO14*%
%TO.N,Board_4-unconnected-(U1-GPIO14-Pad24)*%
X96870000Y-69850000D03*
%TO.P,U1,25,XTAL_32K_P*%
%TO.N,Board_4-unconnected-(U1-XTAL_32K_P-Pad25)*%
X114650000Y-69850000D03*
%TO.P,U1,26,GND*%
%TO.N,Board_4-Net-(Q2-E)*%
X114650000Y-67310000D03*
%TO.P,U1,27,DAC_1*%
%TO.N,Board_4-unconnected-(U1-DAC_1-Pad27)*%
X114650000Y-64770000D03*
%TO.P,U1,28,GPIO21*%
%TO.N,Board_4-unconnected-(U1-GPIO21-Pad28)*%
X114650000Y-62230000D03*
%TO.P,U1,29,GPIO34*%
%TO.N,Board_4-unconnected-(U1-GPIO34-Pad29)*%
X114650000Y-59690000D03*
%TO.P,U1,30,GPIO36*%
%TO.N,Board_4-unconnected-(U1-GPIO36-Pad30)*%
X114650000Y-57150000D03*
%TO.P,U1,31,GPIO38*%
%TO.N,Board_4-unconnected-(U1-GPIO38-Pad31)*%
X114650000Y-54610000D03*
%TO.P,U1,32,GPIO40*%
%TO.N,Board_4-unconnected-(U1-GPIO40-Pad32)*%
X114650000Y-52070000D03*
%TD*%
D10*
%TO.P,J1,1,Pin_1*%
%TO.N,Board_0-Net-(J1-Pin_1)*%
X107140000Y-22100000D03*
%TO.P,J1,2,Pin_2*%
%TO.N,Board_0-Net-(J1-Pin_2)*%
X104600000Y-22100000D03*
%TD*%
D11*
%TO.P,U1,1,EN*%
%TO.N,Board_3-unconnected-(U1-EN-Pad1)*%
X179890000Y-21640000D03*
D12*
%TO.P,U1,2,GPIO3*%
%TO.N,Board_3-unconnected-(U1-GPIO3-Pad2)*%
X179890000Y-24180000D03*
%TO.P,U1,3,GPIO5*%
%TO.N,Board_3-unconnected-(U1-GPIO5-Pad3)*%
X179890000Y-26720000D03*
%TO.P,U1,4,GPIO7*%
%TO.N,Board_3-unconnected-(U1-GPIO7-Pad4)*%
X179890000Y-29260000D03*
%TO.P,U1,5,GPIO9*%
%TO.N,Board_3-unconnected-(U1-GPIO9-Pad5)*%
X179890000Y-31800000D03*
%TO.P,U1,6,GPIO11*%
%TO.N,Board_3-unconnected-(U1-GPIO11-Pad6)*%
X179890000Y-34340000D03*
%TO.P,U1,7,GPIO12*%
%TO.N,Board_3-unconnected-(U1-GPIO12-Pad7)*%
X179890000Y-36880000D03*
%TO.P,U1,8,3V3*%
%TO.N,Board_3-Net-(Q1-E)*%
X179890000Y-39420000D03*
%TO.P,U1,9,VBUS*%
%TO.N,Board_3-unconnected-(U1-VBUS-Pad9)*%
X202750000Y-39420000D03*
%TO.P,U1,10,GND*%
%TO.N,Board_3-Net-(Q2-E)*%
X202750000Y-36880000D03*
%TO.P,U1,11,XTAL_32K_N*%
%TO.N,Board_3-unconnected-(U1-XTAL_32K_N-Pad11)*%
X202750000Y-34340000D03*
%TO.P,U1,12,DAC_2*%
%TO.N,Board_3-unconnected-(U1-DAC_2-Pad12)*%
X202750000Y-31800000D03*
%TO.P,U1,13,GPIO33*%
%TO.N,Board_3-Net-(U1-GPIO33)*%
X202750000Y-29260000D03*
%TO.P,U1,14,GPIO35*%
%TO.N,Board_3-Net-(U1-GPIO35)*%
X202750000Y-26720000D03*
%TO.P,U1,15,GPIO37*%
%TO.N,Board_3-Net-(U1-GPIO37)*%
X202750000Y-24180000D03*
%TO.P,U1,16,GPIO39*%
%TO.N,Board_3-Net-(U1-GPIO39)*%
X202750000Y-21640000D03*
%TO.P,U1,17,GPIO1*%
%TO.N,Board_3-unconnected-(U1-GPIO1-Pad17)*%
X182430000Y-21640000D03*
%TO.P,U1,18,GPIO2*%
%TO.N,Board_3-unconnected-(U1-GPIO2-Pad18)*%
X182430000Y-24180000D03*
%TO.P,U1,19,GPIO4*%
%TO.N,Board_3-unconnected-(U1-GPIO4-Pad19)*%
X182430000Y-26720000D03*
%TO.P,U1,20,GPIO6*%
%TO.N,Board_3-unconnected-(U1-GPIO6-Pad20)*%
X182430000Y-29260000D03*
%TO.P,U1,21,GPIO8*%
%TO.N,Board_3-unconnected-(U1-GPIO8-Pad21)*%
X182430000Y-31800000D03*
%TO.P,U1,22,GPIO10*%
%TO.N,Board_3-unconnected-(U1-GPIO10-Pad22)*%
X182430000Y-34340000D03*
%TO.P,U1,23,GPIO13*%
%TO.N,Board_3-unconnected-(U1-GPIO13-Pad23)*%
X182430000Y-36880000D03*
%TO.P,U1,24,GPIO14*%
%TO.N,Board_3-unconnected-(U1-GPIO14-Pad24)*%
X182430000Y-39420000D03*
%TO.P,U1,25,XTAL_32K_P*%
%TO.N,Board_3-unconnected-(U1-XTAL_32K_P-Pad25)*%
X200210000Y-39420000D03*
%TO.P,U1,26,GND*%
%TO.N,Board_3-Net-(Q2-E)*%
X200210000Y-36880000D03*
%TO.P,U1,27,DAC_1*%
%TO.N,Board_3-unconnected-(U1-DAC_1-Pad27)*%
X200210000Y-34340000D03*
%TO.P,U1,28,GPIO21*%
%TO.N,Board_3-unconnected-(U1-GPIO21-Pad28)*%
X200210000Y-31800000D03*
%TO.P,U1,29,GPIO34*%
%TO.N,Board_3-unconnected-(U1-GPIO34-Pad29)*%
X200210000Y-29260000D03*
%TO.P,U1,30,GPIO36*%
%TO.N,Board_3-unconnected-(U1-GPIO36-Pad30)*%
X200210000Y-26720000D03*
%TO.P,U1,31,GPIO38*%
%TO.N,Board_3-unconnected-(U1-GPIO38-Pad31)*%
X200210000Y-24180000D03*
%TO.P,U1,32,GPIO40*%
%TO.N,Board_3-unconnected-(U1-GPIO40-Pad32)*%
X200210000Y-21640000D03*
%TD*%
D11*
%TO.P,U1,1,EN*%
%TO.N,Board_10-unconnected-(U1-EN-Pad1)*%
X151370000Y-82500000D03*
D12*
%TO.P,U1,2,GPIO3*%
%TO.N,Board_10-unconnected-(U1-GPIO3-Pad2)*%
X151370000Y-85040000D03*
%TO.P,U1,3,GPIO5*%
%TO.N,Board_10-unconnected-(U1-GPIO5-Pad3)*%
X151370000Y-87580000D03*
%TO.P,U1,4,GPIO7*%
%TO.N,Board_10-unconnected-(U1-GPIO7-Pad4)*%
X151370000Y-90120000D03*
%TO.P,U1,5,GPIO9*%
%TO.N,Board_10-unconnected-(U1-GPIO9-Pad5)*%
X151370000Y-92660000D03*
%TO.P,U1,6,GPIO11*%
%TO.N,Board_10-unconnected-(U1-GPIO11-Pad6)*%
X151370000Y-95200000D03*
%TO.P,U1,7,GPIO12*%
%TO.N,Board_10-unconnected-(U1-GPIO12-Pad7)*%
X151370000Y-97740000D03*
%TO.P,U1,8,3V3*%
%TO.N,Board_10-Net-(Q1-E)*%
X151370000Y-100280000D03*
%TO.P,U1,9,VBUS*%
%TO.N,Board_10-unconnected-(U1-VBUS-Pad9)*%
X174230000Y-100280000D03*
%TO.P,U1,10,GND*%
%TO.N,Board_10-Net-(Q2-E)*%
X174230000Y-97740000D03*
%TO.P,U1,11,XTAL_32K_N*%
%TO.N,Board_10-unconnected-(U1-XTAL_32K_N-Pad11)*%
X174230000Y-95200000D03*
%TO.P,U1,12,DAC_2*%
%TO.N,Board_10-unconnected-(U1-DAC_2-Pad12)*%
X174230000Y-92660000D03*
%TO.P,U1,13,GPIO33*%
%TO.N,Board_10-Net-(U1-GPIO33)*%
X174230000Y-90120000D03*
%TO.P,U1,14,GPIO35*%
%TO.N,Board_10-Net-(U1-GPIO35)*%
X174230000Y-87580000D03*
%TO.P,U1,15,GPIO37*%
%TO.N,Board_10-Net-(U1-GPIO37)*%
X174230000Y-85040000D03*
%TO.P,U1,16,GPIO39*%
%TO.N,Board_10-Net-(U1-GPIO39)*%
X174230000Y-82500000D03*
%TO.P,U1,17,GPIO1*%
%TO.N,Board_10-unconnected-(U1-GPIO1-Pad17)*%
X153910000Y-82500000D03*
%TO.P,U1,18,GPIO2*%
%TO.N,Board_10-unconnected-(U1-GPIO2-Pad18)*%
X153910000Y-85040000D03*
%TO.P,U1,19,GPIO4*%
%TO.N,Board_10-unconnected-(U1-GPIO4-Pad19)*%
X153910000Y-87580000D03*
%TO.P,U1,20,GPIO6*%
%TO.N,Board_10-unconnected-(U1-GPIO6-Pad20)*%
X153910000Y-90120000D03*
%TO.P,U1,21,GPIO8*%
%TO.N,Board_10-unconnected-(U1-GPIO8-Pad21)*%
X153910000Y-92660000D03*
%TO.P,U1,22,GPIO10*%
%TO.N,Board_10-unconnected-(U1-GPIO10-Pad22)*%
X153910000Y-95200000D03*
%TO.P,U1,23,GPIO13*%
%TO.N,Board_10-unconnected-(U1-GPIO13-Pad23)*%
X153910000Y-97740000D03*
%TO.P,U1,24,GPIO14*%
%TO.N,Board_10-unconnected-(U1-GPIO14-Pad24)*%
X153910000Y-100280000D03*
%TO.P,U1,25,XTAL_32K_P*%
%TO.N,Board_10-unconnected-(U1-XTAL_32K_P-Pad25)*%
X171690000Y-100280000D03*
%TO.P,U1,26,GND*%
%TO.N,Board_10-Net-(Q2-E)*%
X171690000Y-97740000D03*
%TO.P,U1,27,DAC_1*%
%TO.N,Board_10-unconnected-(U1-DAC_1-Pad27)*%
X171690000Y-95200000D03*
%TO.P,U1,28,GPIO21*%
%TO.N,Board_10-unconnected-(U1-GPIO21-Pad28)*%
X171690000Y-92660000D03*
%TO.P,U1,29,GPIO34*%
%TO.N,Board_10-unconnected-(U1-GPIO34-Pad29)*%
X171690000Y-90120000D03*
%TO.P,U1,30,GPIO36*%
%TO.N,Board_10-unconnected-(U1-GPIO36-Pad30)*%
X171690000Y-87580000D03*
%TO.P,U1,31,GPIO38*%
%TO.N,Board_10-unconnected-(U1-GPIO38-Pad31)*%
X171690000Y-85040000D03*
%TO.P,U1,32,GPIO40*%
%TO.N,Board_10-unconnected-(U1-GPIO40-Pad32)*%
X171690000Y-82500000D03*
%TD*%
D11*
%TO.P,U1,1,EN*%
%TO.N,Board_2-unconnected-(U1-EN-Pad1)*%
X151370000Y-21640000D03*
D12*
%TO.P,U1,2,GPIO3*%
%TO.N,Board_2-unconnected-(U1-GPIO3-Pad2)*%
X151370000Y-24180000D03*
%TO.P,U1,3,GPIO5*%
%TO.N,Board_2-unconnected-(U1-GPIO5-Pad3)*%
X151370000Y-26720000D03*
%TO.P,U1,4,GPIO7*%
%TO.N,Board_2-unconnected-(U1-GPIO7-Pad4)*%
X151370000Y-29260000D03*
%TO.P,U1,5,GPIO9*%
%TO.N,Board_2-unconnected-(U1-GPIO9-Pad5)*%
X151370000Y-31800000D03*
%TO.P,U1,6,GPIO11*%
%TO.N,Board_2-unconnected-(U1-GPIO11-Pad6)*%
X151370000Y-34340000D03*
%TO.P,U1,7,GPIO12*%
%TO.N,Board_2-unconnected-(U1-GPIO12-Pad7)*%
X151370000Y-36880000D03*
%TO.P,U1,8,3V3*%
%TO.N,Board_2-Net-(Q1-E)*%
X151370000Y-39420000D03*
%TO.P,U1,9,VBUS*%
%TO.N,Board_2-unconnected-(U1-VBUS-Pad9)*%
X174230000Y-39420000D03*
%TO.P,U1,10,GND*%
%TO.N,Board_2-Net-(Q2-E)*%
X174230000Y-36880000D03*
%TO.P,U1,11,XTAL_32K_N*%
%TO.N,Board_2-unconnected-(U1-XTAL_32K_N-Pad11)*%
X174230000Y-34340000D03*
%TO.P,U1,12,DAC_2*%
%TO.N,Board_2-unconnected-(U1-DAC_2-Pad12)*%
X174230000Y-31800000D03*
%TO.P,U1,13,GPIO33*%
%TO.N,Board_2-Net-(U1-GPIO33)*%
X174230000Y-29260000D03*
%TO.P,U1,14,GPIO35*%
%TO.N,Board_2-Net-(U1-GPIO35)*%
X174230000Y-26720000D03*
%TO.P,U1,15,GPIO37*%
%TO.N,Board_2-Net-(U1-GPIO37)*%
X174230000Y-24180000D03*
%TO.P,U1,16,GPIO39*%
%TO.N,Board_2-Net-(U1-GPIO39)*%
X174230000Y-21640000D03*
%TO.P,U1,17,GPIO1*%
%TO.N,Board_2-unconnected-(U1-GPIO1-Pad17)*%
X153910000Y-21640000D03*
%TO.P,U1,18,GPIO2*%
%TO.N,Board_2-unconnected-(U1-GPIO2-Pad18)*%
X153910000Y-24180000D03*
%TO.P,U1,19,GPIO4*%
%TO.N,Board_2-unconnected-(U1-GPIO4-Pad19)*%
X153910000Y-26720000D03*
%TO.P,U1,20,GPIO6*%
%TO.N,Board_2-unconnected-(U1-GPIO6-Pad20)*%
X153910000Y-29260000D03*
%TO.P,U1,21,GPIO8*%
%TO.N,Board_2-unconnected-(U1-GPIO8-Pad21)*%
X153910000Y-31800000D03*
%TO.P,U1,22,GPIO10*%
%TO.N,Board_2-unconnected-(U1-GPIO10-Pad22)*%
X153910000Y-34340000D03*
%TO.P,U1,23,GPIO13*%
%TO.N,Board_2-unconnected-(U1-GPIO13-Pad23)*%
X153910000Y-36880000D03*
%TO.P,U1,24,GPIO14*%
%TO.N,Board_2-unconnected-(U1-GPIO14-Pad24)*%
X153910000Y-39420000D03*
%TO.P,U1,25,XTAL_32K_P*%
%TO.N,Board_2-unconnected-(U1-XTAL_32K_P-Pad25)*%
X171690000Y-39420000D03*
%TO.P,U1,26,GND*%
%TO.N,Board_2-Net-(Q2-E)*%
X171690000Y-36880000D03*
%TO.P,U1,27,DAC_1*%
%TO.N,Board_2-unconnected-(U1-DAC_1-Pad27)*%
X171690000Y-34340000D03*
%TO.P,U1,28,GPIO21*%
%TO.N,Board_2-unconnected-(U1-GPIO21-Pad28)*%
X171690000Y-31800000D03*
%TO.P,U1,29,GPIO34*%
%TO.N,Board_2-unconnected-(U1-GPIO34-Pad29)*%
X171690000Y-29260000D03*
%TO.P,U1,30,GPIO36*%
%TO.N,Board_2-unconnected-(U1-GPIO36-Pad30)*%
X171690000Y-26720000D03*
%TO.P,U1,31,GPIO38*%
%TO.N,Board_2-unconnected-(U1-GPIO38-Pad31)*%
X171690000Y-24180000D03*
%TO.P,U1,32,GPIO40*%
%TO.N,Board_2-unconnected-(U1-GPIO40-Pad32)*%
X171690000Y-21640000D03*
%TD*%
D11*
%TO.P,U1,1,EN*%
%TO.N,Board_6-unconnected-(U1-EN-Pad1)*%
X151370000Y-52070000D03*
D12*
%TO.P,U1,2,GPIO3*%
%TO.N,Board_6-unconnected-(U1-GPIO3-Pad2)*%
X151370000Y-54610000D03*
%TO.P,U1,3,GPIO5*%
%TO.N,Board_6-unconnected-(U1-GPIO5-Pad3)*%
X151370000Y-57150000D03*
%TO.P,U1,4,GPIO7*%
%TO.N,Board_6-unconnected-(U1-GPIO7-Pad4)*%
X151370000Y-59690000D03*
%TO.P,U1,5,GPIO9*%
%TO.N,Board_6-unconnected-(U1-GPIO9-Pad5)*%
X151370000Y-62230000D03*
%TO.P,U1,6,GPIO11*%
%TO.N,Board_6-unconnected-(U1-GPIO11-Pad6)*%
X151370000Y-64770000D03*
%TO.P,U1,7,GPIO12*%
%TO.N,Board_6-unconnected-(U1-GPIO12-Pad7)*%
X151370000Y-67310000D03*
%TO.P,U1,8,3V3*%
%TO.N,Board_6-Net-(Q1-E)*%
X151370000Y-69850000D03*
%TO.P,U1,9,VBUS*%
%TO.N,Board_6-unconnected-(U1-VBUS-Pad9)*%
X174230000Y-69850000D03*
%TO.P,U1,10,GND*%
%TO.N,Board_6-Net-(Q2-E)*%
X174230000Y-67310000D03*
%TO.P,U1,11,XTAL_32K_N*%
%TO.N,Board_6-unconnected-(U1-XTAL_32K_N-Pad11)*%
X174230000Y-64770000D03*
%TO.P,U1,12,DAC_2*%
%TO.N,Board_6-unconnected-(U1-DAC_2-Pad12)*%
X174230000Y-62230000D03*
%TO.P,U1,13,GPIO33*%
%TO.N,Board_6-Net-(U1-GPIO33)*%
X174230000Y-59690000D03*
%TO.P,U1,14,GPIO35*%
%TO.N,Board_6-Net-(U1-GPIO35)*%
X174230000Y-57150000D03*
%TO.P,U1,15,GPIO37*%
%TO.N,Board_6-Net-(U1-GPIO37)*%
X174230000Y-54610000D03*
%TO.P,U1,16,GPIO39*%
%TO.N,Board_6-Net-(U1-GPIO39)*%
X174230000Y-52070000D03*
%TO.P,U1,17,GPIO1*%
%TO.N,Board_6-unconnected-(U1-GPIO1-Pad17)*%
X153910000Y-52070000D03*
%TO.P,U1,18,GPIO2*%
%TO.N,Board_6-unconnected-(U1-GPIO2-Pad18)*%
X153910000Y-54610000D03*
%TO.P,U1,19,GPIO4*%
%TO.N,Board_6-unconnected-(U1-GPIO4-Pad19)*%
X153910000Y-57150000D03*
%TO.P,U1,20,GPIO6*%
%TO.N,Board_6-unconnected-(U1-GPIO6-Pad20)*%
X153910000Y-59690000D03*
%TO.P,U1,21,GPIO8*%
%TO.N,Board_6-unconnected-(U1-GPIO8-Pad21)*%
X153910000Y-62230000D03*
%TO.P,U1,22,GPIO10*%
%TO.N,Board_6-unconnected-(U1-GPIO10-Pad22)*%
X153910000Y-64770000D03*
%TO.P,U1,23,GPIO13*%
%TO.N,Board_6-unconnected-(U1-GPIO13-Pad23)*%
X153910000Y-67310000D03*
%TO.P,U1,24,GPIO14*%
%TO.N,Board_6-unconnected-(U1-GPIO14-Pad24)*%
X153910000Y-69850000D03*
%TO.P,U1,25,XTAL_32K_P*%
%TO.N,Board_6-unconnected-(U1-XTAL_32K_P-Pad25)*%
X171690000Y-69850000D03*
%TO.P,U1,26,GND*%
%TO.N,Board_6-Net-(Q2-E)*%
X171690000Y-67310000D03*
%TO.P,U1,27,DAC_1*%
%TO.N,Board_6-unconnected-(U1-DAC_1-Pad27)*%
X171690000Y-64770000D03*
%TO.P,U1,28,GPIO21*%
%TO.N,Board_6-unconnected-(U1-GPIO21-Pad28)*%
X171690000Y-62230000D03*
%TO.P,U1,29,GPIO34*%
%TO.N,Board_6-unconnected-(U1-GPIO34-Pad29)*%
X171690000Y-59690000D03*
%TO.P,U1,30,GPIO36*%
%TO.N,Board_6-unconnected-(U1-GPIO36-Pad30)*%
X171690000Y-57150000D03*
%TO.P,U1,31,GPIO38*%
%TO.N,Board_6-unconnected-(U1-GPIO38-Pad31)*%
X171690000Y-54610000D03*
%TO.P,U1,32,GPIO40*%
%TO.N,Board_6-unconnected-(U1-GPIO40-Pad32)*%
X171690000Y-52070000D03*
%TD*%
D11*
%TO.P,U1,1,EN*%
%TO.N,Board_8-unconnected-(U1-EN-Pad1)*%
X94330000Y-82500000D03*
D12*
%TO.P,U1,2,GPIO3*%
%TO.N,Board_8-unconnected-(U1-GPIO3-Pad2)*%
X94330000Y-85040000D03*
%TO.P,U1,3,GPIO5*%
%TO.N,Board_8-unconnected-(U1-GPIO5-Pad3)*%
X94330000Y-87580000D03*
%TO.P,U1,4,GPIO7*%
%TO.N,Board_8-unconnected-(U1-GPIO7-Pad4)*%
X94330000Y-90120000D03*
%TO.P,U1,5,GPIO9*%
%TO.N,Board_8-unconnected-(U1-GPIO9-Pad5)*%
X94330000Y-92660000D03*
%TO.P,U1,6,GPIO11*%
%TO.N,Board_8-unconnected-(U1-GPIO11-Pad6)*%
X94330000Y-95200000D03*
%TO.P,U1,7,GPIO12*%
%TO.N,Board_8-unconnected-(U1-GPIO12-Pad7)*%
X94330000Y-97740000D03*
%TO.P,U1,8,3V3*%
%TO.N,Board_8-Net-(Q1-E)*%
X94330000Y-100280000D03*
%TO.P,U1,9,VBUS*%
%TO.N,Board_8-unconnected-(U1-VBUS-Pad9)*%
X117190000Y-100280000D03*
%TO.P,U1,10,GND*%
%TO.N,Board_8-Net-(Q2-E)*%
X117190000Y-97740000D03*
%TO.P,U1,11,XTAL_32K_N*%
%TO.N,Board_8-unconnected-(U1-XTAL_32K_N-Pad11)*%
X117190000Y-95200000D03*
%TO.P,U1,12,DAC_2*%
%TO.N,Board_8-unconnected-(U1-DAC_2-Pad12)*%
X117190000Y-92660000D03*
%TO.P,U1,13,GPIO33*%
%TO.N,Board_8-Net-(U1-GPIO33)*%
X117190000Y-90120000D03*
%TO.P,U1,14,GPIO35*%
%TO.N,Board_8-Net-(U1-GPIO35)*%
X117190000Y-87580000D03*
%TO.P,U1,15,GPIO37*%
%TO.N,Board_8-Net-(U1-GPIO37)*%
X117190000Y-85040000D03*
%TO.P,U1,16,GPIO39*%
%TO.N,Board_8-Net-(U1-GPIO39)*%
X117190000Y-82500000D03*
%TO.P,U1,17,GPIO1*%
%TO.N,Board_8-unconnected-(U1-GPIO1-Pad17)*%
X96870000Y-82500000D03*
%TO.P,U1,18,GPIO2*%
%TO.N,Board_8-unconnected-(U1-GPIO2-Pad18)*%
X96870000Y-85040000D03*
%TO.P,U1,19,GPIO4*%
%TO.N,Board_8-unconnected-(U1-GPIO4-Pad19)*%
X96870000Y-87580000D03*
%TO.P,U1,20,GPIO6*%
%TO.N,Board_8-unconnected-(U1-GPIO6-Pad20)*%
X96870000Y-90120000D03*
%TO.P,U1,21,GPIO8*%
%TO.N,Board_8-unconnected-(U1-GPIO8-Pad21)*%
X96870000Y-92660000D03*
%TO.P,U1,22,GPIO10*%
%TO.N,Board_8-unconnected-(U1-GPIO10-Pad22)*%
X96870000Y-95200000D03*
%TO.P,U1,23,GPIO13*%
%TO.N,Board_8-unconnected-(U1-GPIO13-Pad23)*%
X96870000Y-97740000D03*
%TO.P,U1,24,GPIO14*%
%TO.N,Board_8-unconnected-(U1-GPIO14-Pad24)*%
X96870000Y-100280000D03*
%TO.P,U1,25,XTAL_32K_P*%
%TO.N,Board_8-unconnected-(U1-XTAL_32K_P-Pad25)*%
X114650000Y-100280000D03*
%TO.P,U1,26,GND*%
%TO.N,Board_8-Net-(Q2-E)*%
X114650000Y-97740000D03*
%TO.P,U1,27,DAC_1*%
%TO.N,Board_8-unconnected-(U1-DAC_1-Pad27)*%
X114650000Y-95200000D03*
%TO.P,U1,28,GPIO21*%
%TO.N,Board_8-unconnected-(U1-GPIO21-Pad28)*%
X114650000Y-92660000D03*
%TO.P,U1,29,GPIO34*%
%TO.N,Board_8-unconnected-(U1-GPIO34-Pad29)*%
X114650000Y-90120000D03*
%TO.P,U1,30,GPIO36*%
%TO.N,Board_8-unconnected-(U1-GPIO36-Pad30)*%
X114650000Y-87580000D03*
%TO.P,U1,31,GPIO38*%
%TO.N,Board_8-unconnected-(U1-GPIO38-Pad31)*%
X114650000Y-85040000D03*
%TO.P,U1,32,GPIO40*%
%TO.N,Board_8-unconnected-(U1-GPIO40-Pad32)*%
X114650000Y-82500000D03*
%TD*%
D11*
%TO.P,U1,1,EN*%
%TO.N,Board_14-unconnected-(U1-EN-Pad1)*%
X151370000Y-112930000D03*
D12*
%TO.P,U1,2,GPIO3*%
%TO.N,Board_14-unconnected-(U1-GPIO3-Pad2)*%
X151370000Y-115470000D03*
%TO.P,U1,3,GPIO5*%
%TO.N,Board_14-unconnected-(U1-GPIO5-Pad3)*%
X151370000Y-118010000D03*
%TO.P,U1,4,GPIO7*%
%TO.N,Board_14-unconnected-(U1-GPIO7-Pad4)*%
X151370000Y-120550000D03*
%TO.P,U1,5,GPIO9*%
%TO.N,Board_14-unconnected-(U1-GPIO9-Pad5)*%
X151370000Y-123090000D03*
%TO.P,U1,6,GPIO11*%
%TO.N,Board_14-unconnected-(U1-GPIO11-Pad6)*%
X151370000Y-125630000D03*
%TO.P,U1,7,GPIO12*%
%TO.N,Board_14-unconnected-(U1-GPIO12-Pad7)*%
X151370000Y-128170000D03*
%TO.P,U1,8,3V3*%
%TO.N,Board_14-Net-(Q1-E)*%
X151370000Y-130710000D03*
%TO.P,U1,9,VBUS*%
%TO.N,Board_14-unconnected-(U1-VBUS-Pad9)*%
X174230000Y-130710000D03*
%TO.P,U1,10,GND*%
%TO.N,Board_14-Net-(Q2-E)*%
X174230000Y-128170000D03*
%TO.P,U1,11,XTAL_32K_N*%
%TO.N,Board_14-unconnected-(U1-XTAL_32K_N-Pad11)*%
X174230000Y-125630000D03*
%TO.P,U1,12,DAC_2*%
%TO.N,Board_14-unconnected-(U1-DAC_2-Pad12)*%
X174230000Y-123090000D03*
%TO.P,U1,13,GPIO33*%
%TO.N,Board_14-Net-(U1-GPIO33)*%
X174230000Y-120550000D03*
%TO.P,U1,14,GPIO35*%
%TO.N,Board_14-Net-(U1-GPIO35)*%
X174230000Y-118010000D03*
%TO.P,U1,15,GPIO37*%
%TO.N,Board_14-Net-(U1-GPIO37)*%
X174230000Y-115470000D03*
%TO.P,U1,16,GPIO39*%
%TO.N,Board_14-Net-(U1-GPIO39)*%
X174230000Y-112930000D03*
%TO.P,U1,17,GPIO1*%
%TO.N,Board_14-unconnected-(U1-GPIO1-Pad17)*%
X153910000Y-112930000D03*
%TO.P,U1,18,GPIO2*%
%TO.N,Board_14-unconnected-(U1-GPIO2-Pad18)*%
X153910000Y-115470000D03*
%TO.P,U1,19,GPIO4*%
%TO.N,Board_14-unconnected-(U1-GPIO4-Pad19)*%
X153910000Y-118010000D03*
%TO.P,U1,20,GPIO6*%
%TO.N,Board_14-unconnected-(U1-GPIO6-Pad20)*%
X153910000Y-120550000D03*
%TO.P,U1,21,GPIO8*%
%TO.N,Board_14-unconnected-(U1-GPIO8-Pad21)*%
X153910000Y-123090000D03*
%TO.P,U1,22,GPIO10*%
%TO.N,Board_14-unconnected-(U1-GPIO10-Pad22)*%
X153910000Y-125630000D03*
%TO.P,U1,23,GPIO13*%
%TO.N,Board_14-unconnected-(U1-GPIO13-Pad23)*%
X153910000Y-128170000D03*
%TO.P,U1,24,GPIO14*%
%TO.N,Board_14-unconnected-(U1-GPIO14-Pad24)*%
X153910000Y-130710000D03*
%TO.P,U1,25,XTAL_32K_P*%
%TO.N,Board_14-unconnected-(U1-XTAL_32K_P-Pad25)*%
X171690000Y-130710000D03*
%TO.P,U1,26,GND*%
%TO.N,Board_14-Net-(Q2-E)*%
X171690000Y-128170000D03*
%TO.P,U1,27,DAC_1*%
%TO.N,Board_14-unconnected-(U1-DAC_1-Pad27)*%
X171690000Y-125630000D03*
%TO.P,U1,28,GPIO21*%
%TO.N,Board_14-unconnected-(U1-GPIO21-Pad28)*%
X171690000Y-123090000D03*
%TO.P,U1,29,GPIO34*%
%TO.N,Board_14-unconnected-(U1-GPIO34-Pad29)*%
X171690000Y-120550000D03*
%TO.P,U1,30,GPIO36*%
%TO.N,Board_14-unconnected-(U1-GPIO36-Pad30)*%
X171690000Y-118010000D03*
%TO.P,U1,31,GPIO38*%
%TO.N,Board_14-unconnected-(U1-GPIO38-Pad31)*%
X171690000Y-115470000D03*
%TO.P,U1,32,GPIO40*%
%TO.N,Board_14-unconnected-(U1-GPIO40-Pad32)*%
X171690000Y-112930000D03*
%TD*%
D11*
%TO.P,U1,1,EN*%
%TO.N,Board_7-unconnected-(U1-EN-Pad1)*%
X179890000Y-52070000D03*
D12*
%TO.P,U1,2,GPIO3*%
%TO.N,Board_7-unconnected-(U1-GPIO3-Pad2)*%
X179890000Y-54610000D03*
%TO.P,U1,3,GPIO5*%
%TO.N,Board_7-unconnected-(U1-GPIO5-Pad3)*%
X179890000Y-57150000D03*
%TO.P,U1,4,GPIO7*%
%TO.N,Board_7-unconnected-(U1-GPIO7-Pad4)*%
X179890000Y-59690000D03*
%TO.P,U1,5,GPIO9*%
%TO.N,Board_7-unconnected-(U1-GPIO9-Pad5)*%
X179890000Y-62230000D03*
%TO.P,U1,6,GPIO11*%
%TO.N,Board_7-unconnected-(U1-GPIO11-Pad6)*%
X179890000Y-64770000D03*
%TO.P,U1,7,GPIO12*%
%TO.N,Board_7-unconnected-(U1-GPIO12-Pad7)*%
X179890000Y-67310000D03*
%TO.P,U1,8,3V3*%
%TO.N,Board_7-Net-(Q1-E)*%
X179890000Y-69850000D03*
%TO.P,U1,9,VBUS*%
%TO.N,Board_7-unconnected-(U1-VBUS-Pad9)*%
X202750000Y-69850000D03*
%TO.P,U1,10,GND*%
%TO.N,Board_7-Net-(Q2-E)*%
X202750000Y-67310000D03*
%TO.P,U1,11,XTAL_32K_N*%
%TO.N,Board_7-unconnected-(U1-XTAL_32K_N-Pad11)*%
X202750000Y-64770000D03*
%TO.P,U1,12,DAC_2*%
%TO.N,Board_7-unconnected-(U1-DAC_2-Pad12)*%
X202750000Y-62230000D03*
%TO.P,U1,13,GPIO33*%
%TO.N,Board_7-Net-(U1-GPIO33)*%
X202750000Y-59690000D03*
%TO.P,U1,14,GPIO35*%
%TO.N,Board_7-Net-(U1-GPIO35)*%
X202750000Y-57150000D03*
%TO.P,U1,15,GPIO37*%
%TO.N,Board_7-Net-(U1-GPIO37)*%
X202750000Y-54610000D03*
%TO.P,U1,16,GPIO39*%
%TO.N,Board_7-Net-(U1-GPIO39)*%
X202750000Y-52070000D03*
%TO.P,U1,17,GPIO1*%
%TO.N,Board_7-unconnected-(U1-GPIO1-Pad17)*%
X182430000Y-52070000D03*
%TO.P,U1,18,GPIO2*%
%TO.N,Board_7-unconnected-(U1-GPIO2-Pad18)*%
X182430000Y-54610000D03*
%TO.P,U1,19,GPIO4*%
%TO.N,Board_7-unconnected-(U1-GPIO4-Pad19)*%
X182430000Y-57150000D03*
%TO.P,U1,20,GPIO6*%
%TO.N,Board_7-unconnected-(U1-GPIO6-Pad20)*%
X182430000Y-59690000D03*
%TO.P,U1,21,GPIO8*%
%TO.N,Board_7-unconnected-(U1-GPIO8-Pad21)*%
X182430000Y-62230000D03*
%TO.P,U1,22,GPIO10*%
%TO.N,Board_7-unconnected-(U1-GPIO10-Pad22)*%
X182430000Y-64770000D03*
%TO.P,U1,23,GPIO13*%
%TO.N,Board_7-unconnected-(U1-GPIO13-Pad23)*%
X182430000Y-67310000D03*
%TO.P,U1,24,GPIO14*%
%TO.N,Board_7-unconnected-(U1-GPIO14-Pad24)*%
X182430000Y-69850000D03*
%TO.P,U1,25,XTAL_32K_P*%
%TO.N,Board_7-unconnected-(U1-XTAL_32K_P-Pad25)*%
X200210000Y-69850000D03*
%TO.P,U1,26,GND*%
%TO.N,Board_7-Net-(Q2-E)*%
X200210000Y-67310000D03*
%TO.P,U1,27,DAC_1*%
%TO.N,Board_7-unconnected-(U1-DAC_1-Pad27)*%
X200210000Y-64770000D03*
%TO.P,U1,28,GPIO21*%
%TO.N,Board_7-unconnected-(U1-GPIO21-Pad28)*%
X200210000Y-62230000D03*
%TO.P,U1,29,GPIO34*%
%TO.N,Board_7-unconnected-(U1-GPIO34-Pad29)*%
X200210000Y-59690000D03*
%TO.P,U1,30,GPIO36*%
%TO.N,Board_7-unconnected-(U1-GPIO36-Pad30)*%
X200210000Y-57150000D03*
%TO.P,U1,31,GPIO38*%
%TO.N,Board_7-unconnected-(U1-GPIO38-Pad31)*%
X200210000Y-54610000D03*
%TO.P,U1,32,GPIO40*%
%TO.N,Board_7-unconnected-(U1-GPIO40-Pad32)*%
X200210000Y-52070000D03*
%TD*%
D10*
%TO.P,J1,1,Pin_1*%
%TO.N,Board_6-Net-(J1-Pin_1)*%
X164180000Y-52530000D03*
%TO.P,J1,2,Pin_2*%
%TO.N,Board_6-Net-(J1-Pin_2)*%
X161640000Y-52530000D03*
%TD*%
%TO.P,J1,1,Pin_1*%
%TO.N,Board_2-Net-(J1-Pin_1)*%
X164180000Y-22100000D03*
%TO.P,J1,2,Pin_2*%
%TO.N,Board_2-Net-(J1-Pin_2)*%
X161640000Y-22100000D03*
%TD*%
%TO.P,J1,1,Pin_1*%
%TO.N,Board_8-Net-(J1-Pin_1)*%
X107140000Y-82960000D03*
%TO.P,J1,2,Pin_2*%
%TO.N,Board_8-Net-(J1-Pin_2)*%
X104600000Y-82960000D03*
%TD*%
D11*
%TO.P,U1,1,EN*%
%TO.N,Board_0-unconnected-(U1-EN-Pad1)*%
X94330000Y-21640000D03*
D12*
%TO.P,U1,2,GPIO3*%
%TO.N,Board_0-unconnected-(U1-GPIO3-Pad2)*%
X94330000Y-24180000D03*
%TO.P,U1,3,GPIO5*%
%TO.N,Board_0-unconnected-(U1-GPIO5-Pad3)*%
X94330000Y-26720000D03*
%TO.P,U1,4,GPIO7*%
%TO.N,Board_0-unconnected-(U1-GPIO7-Pad4)*%
X94330000Y-29260000D03*
%TO.P,U1,5,GPIO9*%
%TO.N,Board_0-unconnected-(U1-GPIO9-Pad5)*%
X94330000Y-31800000D03*
%TO.P,U1,6,GPIO11*%
%TO.N,Board_0-unconnected-(U1-GPIO11-Pad6)*%
X94330000Y-34340000D03*
%TO.P,U1,7,GPIO12*%
%TO.N,Board_0-unconnected-(U1-GPIO12-Pad7)*%
X94330000Y-36880000D03*
%TO.P,U1,8,3V3*%
%TO.N,Board_0-Net-(Q1-E)*%
X94330000Y-39420000D03*
%TO.P,U1,9,VBUS*%
%TO.N,Board_0-unconnected-(U1-VBUS-Pad9)*%
X117190000Y-39420000D03*
%TO.P,U1,10,GND*%
%TO.N,Board_0-Net-(Q2-E)*%
X117190000Y-36880000D03*
%TO.P,U1,11,XTAL_32K_N*%
%TO.N,Board_0-unconnected-(U1-XTAL_32K_N-Pad11)*%
X117190000Y-34340000D03*
%TO.P,U1,12,DAC_2*%
%TO.N,Board_0-unconnected-(U1-DAC_2-Pad12)*%
X117190000Y-31800000D03*
%TO.P,U1,13,GPIO33*%
%TO.N,Board_0-Net-(U1-GPIO33)*%
X117190000Y-29260000D03*
%TO.P,U1,14,GPIO35*%
%TO.N,Board_0-Net-(U1-GPIO35)*%
X117190000Y-26720000D03*
%TO.P,U1,15,GPIO37*%
%TO.N,Board_0-Net-(U1-GPIO37)*%
X117190000Y-24180000D03*
%TO.P,U1,16,GPIO39*%
%TO.N,Board_0-Net-(U1-GPIO39)*%
X117190000Y-21640000D03*
%TO.P,U1,17,GPIO1*%
%TO.N,Board_0-unconnected-(U1-GPIO1-Pad17)*%
X96870000Y-21640000D03*
%TO.P,U1,18,GPIO2*%
%TO.N,Board_0-unconnected-(U1-GPIO2-Pad18)*%
X96870000Y-24180000D03*
%TO.P,U1,19,GPIO4*%
%TO.N,Board_0-unconnected-(U1-GPIO4-Pad19)*%
X96870000Y-26720000D03*
%TO.P,U1,20,GPIO6*%
%TO.N,Board_0-unconnected-(U1-GPIO6-Pad20)*%
X96870000Y-29260000D03*
%TO.P,U1,21,GPIO8*%
%TO.N,Board_0-unconnected-(U1-GPIO8-Pad21)*%
X96870000Y-31800000D03*
%TO.P,U1,22,GPIO10*%
%TO.N,Board_0-unconnected-(U1-GPIO10-Pad22)*%
X96870000Y-34340000D03*
%TO.P,U1,23,GPIO13*%
%TO.N,Board_0-unconnected-(U1-GPIO13-Pad23)*%
X96870000Y-36880000D03*
%TO.P,U1,24,GPIO14*%
%TO.N,Board_0-unconnected-(U1-GPIO14-Pad24)*%
X96870000Y-39420000D03*
%TO.P,U1,25,XTAL_32K_P*%
%TO.N,Board_0-unconnected-(U1-XTAL_32K_P-Pad25)*%
X114650000Y-39420000D03*
%TO.P,U1,26,GND*%
%TO.N,Board_0-Net-(Q2-E)*%
X114650000Y-36880000D03*
%TO.P,U1,27,DAC_1*%
%TO.N,Board_0-unconnected-(U1-DAC_1-Pad27)*%
X114650000Y-34340000D03*
%TO.P,U1,28,GPIO21*%
%TO.N,Board_0-unconnected-(U1-GPIO21-Pad28)*%
X114650000Y-31800000D03*
%TO.P,U1,29,GPIO34*%
%TO.N,Board_0-unconnected-(U1-GPIO34-Pad29)*%
X114650000Y-29260000D03*
%TO.P,U1,30,GPIO36*%
%TO.N,Board_0-unconnected-(U1-GPIO36-Pad30)*%
X114650000Y-26720000D03*
%TO.P,U1,31,GPIO38*%
%TO.N,Board_0-unconnected-(U1-GPIO38-Pad31)*%
X114650000Y-24180000D03*
%TO.P,U1,32,GPIO40*%
%TO.N,Board_0-unconnected-(U1-GPIO40-Pad32)*%
X114650000Y-21640000D03*
%TD*%
D10*
%TO.P,J1,1,Pin_1*%
%TO.N,Board_4-Net-(J1-Pin_1)*%
X107140000Y-52530000D03*
%TO.P,J1,2,Pin_2*%
%TO.N,Board_4-Net-(J1-Pin_2)*%
X104600000Y-52530000D03*
%TD*%
%TO.P,J1,1,Pin_1*%
%TO.N,Board_10-Net-(J1-Pin_1)*%
X164180000Y-82960000D03*
%TO.P,J1,2,Pin_2*%
%TO.N,Board_10-Net-(J1-Pin_2)*%
X161640000Y-82960000D03*
%TD*%
D11*
%TO.P,U1,1,EN*%
%TO.N,Board_15-unconnected-(U1-EN-Pad1)*%
X179890000Y-112930000D03*
D12*
%TO.P,U1,2,GPIO3*%
%TO.N,Board_15-unconnected-(U1-GPIO3-Pad2)*%
X179890000Y-115470000D03*
%TO.P,U1,3,GPIO5*%
%TO.N,Board_15-unconnected-(U1-GPIO5-Pad3)*%
X179890000Y-118010000D03*
%TO.P,U1,4,GPIO7*%
%TO.N,Board_15-unconnected-(U1-GPIO7-Pad4)*%
X179890000Y-120550000D03*
%TO.P,U1,5,GPIO9*%
%TO.N,Board_15-unconnected-(U1-GPIO9-Pad5)*%
X179890000Y-123090000D03*
%TO.P,U1,6,GPIO11*%
%TO.N,Board_15-unconnected-(U1-GPIO11-Pad6)*%
X179890000Y-125630000D03*
%TO.P,U1,7,GPIO12*%
%TO.N,Board_15-unconnected-(U1-GPIO12-Pad7)*%
X179890000Y-128170000D03*
%TO.P,U1,8,3V3*%
%TO.N,Board_15-Net-(Q1-E)*%
X179890000Y-130710000D03*
%TO.P,U1,9,VBUS*%
%TO.N,Board_15-unconnected-(U1-VBUS-Pad9)*%
X202750000Y-130710000D03*
%TO.P,U1,10,GND*%
%TO.N,Board_15-Net-(Q2-E)*%
X202750000Y-128170000D03*
%TO.P,U1,11,XTAL_32K_N*%
%TO.N,Board_15-unconnected-(U1-XTAL_32K_N-Pad11)*%
X202750000Y-125630000D03*
%TO.P,U1,12,DAC_2*%
%TO.N,Board_15-unconnected-(U1-DAC_2-Pad12)*%
X202750000Y-123090000D03*
%TO.P,U1,13,GPIO33*%
%TO.N,Board_15-Net-(U1-GPIO33)*%
X202750000Y-120550000D03*
%TO.P,U1,14,GPIO35*%
%TO.N,Board_15-Net-(U1-GPIO35)*%
X202750000Y-118010000D03*
%TO.P,U1,15,GPIO37*%
%TO.N,Board_15-Net-(U1-GPIO37)*%
X202750000Y-115470000D03*
%TO.P,U1,16,GPIO39*%
%TO.N,Board_15-Net-(U1-GPIO39)*%
X202750000Y-112930000D03*
%TO.P,U1,17,GPIO1*%
%TO.N,Board_15-unconnected-(U1-GPIO1-Pad17)*%
X182430000Y-112930000D03*
%TO.P,U1,18,GPIO2*%
%TO.N,Board_15-unconnected-(U1-GPIO2-Pad18)*%
X182430000Y-115470000D03*
%TO.P,U1,19,GPIO4*%
%TO.N,Board_15-unconnected-(U1-GPIO4-Pad19)*%
X182430000Y-118010000D03*
%TO.P,U1,20,GPIO6*%
%TO.N,Board_15-unconnected-(U1-GPIO6-Pad20)*%
X182430000Y-120550000D03*
%TO.P,U1,21,GPIO8*%
%TO.N,Board_15-unconnected-(U1-GPIO8-Pad21)*%
X182430000Y-123090000D03*
%TO.P,U1,22,GPIO10*%
%TO.N,Board_15-unconnected-(U1-GPIO10-Pad22)*%
X182430000Y-125630000D03*
%TO.P,U1,23,GPIO13*%
%TO.N,Board_15-unconnected-(U1-GPIO13-Pad23)*%
X182430000Y-128170000D03*
%TO.P,U1,24,GPIO14*%
%TO.N,Board_15-unconnected-(U1-GPIO14-Pad24)*%
X182430000Y-130710000D03*
%TO.P,U1,25,XTAL_32K_P*%
%TO.N,Board_15-unconnected-(U1-XTAL_32K_P-Pad25)*%
X200210000Y-130710000D03*
%TO.P,U1,26,GND*%
%TO.N,Board_15-Net-(Q2-E)*%
X200210000Y-128170000D03*
%TO.P,U1,27,DAC_1*%
%TO.N,Board_15-unconnected-(U1-DAC_1-Pad27)*%
X200210000Y-125630000D03*
%TO.P,U1,28,GPIO21*%
%TO.N,Board_15-unconnected-(U1-GPIO21-Pad28)*%
X200210000Y-123090000D03*
%TO.P,U1,29,GPIO34*%
%TO.N,Board_15-unconnected-(U1-GPIO34-Pad29)*%
X200210000Y-120550000D03*
%TO.P,U1,30,GPIO36*%
%TO.N,Board_15-unconnected-(U1-GPIO36-Pad30)*%
X200210000Y-118010000D03*
%TO.P,U1,31,GPIO38*%
%TO.N,Board_15-unconnected-(U1-GPIO38-Pad31)*%
X200210000Y-115470000D03*
%TO.P,U1,32,GPIO40*%
%TO.N,Board_15-unconnected-(U1-GPIO40-Pad32)*%
X200210000Y-112930000D03*
%TD*%
D10*
%TO.P,J1,1,Pin_1*%
%TO.N,Board_15-Net-(J1-Pin_1)*%
X192700000Y-113390000D03*
%TO.P,J1,2,Pin_2*%
%TO.N,Board_15-Net-(J1-Pin_2)*%
X190160000Y-113390000D03*
%TD*%
%TO.P,J1,1,Pin_1*%
%TO.N,Board_12-Net-(J1-Pin_1)*%
X107140000Y-113390000D03*
%TO.P,J1,2,Pin_2*%
%TO.N,Board_12-Net-(J1-Pin_2)*%
X104600000Y-113390000D03*
%TD*%
D11*
%TO.P,U1,1,EN*%
%TO.N,Board_11-unconnected-(U1-EN-Pad1)*%
X179890000Y-82500000D03*
D12*
%TO.P,U1,2,GPIO3*%
%TO.N,Board_11-unconnected-(U1-GPIO3-Pad2)*%
X179890000Y-85040000D03*
%TO.P,U1,3,GPIO5*%
%TO.N,Board_11-unconnected-(U1-GPIO5-Pad3)*%
X179890000Y-87580000D03*
%TO.P,U1,4,GPIO7*%
%TO.N,Board_11-unconnected-(U1-GPIO7-Pad4)*%
X179890000Y-90120000D03*
%TO.P,U1,5,GPIO9*%
%TO.N,Board_11-unconnected-(U1-GPIO9-Pad5)*%
X179890000Y-92660000D03*
%TO.P,U1,6,GPIO11*%
%TO.N,Board_11-unconnected-(U1-GPIO11-Pad6)*%
X179890000Y-95200000D03*
%TO.P,U1,7,GPIO12*%
%TO.N,Board_11-unconnected-(U1-GPIO12-Pad7)*%
X179890000Y-97740000D03*
%TO.P,U1,8,3V3*%
%TO.N,Board_11-Net-(Q1-E)*%
X179890000Y-100280000D03*
%TO.P,U1,9,VBUS*%
%TO.N,Board_11-unconnected-(U1-VBUS-Pad9)*%
X202750000Y-100280000D03*
%TO.P,U1,10,GND*%
%TO.N,Board_11-Net-(Q2-E)*%
X202750000Y-97740000D03*
%TO.P,U1,11,XTAL_32K_N*%
%TO.N,Board_11-unconnected-(U1-XTAL_32K_N-Pad11)*%
X202750000Y-95200000D03*
%TO.P,U1,12,DAC_2*%
%TO.N,Board_11-unconnected-(U1-DAC_2-Pad12)*%
X202750000Y-92660000D03*
%TO.P,U1,13,GPIO33*%
%TO.N,Board_11-Net-(U1-GPIO33)*%
X202750000Y-90120000D03*
%TO.P,U1,14,GPIO35*%
%TO.N,Board_11-Net-(U1-GPIO35)*%
X202750000Y-87580000D03*
%TO.P,U1,15,GPIO37*%
%TO.N,Board_11-Net-(U1-GPIO37)*%
X202750000Y-85040000D03*
%TO.P,U1,16,GPIO39*%
%TO.N,Board_11-Net-(U1-GPIO39)*%
X202750000Y-82500000D03*
%TO.P,U1,17,GPIO1*%
%TO.N,Board_11-unconnected-(U1-GPIO1-Pad17)*%
X182430000Y-82500000D03*
%TO.P,U1,18,GPIO2*%
%TO.N,Board_11-unconnected-(U1-GPIO2-Pad18)*%
X182430000Y-85040000D03*
%TO.P,U1,19,GPIO4*%
%TO.N,Board_11-unconnected-(U1-GPIO4-Pad19)*%
X182430000Y-87580000D03*
%TO.P,U1,20,GPIO6*%
%TO.N,Board_11-unconnected-(U1-GPIO6-Pad20)*%
X182430000Y-90120000D03*
%TO.P,U1,21,GPIO8*%
%TO.N,Board_11-unconnected-(U1-GPIO8-Pad21)*%
X182430000Y-92660000D03*
%TO.P,U1,22,GPIO10*%
%TO.N,Board_11-unconnected-(U1-GPIO10-Pad22)*%
X182430000Y-95200000D03*
%TO.P,U1,23,GPIO13*%
%TO.N,Board_11-unconnected-(U1-GPIO13-Pad23)*%
X182430000Y-97740000D03*
%TO.P,U1,24,GPIO14*%
%TO.N,Board_11-unconnected-(U1-GPIO14-Pad24)*%
X182430000Y-100280000D03*
%TO.P,U1,25,XTAL_32K_P*%
%TO.N,Board_11-unconnected-(U1-XTAL_32K_P-Pad25)*%
X200210000Y-100280000D03*
%TO.P,U1,26,GND*%
%TO.N,Board_11-Net-(Q2-E)*%
X200210000Y-97740000D03*
%TO.P,U1,27,DAC_1*%
%TO.N,Board_11-unconnected-(U1-DAC_1-Pad27)*%
X200210000Y-95200000D03*
%TO.P,U1,28,GPIO21*%
%TO.N,Board_11-unconnected-(U1-GPIO21-Pad28)*%
X200210000Y-92660000D03*
%TO.P,U1,29,GPIO34*%
%TO.N,Board_11-unconnected-(U1-GPIO34-Pad29)*%
X200210000Y-90120000D03*
%TO.P,U1,30,GPIO36*%
%TO.N,Board_11-unconnected-(U1-GPIO36-Pad30)*%
X200210000Y-87580000D03*
%TO.P,U1,31,GPIO38*%
%TO.N,Board_11-unconnected-(U1-GPIO38-Pad31)*%
X200210000Y-85040000D03*
%TO.P,U1,32,GPIO40*%
%TO.N,Board_11-unconnected-(U1-GPIO40-Pad32)*%
X200210000Y-82500000D03*
%TD*%
D11*
%TO.P,U1,1,EN*%
%TO.N,Board_1-unconnected-(U1-EN-Pad1)*%
X122850000Y-21640000D03*
D12*
%TO.P,U1,2,GPIO3*%
%TO.N,Board_1-unconnected-(U1-GPIO3-Pad2)*%
X122850000Y-24180000D03*
%TO.P,U1,3,GPIO5*%
%TO.N,Board_1-unconnected-(U1-GPIO5-Pad3)*%
X122850000Y-26720000D03*
%TO.P,U1,4,GPIO7*%
%TO.N,Board_1-unconnected-(U1-GPIO7-Pad4)*%
X122850000Y-29260000D03*
%TO.P,U1,5,GPIO9*%
%TO.N,Board_1-unconnected-(U1-GPIO9-Pad5)*%
X122850000Y-31800000D03*
%TO.P,U1,6,GPIO11*%
%TO.N,Board_1-unconnected-(U1-GPIO11-Pad6)*%
X122850000Y-34340000D03*
%TO.P,U1,7,GPIO12*%
%TO.N,Board_1-unconnected-(U1-GPIO12-Pad7)*%
X122850000Y-36880000D03*
%TO.P,U1,8,3V3*%
%TO.N,Board_1-Net-(Q1-E)*%
X122850000Y-39420000D03*
%TO.P,U1,9,VBUS*%
%TO.N,Board_1-unconnected-(U1-VBUS-Pad9)*%
X145710000Y-39420000D03*
%TO.P,U1,10,GND*%
%TO.N,Board_1-Net-(Q2-E)*%
X145710000Y-36880000D03*
%TO.P,U1,11,XTAL_32K_N*%
%TO.N,Board_1-unconnected-(U1-XTAL_32K_N-Pad11)*%
X145710000Y-34340000D03*
%TO.P,U1,12,DAC_2*%
%TO.N,Board_1-unconnected-(U1-DAC_2-Pad12)*%
X145710000Y-31800000D03*
%TO.P,U1,13,GPIO33*%
%TO.N,Board_1-Net-(U1-GPIO33)*%
X145710000Y-29260000D03*
%TO.P,U1,14,GPIO35*%
%TO.N,Board_1-Net-(U1-GPIO35)*%
X145710000Y-26720000D03*
%TO.P,U1,15,GPIO37*%
%TO.N,Board_1-Net-(U1-GPIO37)*%
X145710000Y-24180000D03*
%TO.P,U1,16,GPIO39*%
%TO.N,Board_1-Net-(U1-GPIO39)*%
X145710000Y-21640000D03*
%TO.P,U1,17,GPIO1*%
%TO.N,Board_1-unconnected-(U1-GPIO1-Pad17)*%
X125390000Y-21640000D03*
%TO.P,U1,18,GPIO2*%
%TO.N,Board_1-unconnected-(U1-GPIO2-Pad18)*%
X125390000Y-24180000D03*
%TO.P,U1,19,GPIO4*%
%TO.N,Board_1-unconnected-(U1-GPIO4-Pad19)*%
X125390000Y-26720000D03*
%TO.P,U1,20,GPIO6*%
%TO.N,Board_1-unconnected-(U1-GPIO6-Pad20)*%
X125390000Y-29260000D03*
%TO.P,U1,21,GPIO8*%
%TO.N,Board_1-unconnected-(U1-GPIO8-Pad21)*%
X125390000Y-31800000D03*
%TO.P,U1,22,GPIO10*%
%TO.N,Board_1-unconnected-(U1-GPIO10-Pad22)*%
X125390000Y-34340000D03*
%TO.P,U1,23,GPIO13*%
%TO.N,Board_1-unconnected-(U1-GPIO13-Pad23)*%
X125390000Y-36880000D03*
%TO.P,U1,24,GPIO14*%
%TO.N,Board_1-unconnected-(U1-GPIO14-Pad24)*%
X125390000Y-39420000D03*
%TO.P,U1,25,XTAL_32K_P*%
%TO.N,Board_1-unconnected-(U1-XTAL_32K_P-Pad25)*%
X143170000Y-39420000D03*
%TO.P,U1,26,GND*%
%TO.N,Board_1-Net-(Q2-E)*%
X143170000Y-36880000D03*
%TO.P,U1,27,DAC_1*%
%TO.N,Board_1-unconnected-(U1-DAC_1-Pad27)*%
X143170000Y-34340000D03*
%TO.P,U1,28,GPIO21*%
%TO.N,Board_1-unconnected-(U1-GPIO21-Pad28)*%
X143170000Y-31800000D03*
%TO.P,U1,29,GPIO34*%
%TO.N,Board_1-unconnected-(U1-GPIO34-Pad29)*%
X143170000Y-29260000D03*
%TO.P,U1,30,GPIO36*%
%TO.N,Board_1-unconnected-(U1-GPIO36-Pad30)*%
X143170000Y-26720000D03*
%TO.P,U1,31,GPIO38*%
%TO.N,Board_1-unconnected-(U1-GPIO38-Pad31)*%
X143170000Y-24180000D03*
%TO.P,U1,32,GPIO40*%
%TO.N,Board_1-unconnected-(U1-GPIO40-Pad32)*%
X143170000Y-21640000D03*
%TD*%
D10*
%TO.P,J1,1,Pin_1*%
%TO.N,Board_3-Net-(J1-Pin_1)*%
X192700000Y-22100000D03*
%TO.P,J1,2,Pin_2*%
%TO.N,Board_3-Net-(J1-Pin_2)*%
X190160000Y-22100000D03*
%TD*%
D13*
%TO.N,Board_0-Net-(Q2-E)*%
X104621200Y-33487800D03*
%TO.N,Board_1-Net-(Q2-E)*%
X133141200Y-33487800D03*
%TO.N,Board_2-Net-(Q2-E)*%
X161661200Y-33487800D03*
%TO.N,Board_3-Net-(Q2-E)*%
X190181200Y-33487800D03*
%TO.N,Board_4-Net-(Q2-E)*%
X104621200Y-63917800D03*
%TO.N,Board_5-Net-(Q2-E)*%
X133141200Y-63917800D03*
%TO.N,Board_6-Net-(Q2-E)*%
X161661200Y-63917800D03*
%TO.N,Board_7-Net-(Q2-E)*%
X190181200Y-63917800D03*
%TO.N,Board_8-Net-(Q2-E)*%
X104621200Y-94347800D03*
%TO.N,Board_9-Net-(Q2-E)*%
X133141200Y-94347800D03*
%TO.N,Board_10-Net-(Q2-E)*%
X161661200Y-94347800D03*
%TO.N,Board_11-Net-(Q2-E)*%
X190181200Y-94347800D03*
%TO.N,Board_12-Net-(Q2-E)*%
X104621200Y-124777800D03*
%TO.N,Board_13-Net-(Q2-E)*%
X133141200Y-124777800D03*
%TO.N,Board_14-Net-(Q2-E)*%
X161661200Y-124777800D03*
%TO.N,Board_15-Net-(Q2-E)*%
X190181200Y-124777800D03*
%TD*%
D14*
%TO.N,Board_0-Net-(Q2-E)*%
X108013400Y-36880000D02*
X104621200Y-33487800D01*
X114650000Y-36880000D02*
X108013400Y-36880000D01*
%TO.N,Board_1-Net-(Q2-E)*%
X136533400Y-36880000D02*
X133141200Y-33487800D01*
X143170000Y-36880000D02*
X136533400Y-36880000D01*
%TO.N,Board_2-Net-(Q2-E)*%
X171690000Y-36880000D02*
X165053400Y-36880000D01*
X165053400Y-36880000D02*
X161661200Y-33487800D01*
%TO.N,Board_3-Net-(Q2-E)*%
X193573400Y-36880000D02*
X190181200Y-33487800D01*
X200210000Y-36880000D02*
X193573400Y-36880000D01*
%TO.N,Board_4-Net-(Q2-E)*%
X114650000Y-67310000D02*
X108013400Y-67310000D01*
X108013400Y-67310000D02*
X104621200Y-63917800D01*
%TO.N,Board_5-Net-(Q2-E)*%
X136533400Y-67310000D02*
X133141200Y-63917800D01*
X143170000Y-67310000D02*
X136533400Y-67310000D01*
%TO.N,Board_6-Net-(Q2-E)*%
X165053400Y-67310000D02*
X161661200Y-63917800D01*
X171690000Y-67310000D02*
X165053400Y-67310000D01*
%TO.N,Board_7-Net-(Q2-E)*%
X193573400Y-67310000D02*
X190181200Y-63917800D01*
X200210000Y-67310000D02*
X193573400Y-67310000D01*
%TO.N,Board_8-Net-(Q2-E)*%
X114650000Y-97740000D02*
X108013400Y-97740000D01*
X108013400Y-97740000D02*
X104621200Y-94347800D01*
%TO.N,Board_9-Net-(Q2-E)*%
X143170000Y-97740000D02*
X136533400Y-97740000D01*
X136533400Y-97740000D02*
X133141200Y-94347800D01*
%TO.N,Board_10-Net-(Q2-E)*%
X171690000Y-97740000D02*
X165053400Y-97740000D01*
X165053400Y-97740000D02*
X161661200Y-94347800D01*
%TO.N,Board_11-Net-(Q2-E)*%
X193573400Y-97740000D02*
X190181200Y-94347800D01*
X200210000Y-97740000D02*
X193573400Y-97740000D01*
%TO.N,Board_12-Net-(Q2-E)*%
X108013400Y-128170000D02*
X104621200Y-124777800D01*
X114650000Y-128170000D02*
X108013400Y-128170000D01*
%TO.N,Board_13-Net-(Q2-E)*%
X143170000Y-128170000D02*
X136533400Y-128170000D01*
X136533400Y-128170000D02*
X133141200Y-124777800D01*
%TO.N,Board_14-Net-(Q2-E)*%
X165053400Y-128170000D02*
X161661200Y-124777800D01*
X171690000Y-128170000D02*
X165053400Y-128170000D01*
%TO.N,Board_15-Net-(Q2-E)*%
X193573400Y-128170000D02*
X190181200Y-124777800D01*
X200210000Y-128170000D02*
X193573400Y-128170000D01*
%TD*%
M02*
