%TF.GenerationSoftware,KiCad,Pcbnew,8.0.6*%
%TF.CreationDate,2024-10-19T01:04:28+01:00*%
%TF.ProjectId,panel,70616e65-6c2e-46b6-9963-61645f706362,rev?*%
%TF.SameCoordinates,Original*%
%TF.FileFunction,Profile,NP*%
%FSLAX46Y46*%
G04 Gerber Fmt 4.6, Leading zero omitted, Abs format (unit mm)*
G04 Created by KiCad (PCBNEW 8.0.6) date 2024-10-19 01:04:28*
%MOMM*%
%LPD*%
G01*
G04 APERTURE LIST*
%TA.AperFunction,Profile*%
%ADD10C,0.100000*%
%TD*%
G04 APERTURE END LIST*
D10*
X148499000Y-131410000D02*
X148501000Y-131410000D01*
X165596666Y-79611000D02*
X165596666Y-80860000D01*
X111556666Y-50430000D02*
X111556666Y-49181500D01*
X149750000Y-40120000D02*
X149750000Y-47930000D01*
X99883333Y-47930000D02*
X99883333Y-49179500D01*
X156923333Y-110041000D02*
X156923333Y-111290000D01*
X197116666Y-79611000D02*
X197116666Y-79609000D01*
X131403333Y-50430000D02*
X131403333Y-49181500D01*
X118730000Y-97980000D02*
X118730000Y-91670000D01*
X118730000Y-108790000D02*
X118730000Y-100980000D01*
X111556666Y-49179500D02*
X111556666Y-47930000D01*
X131403333Y-79611000D02*
X131403333Y-79609000D01*
X149750000Y-119100000D02*
X148501000Y-119100000D01*
X147250000Y-108790000D02*
X147250000Y-100980000D01*
X119981000Y-58240000D02*
X119979000Y-58240000D01*
X175770000Y-128410000D02*
X175770000Y-122100000D01*
X159923333Y-80860000D02*
X159923333Y-79611000D01*
X108556666Y-108790000D02*
X108556666Y-110039000D01*
X147250000Y-47930000D02*
X147250000Y-40120000D01*
X108556666Y-49179500D02*
X108556666Y-49181500D01*
X194116666Y-108790000D02*
X194116666Y-110039000D01*
X148501000Y-58240000D02*
X148499000Y-58240000D01*
X159923333Y-79611000D02*
X159923333Y-79609000D01*
X175770000Y-58240000D02*
X175770000Y-50430000D01*
X147250000Y-50430000D02*
X140076666Y-50430000D01*
X119981000Y-100980000D02*
X121230000Y-100980000D01*
X119979000Y-100980000D02*
X119981000Y-100980000D01*
X128403333Y-79611000D02*
X128403333Y-80860000D01*
X177019000Y-67550000D02*
X175770000Y-67550000D01*
X102883333Y-50430000D02*
X102883333Y-49181500D01*
X128403333Y-78360000D02*
X128403333Y-79609000D01*
X147250000Y-139220000D02*
X147250000Y-131410000D01*
X165596666Y-110039000D02*
X165596666Y-110041000D01*
X194116666Y-49179500D02*
X194116666Y-49181500D01*
X92710000Y-50430000D02*
X92710000Y-78360000D01*
X149750000Y-108790000D02*
X156923333Y-108790000D01*
X177019000Y-100980000D02*
X177021000Y-100980000D01*
X119981000Y-27810000D02*
X119979000Y-27810000D01*
X149750000Y-58240000D02*
X148501000Y-58240000D01*
X111556666Y-79609000D02*
X111556666Y-78360000D01*
X149750000Y-30810000D02*
X149750000Y-37120000D01*
X99883333Y-79609000D02*
X99883333Y-79611000D01*
X119979000Y-128410000D02*
X118730000Y-128410000D01*
X156923333Y-110039000D02*
X156923333Y-110041000D01*
X149750000Y-67550000D02*
X148501000Y-67550000D01*
X177019000Y-97980000D02*
X175770000Y-97980000D01*
X102883333Y-79609000D02*
X102883333Y-78360000D01*
X148501000Y-67550000D02*
X148499000Y-67550000D01*
X185443333Y-49179500D02*
X185443333Y-49181500D01*
X92710000Y-78360000D02*
X99883333Y-78360000D01*
X204290000Y-139220000D02*
X204290000Y-111290000D01*
X147250000Y-40120000D02*
X148499000Y-40120000D01*
X177019000Y-40120000D02*
X177021000Y-40120000D01*
X188443333Y-49179500D02*
X188443333Y-47930000D01*
X119981000Y-70550000D02*
X121230000Y-70550000D01*
X119979000Y-27810000D02*
X118730000Y-27810000D01*
X175770000Y-80860000D02*
X168596666Y-80860000D01*
X188443333Y-79609000D02*
X188443333Y-78360000D01*
X148499000Y-128410000D02*
X147250000Y-128410000D01*
X168596666Y-110039000D02*
X168596666Y-108790000D01*
X165596666Y-79609000D02*
X165596666Y-79611000D01*
X111556666Y-49181500D02*
X111556666Y-49179500D01*
X111556666Y-111290000D02*
X111556666Y-110041000D01*
X165596666Y-80860000D02*
X159923333Y-80860000D01*
X118730000Y-27810000D02*
X118730000Y-20000000D01*
X197116666Y-111290000D02*
X197116666Y-110041000D01*
X178270000Y-131410000D02*
X178270000Y-139220000D01*
X177019000Y-37120000D02*
X175770000Y-37120000D01*
X188443333Y-78360000D02*
X194116666Y-78360000D01*
X175770000Y-37120000D02*
X175770000Y-30810000D01*
X197116666Y-110041000D02*
X197116666Y-110039000D01*
X168596666Y-111290000D02*
X168596666Y-110041000D01*
X165596666Y-49179500D02*
X165596666Y-49181500D01*
X185443333Y-79611000D02*
X185443333Y-80860000D01*
X148501000Y-119100000D02*
X148499000Y-119100000D01*
X178270000Y-20000000D02*
X178270000Y-27810000D01*
X149750000Y-50430000D02*
X149750000Y-58240000D01*
X165596666Y-50430000D02*
X159923333Y-50430000D01*
X99883333Y-108790000D02*
X99883333Y-110039000D01*
X137076666Y-78360000D02*
X137076666Y-79609000D01*
X131403333Y-79609000D02*
X131403333Y-78360000D01*
X92710000Y-111290000D02*
X92710000Y-139220000D01*
X137076666Y-50430000D02*
X131403333Y-50430000D01*
X175770000Y-119100000D02*
X175770000Y-111290000D01*
X197116666Y-80860000D02*
X197116666Y-79611000D01*
X118730000Y-80860000D02*
X111556666Y-80860000D01*
X149750000Y-20000000D02*
X149750000Y-27810000D01*
X108556666Y-78360000D02*
X108556666Y-79609000D01*
X119979000Y-61240000D02*
X119981000Y-61240000D01*
X148499000Y-97980000D02*
X147250000Y-97980000D01*
X99883333Y-110041000D02*
X99883333Y-111290000D01*
X177021000Y-58240000D02*
X177019000Y-58240000D01*
X111556666Y-47930000D02*
X118730000Y-47930000D01*
X92710000Y-80860000D02*
X92710000Y-108790000D01*
X92710000Y-47930000D02*
X99883333Y-47930000D01*
X175770000Y-88670000D02*
X175770000Y-80860000D01*
X131403333Y-49181500D02*
X131403333Y-49179500D01*
X102883333Y-108790000D02*
X108556666Y-108790000D01*
X178270000Y-111290000D02*
X178270000Y-119100000D01*
X147250000Y-111290000D02*
X140076666Y-111290000D01*
X137076666Y-111290000D02*
X131403333Y-111290000D01*
X175770000Y-97980000D02*
X175770000Y-91670000D01*
X118730000Y-58240000D02*
X118730000Y-50430000D01*
X119979000Y-97980000D02*
X118730000Y-97980000D01*
X121230000Y-58240000D02*
X119981000Y-58240000D01*
X147250000Y-37120000D02*
X147250000Y-30810000D01*
X99883333Y-49181500D02*
X99883333Y-50430000D01*
X147250000Y-30810000D02*
X148499000Y-30810000D01*
X121230000Y-37120000D02*
X119981000Y-37120000D01*
X188443333Y-111290000D02*
X188443333Y-110041000D01*
X119981000Y-131410000D02*
X121230000Y-131410000D01*
X102883333Y-79611000D02*
X102883333Y-79609000D01*
X149750000Y-91670000D02*
X149750000Y-97980000D01*
X177021000Y-119100000D02*
X177019000Y-119100000D01*
X178270000Y-97980000D02*
X177021000Y-97980000D01*
X177021000Y-91670000D02*
X178270000Y-91670000D01*
X121230000Y-100980000D02*
X121230000Y-108790000D01*
X178270000Y-40120000D02*
X178270000Y-47930000D01*
X165596666Y-78360000D02*
X165596666Y-79609000D01*
X121230000Y-47930000D02*
X128403333Y-47930000D01*
X119979000Y-58240000D02*
X118730000Y-58240000D01*
X118730000Y-88670000D02*
X118730000Y-80860000D01*
X175770000Y-61240000D02*
X177019000Y-61240000D01*
X177019000Y-91670000D02*
X177021000Y-91670000D01*
X99883333Y-78360000D02*
X99883333Y-79609000D01*
X197116666Y-49179500D02*
X197116666Y-47930000D01*
X156923333Y-78360000D02*
X156923333Y-79609000D01*
X159923333Y-49179500D02*
X159923333Y-47930000D01*
X159923333Y-50430000D02*
X159923333Y-49181500D01*
X119979000Y-88670000D02*
X118730000Y-88670000D01*
X149750000Y-128410000D02*
X148501000Y-128410000D01*
X177021000Y-97980000D02*
X177019000Y-97980000D01*
X131403333Y-108790000D02*
X137076666Y-108790000D01*
X128403333Y-49179500D02*
X128403333Y-49181500D01*
X99883333Y-110039000D02*
X99883333Y-110041000D01*
X177021000Y-30810000D02*
X178270000Y-30810000D01*
X175770000Y-50430000D02*
X168596666Y-50430000D01*
X168596666Y-50430000D02*
X168596666Y-49181500D01*
X140076666Y-50430000D02*
X140076666Y-49181500D01*
X177021000Y-27810000D02*
X177019000Y-27810000D01*
X140076666Y-110041000D02*
X140076666Y-110039000D01*
X102883333Y-110041000D02*
X102883333Y-110039000D01*
X121230000Y-131410000D02*
X121230000Y-139220000D01*
X99883333Y-50430000D02*
X92710000Y-50430000D01*
X111556666Y-78360000D02*
X118730000Y-78360000D01*
X121230000Y-108790000D02*
X128403333Y-108790000D01*
X165596666Y-111290000D02*
X159923333Y-111290000D01*
X175770000Y-40120000D02*
X177019000Y-40120000D01*
X137076666Y-47930000D02*
X137076666Y-49179500D01*
X108556666Y-47930000D02*
X108556666Y-49179500D01*
X178270000Y-139220000D02*
X204290000Y-139220000D01*
X175770000Y-30810000D02*
X177019000Y-30810000D01*
X188443333Y-50430000D02*
X188443333Y-49181500D01*
X175770000Y-27810000D02*
X175770000Y-20000000D01*
X156923333Y-108790000D02*
X156923333Y-110039000D01*
X175770000Y-131410000D02*
X177019000Y-131410000D01*
X204290000Y-50430000D02*
X197116666Y-50430000D01*
X128403333Y-111290000D02*
X121230000Y-111290000D01*
X118730000Y-20000000D02*
X92710000Y-20000000D01*
X147250000Y-70550000D02*
X148499000Y-70550000D01*
X178270000Y-128410000D02*
X177021000Y-128410000D01*
X119979000Y-37120000D02*
X118730000Y-37120000D01*
X156923333Y-49179500D02*
X156923333Y-49181500D01*
X178270000Y-91670000D02*
X178270000Y-97980000D01*
X178270000Y-37120000D02*
X177021000Y-37120000D01*
X121230000Y-20000000D02*
X121230000Y-27810000D01*
X148499000Y-119100000D02*
X147250000Y-119100000D01*
X92710000Y-108790000D02*
X99883333Y-108790000D01*
X99883333Y-49179500D02*
X99883333Y-49181500D01*
X175770000Y-122100000D02*
X177019000Y-122100000D01*
X148499000Y-58240000D02*
X147250000Y-58240000D01*
X148501000Y-70550000D02*
X149750000Y-70550000D01*
X177021000Y-100980000D02*
X178270000Y-100980000D01*
X140076666Y-80860000D02*
X140076666Y-79611000D01*
X92710000Y-20000000D02*
X92710000Y-47930000D01*
X148501000Y-91670000D02*
X149750000Y-91670000D01*
X156923333Y-79611000D02*
X156923333Y-80860000D01*
X194116666Y-110039000D02*
X194116666Y-110041000D01*
X194116666Y-110041000D02*
X194116666Y-111290000D01*
X118730000Y-91670000D02*
X119979000Y-91670000D01*
X111556666Y-80860000D02*
X111556666Y-79611000D01*
X121230000Y-119100000D02*
X119981000Y-119100000D01*
X118730000Y-100980000D02*
X119979000Y-100980000D01*
X118730000Y-61240000D02*
X119979000Y-61240000D01*
X119979000Y-91670000D02*
X119981000Y-91670000D01*
X159923333Y-78360000D02*
X165596666Y-78360000D01*
X119979000Y-30810000D02*
X119981000Y-30810000D01*
X119981000Y-88670000D02*
X119979000Y-88670000D01*
X148499000Y-37120000D02*
X147250000Y-37120000D01*
X121230000Y-128410000D02*
X119981000Y-128410000D01*
X148501000Y-100980000D02*
X149750000Y-100980000D01*
X119979000Y-40120000D02*
X119981000Y-40120000D01*
X118730000Y-128410000D02*
X118730000Y-122100000D01*
X175770000Y-47930000D02*
X175770000Y-40120000D01*
X178270000Y-30810000D02*
X178270000Y-37120000D01*
X148499000Y-61240000D02*
X148501000Y-61240000D01*
X140076666Y-79609000D02*
X140076666Y-78360000D01*
X188443333Y-49181500D02*
X188443333Y-49179500D01*
X168596666Y-47930000D02*
X175770000Y-47930000D01*
X148501000Y-27810000D02*
X148499000Y-27810000D01*
X118730000Y-37120000D02*
X118730000Y-30810000D01*
X131403333Y-111290000D02*
X131403333Y-110041000D01*
X137076666Y-49179500D02*
X137076666Y-49181500D01*
X118730000Y-119100000D02*
X118730000Y-111290000D01*
X177021000Y-70550000D02*
X178270000Y-70550000D01*
X118730000Y-30810000D02*
X119979000Y-30810000D01*
X137076666Y-79609000D02*
X137076666Y-79611000D01*
X156923333Y-80860000D02*
X149750000Y-80860000D01*
X185443333Y-110041000D02*
X185443333Y-111290000D01*
X149750000Y-70550000D02*
X149750000Y-78360000D01*
X177019000Y-58240000D02*
X175770000Y-58240000D01*
X119981000Y-67550000D02*
X119979000Y-67550000D01*
X121230000Y-139220000D02*
X147250000Y-139220000D01*
X156923333Y-50430000D02*
X149750000Y-50430000D01*
X178270000Y-100980000D02*
X178270000Y-108790000D01*
X137076666Y-79611000D02*
X137076666Y-80860000D01*
X121230000Y-91670000D02*
X121230000Y-97980000D01*
X178270000Y-119100000D02*
X177021000Y-119100000D01*
X111556666Y-108790000D02*
X118730000Y-108790000D01*
X147250000Y-88670000D02*
X147250000Y-80860000D01*
X194116666Y-79611000D02*
X194116666Y-80860000D01*
X177021000Y-131410000D02*
X178270000Y-131410000D01*
X140076666Y-78360000D02*
X147250000Y-78360000D01*
X168596666Y-110041000D02*
X168596666Y-110039000D01*
X175770000Y-108790000D02*
X175770000Y-100980000D01*
X177021000Y-128410000D02*
X177019000Y-128410000D01*
X175770000Y-111290000D02*
X168596666Y-111290000D01*
X121230000Y-27810000D02*
X119981000Y-27810000D01*
X111556666Y-110041000D02*
X111556666Y-110039000D01*
X159923333Y-111290000D02*
X159923333Y-110041000D01*
X118730000Y-122100000D02*
X119979000Y-122100000D01*
X178270000Y-61240000D02*
X178270000Y-67550000D01*
X111556666Y-110039000D02*
X111556666Y-108790000D01*
X177021000Y-88670000D02*
X177019000Y-88670000D01*
X194116666Y-79609000D02*
X194116666Y-79611000D01*
X149750000Y-61240000D02*
X149750000Y-67550000D01*
X137076666Y-110041000D02*
X137076666Y-111290000D01*
X177019000Y-27810000D02*
X175770000Y-27810000D01*
X185443333Y-50430000D02*
X178270000Y-50430000D01*
X108556666Y-80860000D02*
X102883333Y-80860000D01*
X108556666Y-79611000D02*
X108556666Y-80860000D01*
X197116666Y-49181500D02*
X197116666Y-49179500D01*
X175770000Y-139220000D02*
X175770000Y-131410000D01*
X148501000Y-30810000D02*
X149750000Y-30810000D01*
X168596666Y-108790000D02*
X175770000Y-108790000D01*
X177019000Y-61240000D02*
X177021000Y-61240000D01*
X128403333Y-49181500D02*
X128403333Y-50430000D01*
X149750000Y-100980000D02*
X149750000Y-108790000D01*
X204290000Y-78360000D02*
X204290000Y-50430000D01*
X131403333Y-110039000D02*
X131403333Y-108790000D01*
X188443333Y-108790000D02*
X194116666Y-108790000D01*
X148499000Y-122100000D02*
X148501000Y-122100000D01*
X102883333Y-49181500D02*
X102883333Y-49179500D01*
X119979000Y-131410000D02*
X119981000Y-131410000D01*
X121230000Y-61240000D02*
X121230000Y-67550000D01*
X149750000Y-122100000D02*
X149750000Y-128410000D01*
X149750000Y-37120000D02*
X148501000Y-37120000D01*
X177019000Y-128410000D02*
X175770000Y-128410000D01*
X149750000Y-78360000D02*
X156923333Y-78360000D01*
X148499000Y-27810000D02*
X147250000Y-27810000D01*
X197116666Y-108790000D02*
X204290000Y-108790000D01*
X108556666Y-110041000D02*
X108556666Y-111290000D01*
X185443333Y-79609000D02*
X185443333Y-79611000D01*
X147250000Y-27810000D02*
X147250000Y-20000000D01*
X131403333Y-110041000D02*
X131403333Y-110039000D01*
X148499000Y-67550000D02*
X147250000Y-67550000D01*
X147250000Y-100980000D02*
X148499000Y-100980000D01*
X128403333Y-50430000D02*
X121230000Y-50430000D01*
X108556666Y-110039000D02*
X108556666Y-110041000D01*
X185443333Y-49181500D02*
X185443333Y-50430000D01*
X147250000Y-131410000D02*
X148499000Y-131410000D01*
X156923333Y-111290000D02*
X149750000Y-111290000D01*
X185443333Y-110039000D02*
X185443333Y-110041000D01*
X185443333Y-47930000D02*
X185443333Y-49179500D01*
X178270000Y-122100000D02*
X178270000Y-128410000D01*
X131403333Y-78360000D02*
X137076666Y-78360000D01*
X177021000Y-67550000D02*
X177019000Y-67550000D01*
X165596666Y-110041000D02*
X165596666Y-111290000D01*
X177019000Y-131410000D02*
X177021000Y-131410000D01*
X108556666Y-111290000D02*
X102883333Y-111290000D01*
X140076666Y-111290000D02*
X140076666Y-110041000D01*
X119979000Y-119100000D02*
X118730000Y-119100000D01*
X131403333Y-47930000D02*
X137076666Y-47930000D01*
X178270000Y-108790000D02*
X185443333Y-108790000D01*
X188443333Y-79611000D02*
X188443333Y-79609000D01*
X148499000Y-30810000D02*
X148501000Y-30810000D01*
X168596666Y-49181500D02*
X168596666Y-49179500D01*
X119979000Y-67550000D02*
X118730000Y-67550000D01*
X147250000Y-67550000D02*
X147250000Y-61240000D01*
X102883333Y-49179500D02*
X102883333Y-47930000D01*
X118730000Y-111290000D02*
X111556666Y-111290000D01*
X194116666Y-49181500D02*
X194116666Y-50430000D01*
X185443333Y-80860000D02*
X178270000Y-80860000D01*
X159923333Y-79609000D02*
X159923333Y-78360000D01*
X118730000Y-50430000D02*
X111556666Y-50430000D01*
X140076666Y-49181500D02*
X140076666Y-49179500D01*
X121230000Y-50430000D02*
X121230000Y-58240000D01*
X128403333Y-110041000D02*
X128403333Y-111290000D01*
X149750000Y-139220000D02*
X175770000Y-139220000D01*
X204290000Y-108790000D02*
X204290000Y-80860000D01*
X131403333Y-49179500D02*
X131403333Y-47930000D01*
X148501000Y-128410000D02*
X148499000Y-128410000D01*
X194116666Y-111290000D02*
X188443333Y-111290000D01*
X159923333Y-108790000D02*
X165596666Y-108790000D01*
X118730000Y-78360000D02*
X118730000Y-70550000D01*
X119981000Y-128410000D02*
X119979000Y-128410000D01*
X140076666Y-79611000D02*
X140076666Y-79609000D01*
X148499000Y-91670000D02*
X148501000Y-91670000D01*
X148501000Y-88670000D02*
X148499000Y-88670000D01*
X148501000Y-61240000D02*
X149750000Y-61240000D01*
X149750000Y-97980000D02*
X148501000Y-97980000D01*
X178270000Y-47930000D02*
X185443333Y-47930000D01*
X148501000Y-122100000D02*
X149750000Y-122100000D01*
X197116666Y-50430000D02*
X197116666Y-49181500D01*
X156923333Y-49181500D02*
X156923333Y-50430000D01*
X149750000Y-27810000D02*
X148501000Y-27810000D01*
X137076666Y-110039000D02*
X137076666Y-110041000D01*
X149750000Y-88670000D02*
X148501000Y-88670000D01*
X147250000Y-122100000D02*
X148499000Y-122100000D01*
X165596666Y-49181500D02*
X165596666Y-50430000D01*
X108556666Y-79609000D02*
X108556666Y-79611000D01*
X148501000Y-97980000D02*
X148499000Y-97980000D01*
X185443333Y-111290000D02*
X178270000Y-111290000D01*
X119981000Y-119100000D02*
X119979000Y-119100000D01*
X108556666Y-50430000D02*
X102883333Y-50430000D01*
X121230000Y-97980000D02*
X119981000Y-97980000D01*
X119981000Y-91670000D02*
X121230000Y-91670000D01*
X148499000Y-70550000D02*
X148501000Y-70550000D01*
X102883333Y-78360000D02*
X108556666Y-78360000D01*
X188443333Y-80860000D02*
X188443333Y-79611000D01*
X119979000Y-122100000D02*
X119981000Y-122100000D01*
X177021000Y-61240000D02*
X178270000Y-61240000D01*
X128403333Y-110039000D02*
X128403333Y-110041000D01*
X177019000Y-88670000D02*
X175770000Y-88670000D01*
X197116666Y-110039000D02*
X197116666Y-108790000D01*
X121230000Y-111290000D02*
X121230000Y-119100000D01*
X159923333Y-110039000D02*
X159923333Y-108790000D01*
X197116666Y-79609000D02*
X197116666Y-78360000D01*
X102883333Y-80860000D02*
X102883333Y-79611000D01*
X177021000Y-122100000D02*
X178270000Y-122100000D01*
X194116666Y-50430000D02*
X188443333Y-50430000D01*
X178270000Y-88670000D02*
X177021000Y-88670000D01*
X175770000Y-70550000D02*
X177019000Y-70550000D01*
X137076666Y-80860000D02*
X131403333Y-80860000D01*
X119981000Y-122100000D02*
X121230000Y-122100000D01*
X140076666Y-110039000D02*
X140076666Y-108790000D01*
X204290000Y-20000000D02*
X178270000Y-20000000D01*
X140076666Y-108790000D02*
X147250000Y-108790000D01*
X168596666Y-79611000D02*
X168596666Y-79609000D01*
X159923333Y-49181500D02*
X159923333Y-49179500D01*
X149750000Y-131410000D02*
X149750000Y-139220000D01*
X148501000Y-131410000D02*
X149750000Y-131410000D01*
X175770000Y-67550000D02*
X175770000Y-61240000D01*
X188443333Y-110041000D02*
X188443333Y-110039000D01*
X147250000Y-119100000D02*
X147250000Y-111290000D01*
X204290000Y-47930000D02*
X204290000Y-20000000D01*
X148501000Y-37120000D02*
X148499000Y-37120000D01*
X121230000Y-40120000D02*
X121230000Y-47930000D01*
X185443333Y-108790000D02*
X185443333Y-110039000D01*
X149750000Y-111290000D02*
X149750000Y-119100000D01*
X128403333Y-80860000D02*
X121230000Y-80860000D01*
X197116666Y-78360000D02*
X204290000Y-78360000D01*
X159923333Y-110041000D02*
X159923333Y-110039000D01*
X188443333Y-110039000D02*
X188443333Y-108790000D01*
X178270000Y-67550000D02*
X177021000Y-67550000D01*
X147250000Y-58240000D02*
X147250000Y-50430000D01*
X147250000Y-78360000D02*
X147250000Y-70550000D01*
X119981000Y-37120000D02*
X119979000Y-37120000D01*
X108556666Y-49181500D02*
X108556666Y-50430000D01*
X119981000Y-97980000D02*
X119979000Y-97980000D01*
X149750000Y-47930000D02*
X156923333Y-47930000D01*
X140076666Y-49179500D02*
X140076666Y-47930000D01*
X137076666Y-108790000D02*
X137076666Y-110039000D01*
X111556666Y-79611000D02*
X111556666Y-79609000D01*
X119981000Y-30810000D02*
X121230000Y-30810000D01*
X177019000Y-122100000D02*
X177021000Y-122100000D01*
X177021000Y-37120000D02*
X177019000Y-37120000D01*
X148499000Y-88670000D02*
X147250000Y-88670000D01*
X99883333Y-80860000D02*
X92710000Y-80860000D01*
X148499000Y-100980000D02*
X148501000Y-100980000D01*
X168596666Y-49179500D02*
X168596666Y-47930000D01*
X118730000Y-40120000D02*
X119979000Y-40120000D01*
X175770000Y-91670000D02*
X177019000Y-91670000D01*
X194116666Y-80860000D02*
X188443333Y-80860000D01*
X147250000Y-80860000D02*
X140076666Y-80860000D01*
X149750000Y-80860000D02*
X149750000Y-88670000D01*
X121230000Y-67550000D02*
X119981000Y-67550000D01*
X159923333Y-47930000D02*
X165596666Y-47930000D01*
X175770000Y-20000000D02*
X149750000Y-20000000D01*
X156923333Y-79609000D02*
X156923333Y-79611000D01*
X92710000Y-139220000D02*
X118730000Y-139220000D01*
X137076666Y-49181500D02*
X137076666Y-50430000D01*
X194116666Y-78360000D02*
X194116666Y-79609000D01*
X156923333Y-47930000D02*
X156923333Y-49179500D01*
X118730000Y-47930000D02*
X118730000Y-40120000D01*
X165596666Y-47930000D02*
X165596666Y-49179500D01*
X204290000Y-80860000D02*
X197116666Y-80860000D01*
X178270000Y-27810000D02*
X177021000Y-27810000D01*
X148499000Y-40120000D02*
X148501000Y-40120000D01*
X177019000Y-70550000D02*
X177021000Y-70550000D01*
X168596666Y-80860000D02*
X168596666Y-79611000D01*
X178270000Y-80860000D02*
X178270000Y-88670000D01*
X118730000Y-139220000D02*
X118730000Y-131410000D01*
X177019000Y-119100000D02*
X175770000Y-119100000D01*
X177021000Y-40120000D02*
X178270000Y-40120000D01*
X102883333Y-110039000D02*
X102883333Y-108790000D01*
X128403333Y-108790000D02*
X128403333Y-110039000D01*
X140076666Y-47930000D02*
X147250000Y-47930000D01*
X121230000Y-78360000D02*
X128403333Y-78360000D01*
X131403333Y-80860000D02*
X131403333Y-79611000D01*
X147250000Y-91670000D02*
X148499000Y-91670000D01*
X147250000Y-20000000D02*
X121230000Y-20000000D01*
X147250000Y-61240000D02*
X148499000Y-61240000D01*
X121230000Y-80860000D02*
X121230000Y-88670000D01*
X147250000Y-128410000D02*
X147250000Y-122100000D01*
X99883333Y-79611000D02*
X99883333Y-80860000D01*
X118730000Y-70550000D02*
X119979000Y-70550000D01*
X168596666Y-78360000D02*
X175770000Y-78360000D01*
X178270000Y-78360000D02*
X185443333Y-78360000D01*
X121230000Y-88670000D02*
X119981000Y-88670000D01*
X194116666Y-47930000D02*
X194116666Y-49179500D01*
X119979000Y-70550000D02*
X119981000Y-70550000D01*
X178270000Y-58240000D02*
X177021000Y-58240000D01*
X102883333Y-47930000D02*
X108556666Y-47930000D01*
X119981000Y-61240000D02*
X121230000Y-61240000D01*
X148501000Y-40120000D02*
X149750000Y-40120000D01*
X188443333Y-47930000D02*
X194116666Y-47930000D01*
X175770000Y-100980000D02*
X177019000Y-100980000D01*
X165596666Y-108790000D02*
X165596666Y-110039000D01*
X121230000Y-122100000D02*
X121230000Y-128410000D01*
X178270000Y-70550000D02*
X178270000Y-78360000D01*
X102883333Y-111290000D02*
X102883333Y-110041000D01*
X121230000Y-70550000D02*
X121230000Y-78360000D01*
X204290000Y-111290000D02*
X197116666Y-111290000D01*
X118730000Y-67550000D02*
X118730000Y-61240000D01*
X185443333Y-78360000D02*
X185443333Y-79609000D01*
X177019000Y-30810000D02*
X177021000Y-30810000D01*
X175770000Y-78360000D02*
X175770000Y-70550000D01*
X121230000Y-30810000D02*
X121230000Y-37120000D01*
X128403333Y-47930000D02*
X128403333Y-49179500D01*
X168596666Y-79609000D02*
X168596666Y-78360000D01*
X197116666Y-47930000D02*
X204290000Y-47930000D01*
X147250000Y-97980000D02*
X147250000Y-91670000D01*
X119981000Y-40120000D02*
X121230000Y-40120000D01*
X178270000Y-50430000D02*
X178270000Y-58240000D01*
X118730000Y-131410000D02*
X119979000Y-131410000D01*
X99883333Y-111290000D02*
X92710000Y-111290000D01*
X128403333Y-79609000D02*
X128403333Y-79611000D01*
M02*
