M48
; DRILL file {KiCad 8.0.6} date 2024-10-19T01:04:42+0100
; FORMAT={-:-/ absolute / inch / decimal}
; #@! TF.CreationDate,2024-10-19T01:04:42+01:00
; #@! TF.GenerationSoftware,Kicad,Pcbnew,8.0.6
; #@! TF.FileFunction,Plated,1,2,PTH
FMAT,2
INCH
; #@! TA.AperFunction,Plated,PTH,ViaDrill
T1C0.0118
; #@! TA.AperFunction,Plated,PTH,ComponentDrill
T2C0.0394
%
G90
G05
T1
X4.1189Y-1.3184
X4.1189Y-2.5164
X4.1189Y-3.7145
X4.1189Y-4.9125
X5.2418Y-1.3184
X5.2418Y-2.5164
X5.2418Y-3.7145
X5.2418Y-4.9125
X6.3646Y-1.3184
X6.3646Y-2.5164
X6.3646Y-3.7145
X6.3646Y-4.9125
X7.4874Y-1.3184
X7.4874Y-2.5164
X7.4874Y-3.7145
X7.4874Y-4.9125
T2
X3.7138Y-0.852
X3.7138Y-0.952
X3.7138Y-1.052
X3.7138Y-1.152
X3.7138Y-1.252
X3.7138Y-1.352
X3.7138Y-1.452
X3.7138Y-1.552
X3.7138Y-2.05
X3.7138Y-2.15
X3.7138Y-2.25
X3.7138Y-2.35
X3.7138Y-2.45
X3.7138Y-2.55
X3.7138Y-2.65
X3.7138Y-2.75
X3.7138Y-3.248
X3.7138Y-3.348
X3.7138Y-3.448
X3.7138Y-3.548
X3.7138Y-3.648
X3.7138Y-3.748
X3.7138Y-3.848
X3.7138Y-3.948
X3.7138Y-4.4461
X3.7138Y-4.5461
X3.7138Y-4.6461
X3.7138Y-4.7461
X3.7138Y-4.8461
X3.7138Y-4.9461
X3.7138Y-5.0461
X3.7138Y-5.1461
X3.8138Y-0.852
X3.8138Y-0.952
X3.8138Y-1.052
X3.8138Y-1.152
X3.8138Y-1.252
X3.8138Y-1.352
X3.8138Y-1.452
X3.8138Y-1.552
X3.8138Y-2.05
X3.8138Y-2.15
X3.8138Y-2.25
X3.8138Y-2.35
X3.8138Y-2.45
X3.8138Y-2.55
X3.8138Y-2.65
X3.8138Y-2.75
X3.8138Y-3.248
X3.8138Y-3.348
X3.8138Y-3.448
X3.8138Y-3.548
X3.8138Y-3.648
X3.8138Y-3.748
X3.8138Y-3.848
X3.8138Y-3.948
X3.8138Y-4.4461
X3.8138Y-4.5461
X3.8138Y-4.6461
X3.8138Y-4.7461
X3.8138Y-4.8461
X3.8138Y-4.9461
X3.8138Y-5.0461
X3.8138Y-5.1461
X4.1181Y-0.8701
X4.1181Y-2.0681
X4.1181Y-3.2661
X4.1181Y-4.4642
X4.2181Y-0.8701
X4.2181Y-2.0681
X4.2181Y-3.2661
X4.2181Y-4.4642
X4.5138Y-0.852
X4.5138Y-0.952
X4.5138Y-1.052
X4.5138Y-1.152
X4.5138Y-1.252
X4.5138Y-1.352
X4.5138Y-1.452
X4.5138Y-1.552
X4.5138Y-2.05
X4.5138Y-2.15
X4.5138Y-2.25
X4.5138Y-2.35
X4.5138Y-2.45
X4.5138Y-2.55
X4.5138Y-2.65
X4.5138Y-2.75
X4.5138Y-3.248
X4.5138Y-3.348
X4.5138Y-3.448
X4.5138Y-3.548
X4.5138Y-3.648
X4.5138Y-3.748
X4.5138Y-3.848
X4.5138Y-3.948
X4.5138Y-4.4461
X4.5138Y-4.5461
X4.5138Y-4.6461
X4.5138Y-4.7461
X4.5138Y-4.8461
X4.5138Y-4.9461
X4.5138Y-5.0461
X4.5138Y-5.1461
X4.6138Y-0.852
X4.6138Y-0.952
X4.6138Y-1.052
X4.6138Y-1.152
X4.6138Y-1.252
X4.6138Y-1.352
X4.6138Y-1.452
X4.6138Y-1.552
X4.6138Y-2.05
X4.6138Y-2.15
X4.6138Y-2.25
X4.6138Y-2.35
X4.6138Y-2.45
X4.6138Y-2.55
X4.6138Y-2.65
X4.6138Y-2.75
X4.6138Y-3.248
X4.6138Y-3.348
X4.6138Y-3.448
X4.6138Y-3.548
X4.6138Y-3.648
X4.6138Y-3.748
X4.6138Y-3.848
X4.6138Y-3.948
X4.6138Y-4.4461
X4.6138Y-4.5461
X4.6138Y-4.6461
X4.6138Y-4.7461
X4.6138Y-4.8461
X4.6138Y-4.9461
X4.6138Y-5.0461
X4.6138Y-5.1461
X4.8366Y-0.852
X4.8366Y-0.952
X4.8366Y-1.052
X4.8366Y-1.152
X4.8366Y-1.252
X4.8366Y-1.352
X4.8366Y-1.452
X4.8366Y-1.552
X4.8366Y-2.05
X4.8366Y-2.15
X4.8366Y-2.25
X4.8366Y-2.35
X4.8366Y-2.45
X4.8366Y-2.55
X4.8366Y-2.65
X4.8366Y-2.75
X4.8366Y-3.248
X4.8366Y-3.348
X4.8366Y-3.448
X4.8366Y-3.548
X4.8366Y-3.648
X4.8366Y-3.748
X4.8366Y-3.848
X4.8366Y-3.948
X4.8366Y-4.4461
X4.8366Y-4.5461
X4.8366Y-4.6461
X4.8366Y-4.7461
X4.8366Y-4.8461
X4.8366Y-4.9461
X4.8366Y-5.0461
X4.8366Y-5.1461
X4.9366Y-0.852
X4.9366Y-0.952
X4.9366Y-1.052
X4.9366Y-1.152
X4.9366Y-1.252
X4.9366Y-1.352
X4.9366Y-1.452
X4.9366Y-1.552
X4.9366Y-2.05
X4.9366Y-2.15
X4.9366Y-2.25
X4.9366Y-2.35
X4.9366Y-2.45
X4.9366Y-2.55
X4.9366Y-2.65
X4.9366Y-2.75
X4.9366Y-3.248
X4.9366Y-3.348
X4.9366Y-3.448
X4.9366Y-3.548
X4.9366Y-3.648
X4.9366Y-3.748
X4.9366Y-3.848
X4.9366Y-3.948
X4.9366Y-4.4461
X4.9366Y-4.5461
X4.9366Y-4.6461
X4.9366Y-4.7461
X4.9366Y-4.8461
X4.9366Y-4.9461
X4.9366Y-5.0461
X4.9366Y-5.1461
X5.2409Y-0.8701
X5.2409Y-2.0681
X5.2409Y-3.2661
X5.2409Y-4.4642
X5.3409Y-0.8701
X5.3409Y-2.0681
X5.3409Y-3.2661
X5.3409Y-4.4642
X5.6366Y-0.852
X5.6366Y-0.952
X5.6366Y-1.052
X5.6366Y-1.152
X5.6366Y-1.252
X5.6366Y-1.352
X5.6366Y-1.452
X5.6366Y-1.552
X5.6366Y-2.05
X5.6366Y-2.15
X5.6366Y-2.25
X5.6366Y-2.35
X5.6366Y-2.45
X5.6366Y-2.55
X5.6366Y-2.65
X5.6366Y-2.75
X5.6366Y-3.248
X5.6366Y-3.348
X5.6366Y-3.448
X5.6366Y-3.548
X5.6366Y-3.648
X5.6366Y-3.748
X5.6366Y-3.848
X5.6366Y-3.948
X5.6366Y-4.4461
X5.6366Y-4.5461
X5.6366Y-4.6461
X5.6366Y-4.7461
X5.6366Y-4.8461
X5.6366Y-4.9461
X5.6366Y-5.0461
X5.6366Y-5.1461
X5.7366Y-0.852
X5.7366Y-0.952
X5.7366Y-1.052
X5.7366Y-1.152
X5.7366Y-1.252
X5.7366Y-1.352
X5.7366Y-1.452
X5.7366Y-1.552
X5.7366Y-2.05
X5.7366Y-2.15
X5.7366Y-2.25
X5.7366Y-2.35
X5.7366Y-2.45
X5.7366Y-2.55
X5.7366Y-2.65
X5.7366Y-2.75
X5.7366Y-3.248
X5.7366Y-3.348
X5.7366Y-3.448
X5.7366Y-3.548
X5.7366Y-3.648
X5.7366Y-3.748
X5.7366Y-3.848
X5.7366Y-3.948
X5.7366Y-4.4461
X5.7366Y-4.5461
X5.7366Y-4.6461
X5.7366Y-4.7461
X5.7366Y-4.8461
X5.7366Y-4.9461
X5.7366Y-5.0461
X5.7366Y-5.1461
X5.9594Y-0.852
X5.9594Y-0.952
X5.9594Y-1.052
X5.9594Y-1.152
X5.9594Y-1.252
X5.9594Y-1.352
X5.9594Y-1.452
X5.9594Y-1.552
X5.9594Y-2.05
X5.9594Y-2.15
X5.9594Y-2.25
X5.9594Y-2.35
X5.9594Y-2.45
X5.9594Y-2.55
X5.9594Y-2.65
X5.9594Y-2.75
X5.9594Y-3.248
X5.9594Y-3.348
X5.9594Y-3.448
X5.9594Y-3.548
X5.9594Y-3.648
X5.9594Y-3.748
X5.9594Y-3.848
X5.9594Y-3.948
X5.9594Y-4.4461
X5.9594Y-4.5461
X5.9594Y-4.6461
X5.9594Y-4.7461
X5.9594Y-4.8461
X5.9594Y-4.9461
X5.9594Y-5.0461
X5.9594Y-5.1461
X6.0594Y-0.852
X6.0594Y-0.952
X6.0594Y-1.052
X6.0594Y-1.152
X6.0594Y-1.252
X6.0594Y-1.352
X6.0594Y-1.452
X6.0594Y-1.552
X6.0594Y-2.05
X6.0594Y-2.15
X6.0594Y-2.25
X6.0594Y-2.35
X6.0594Y-2.45
X6.0594Y-2.55
X6.0594Y-2.65
X6.0594Y-2.75
X6.0594Y-3.248
X6.0594Y-3.348
X6.0594Y-3.448
X6.0594Y-3.548
X6.0594Y-3.648
X6.0594Y-3.748
X6.0594Y-3.848
X6.0594Y-3.948
X6.0594Y-4.4461
X6.0594Y-4.5461
X6.0594Y-4.6461
X6.0594Y-4.7461
X6.0594Y-4.8461
X6.0594Y-4.9461
X6.0594Y-5.0461
X6.0594Y-5.1461
X6.3638Y-0.8701
X6.3638Y-2.0681
X6.3638Y-3.2661
X6.3638Y-4.4642
X6.4638Y-0.8701
X6.4638Y-2.0681
X6.4638Y-3.2661
X6.4638Y-4.4642
X6.7594Y-0.852
X6.7594Y-0.952
X6.7594Y-1.052
X6.7594Y-1.152
X6.7594Y-1.252
X6.7594Y-1.352
X6.7594Y-1.452
X6.7594Y-1.552
X6.7594Y-2.05
X6.7594Y-2.15
X6.7594Y-2.25
X6.7594Y-2.35
X6.7594Y-2.45
X6.7594Y-2.55
X6.7594Y-2.65
X6.7594Y-2.75
X6.7594Y-3.248
X6.7594Y-3.348
X6.7594Y-3.448
X6.7594Y-3.548
X6.7594Y-3.648
X6.7594Y-3.748
X6.7594Y-3.848
X6.7594Y-3.948
X6.7594Y-4.4461
X6.7594Y-4.5461
X6.7594Y-4.6461
X6.7594Y-4.7461
X6.7594Y-4.8461
X6.7594Y-4.9461
X6.7594Y-5.0461
X6.7594Y-5.1461
X6.8594Y-0.852
X6.8594Y-0.952
X6.8594Y-1.052
X6.8594Y-1.152
X6.8594Y-1.252
X6.8594Y-1.352
X6.8594Y-1.452
X6.8594Y-1.552
X6.8594Y-2.05
X6.8594Y-2.15
X6.8594Y-2.25
X6.8594Y-2.35
X6.8594Y-2.45
X6.8594Y-2.55
X6.8594Y-2.65
X6.8594Y-2.75
X6.8594Y-3.248
X6.8594Y-3.348
X6.8594Y-3.448
X6.8594Y-3.548
X6.8594Y-3.648
X6.8594Y-3.748
X6.8594Y-3.848
X6.8594Y-3.948
X6.8594Y-4.4461
X6.8594Y-4.5461
X6.8594Y-4.6461
X6.8594Y-4.7461
X6.8594Y-4.8461
X6.8594Y-4.9461
X6.8594Y-5.0461
X6.8594Y-5.1461
X7.0823Y-0.852
X7.0823Y-0.952
X7.0823Y-1.052
X7.0823Y-1.152
X7.0823Y-1.252
X7.0823Y-1.352
X7.0823Y-1.452
X7.0823Y-1.552
X7.0823Y-2.05
X7.0823Y-2.15
X7.0823Y-2.25
X7.0823Y-2.35
X7.0823Y-2.45
X7.0823Y-2.55
X7.0823Y-2.65
X7.0823Y-2.75
X7.0823Y-3.248
X7.0823Y-3.348
X7.0823Y-3.448
X7.0823Y-3.548
X7.0823Y-3.648
X7.0823Y-3.748
X7.0823Y-3.848
X7.0823Y-3.948
X7.0823Y-4.4461
X7.0823Y-4.5461
X7.0823Y-4.6461
X7.0823Y-4.7461
X7.0823Y-4.8461
X7.0823Y-4.9461
X7.0823Y-5.0461
X7.0823Y-5.1461
X7.1823Y-0.852
X7.1823Y-0.952
X7.1823Y-1.052
X7.1823Y-1.152
X7.1823Y-1.252
X7.1823Y-1.352
X7.1823Y-1.452
X7.1823Y-1.552
X7.1823Y-2.05
X7.1823Y-2.15
X7.1823Y-2.25
X7.1823Y-2.35
X7.1823Y-2.45
X7.1823Y-2.55
X7.1823Y-2.65
X7.1823Y-2.75
X7.1823Y-3.248
X7.1823Y-3.348
X7.1823Y-3.448
X7.1823Y-3.548
X7.1823Y-3.648
X7.1823Y-3.748
X7.1823Y-3.848
X7.1823Y-3.948
X7.1823Y-4.4461
X7.1823Y-4.5461
X7.1823Y-4.6461
X7.1823Y-4.7461
X7.1823Y-4.8461
X7.1823Y-4.9461
X7.1823Y-5.0461
X7.1823Y-5.1461
X7.4866Y-0.8701
X7.4866Y-2.0681
X7.4866Y-3.2661
X7.4866Y-4.4642
X7.5866Y-0.8701
X7.5866Y-2.0681
X7.5866Y-3.2661
X7.5866Y-4.4642
X7.8823Y-0.852
X7.8823Y-0.952
X7.8823Y-1.052
X7.8823Y-1.152
X7.8823Y-1.252
X7.8823Y-1.352
X7.8823Y-1.452
X7.8823Y-1.552
X7.8823Y-2.05
X7.8823Y-2.15
X7.8823Y-2.25
X7.8823Y-2.35
X7.8823Y-2.45
X7.8823Y-2.55
X7.8823Y-2.65
X7.8823Y-2.75
X7.8823Y-3.248
X7.8823Y-3.348
X7.8823Y-3.448
X7.8823Y-3.548
X7.8823Y-3.648
X7.8823Y-3.748
X7.8823Y-3.848
X7.8823Y-3.948
X7.8823Y-4.4461
X7.8823Y-4.5461
X7.8823Y-4.6461
X7.8823Y-4.7461
X7.8823Y-4.8461
X7.8823Y-4.9461
X7.8823Y-5.0461
X7.8823Y-5.1461
X7.9823Y-0.852
X7.9823Y-0.952
X7.9823Y-1.052
X7.9823Y-1.152
X7.9823Y-1.252
X7.9823Y-1.352
X7.9823Y-1.452
X7.9823Y-1.552
X7.9823Y-2.05
X7.9823Y-2.15
X7.9823Y-2.25
X7.9823Y-2.35
X7.9823Y-2.45
X7.9823Y-2.55
X7.9823Y-2.65
X7.9823Y-2.75
X7.9823Y-3.248
X7.9823Y-3.348
X7.9823Y-3.448
X7.9823Y-3.548
X7.9823Y-3.648
X7.9823Y-3.748
X7.9823Y-3.848
X7.9823Y-3.948
X7.9823Y-4.4461
X7.9823Y-4.5461
X7.9823Y-4.6461
X7.9823Y-4.7461
X7.9823Y-4.8461
X7.9823Y-4.9461
X7.9823Y-5.0461
X7.9823Y-5.1461
M30
